<svg version="1.2" baseProfile="tiny-ps" xmlns="http://www.w3.org/2000/svg" viewBox="0 0 3200 2000" width="3200" height="2000">
	<title>11070-ai</title>
	<style>
		tspan { white-space:pre }
		.shp0 { fill: #ebf3fa } 
		.shp1 { fill: #cde0fb } 
		.shp2 { fill: #dfebfd } 
		.shp3 { fill: #f99746 } 
		.shp4 { fill: #aec3ff } 
		.shp5 { fill: #fff7f0 } 
		.shp6 { fill: #f9dec7 } 
		.shp7 { fill: #ffb27d } 
		.shp8 { fill: #233862 } 
		.shp9 { fill: #2b478b } 
		.shp10 { fill: #ed975d } 
		.shp11 { fill: #95b3ef } 
		.shp12 { fill: #ed7d2b } 
		.shp13 { fill: #ffffff } 
		.shp14 { fill: #1b3770 } 
		.shp15 { fill: #e8c2a3 } 
		.shp16 { fill: #f78248 } 
		.shp17 { fill: #699dee } 
		.shp18 { fill: #4b87dd } 
		.shp19 { fill: #f9ddbf } 
		.shp20 { fill: #1f4075 } 
		.shp21 { fill: #ef7e29 } 
		.shp22 { fill: #ed985f } 
		.shp23 { fill: #2c3a64 } 
		.shp24 { fill: #afcdfb } 
		.shp25 { fill: #ea642f } 
		.shp26 { fill: #ef873a } 
		.shp27 { fill: #a6c7ed } 
		.shp28 { fill: #e3f0ff } 
		.shp29 { fill: #1c3d72 } 
		.shp30 { fill: #fca56b } 
		.shp31 { fill: #163560 } 
		.shp32 { fill: #1f4d84 } 
		.shp33 { fill: #b3cff9 } 
	</style>
	<g id="‘лой_1">
		<g id="&lt;Group&gt;">
			<path id="&lt;Path&gt;" class="shp0" d="M372.25 1818.62C173.97 1762.72 120.29 1606.79 211.21 1350.82C347.59 966.87 607.02 1132.51 532.06 796.72C433.21 353.94 851.8 52.83 1312 175.47C1772.2 298.11 1648.86 434.42 2189.67 297.14C2848.97 129.79 2904.58 826.05 2751.67 1057.32C2598.76 1288.59 3169.07 1321.94 2933.51 1818.62L372.25 1818.62Z" />
			<g id="&lt;Group&gt;">
				<path id="&lt;Path&gt;" class="shp1" d="M2451.25 947.59C2502.05 844 2541.66 796.81 2570.07 806C2598.49 815.19 2558.88 862.39 2451.25 947.59Z" />
				<path id="&lt;Path&gt;" class="shp1" d="M2396.44 1017.88C2518.14 898.6 2602.64 849.83 2649.93 871.58C2720.86 904.21 2606.69 939.21 2563.14 948.74C2534.11 955.09 2478.54 978.14 2396.44 1017.88Z" />
			</g>
			<path id="&lt;Path&gt;" class="shp1" d="M2853.92 1692.36C2897.4 1663.8 2898.48 1611.71 2857.19 1536.08C2755.77 1508.78 2701.47 1487.51 2694.27 1472.26C2687.07 1457.01 2732.7 1460.21 2831.16 1481.87C2824.04 1450.08 2788.73 1401.12 2725.22 1334.98C2629.44 1371.88 2579.94 1382.05 2576.72 1365.49C2573.49 1348.94 2616.73 1334.77 2706.43 1322.97C2687.71 1296.09 2656.39 1274.43 2612.48 1258C2544.42 1241.79 2501.74 1277.79 2484.43 1366.02C2450.96 1378.1 2411.42 1380.05 2365.82 1371.88L2365.82 1371.88C2357.12 1369.52 2345.9 1367.93 2332.16 1367.13L2336.16 1379.33C2339.76 1379.25 2343.28 1379.31 2346.71 1379.53C2346.73 1379.52 2346.75 1379.53 2346.77 1379.54C2346.82 1379.54 2346.87 1379.55 2346.92 1379.55C2349.08 1379.77 2352.15 1380.09 2355.91 1380.51C2355.91 1380.51 2355.92 1380.51 2355.92 1380.52C2355.93 1380.51 2355.94 1380.52 2355.94 1380.52C2364.46 1381.85 2370.67 1382.6 2375.08 1382.92C2375.09 1382.92 2375.11 1382.92 2375.12 1382.92C2401.67 1386.58 2436.77 1392.88 2446.54 1401.56C2447.51 1400.24 2449.09 1398.76 2451.28 1397.11C2449.77 1398.53 2448.2 1400.01 2446.54 1401.56C2408.66 1437.09 2435.41 1543.9 2466.4 1598.13C2497.39 1652.37 2505.48 1621.65 2521.83 1581.62C2538.19 1541.58 2509.67 1478.28 2513.75 1455.48C2517.84 1432.68 2537.56 1457.58 2547.28 1497.32C2557.01 1537.06 2524.6 1569.15 2539.16 1633.73C2548.86 1676.77 2598.19 1701.33 2687.14 1707.4C2659.55 1668.56 2657.99 1583.21 2671.92 1575.35C2685.85 1567.48 2721.99 1682.77 2732.33 1699.19C2742.67 1715.62 2788.71 1735.2 2853.92 1692.36Z" />
			<g id="&lt;Group&gt;">
				<path id="&lt;Path&gt;" class="shp2" d="M794.45 1121.63C730.37 990.99 680.41 931.46 644.58 943.05C608.74 954.65 658.7 1014.17 794.45 1121.63Z" />
				<path id="&lt;Path&gt;" class="shp2" d="M863.57 1210.3C710.08 1059.84 603.51 998.33 543.86 1025.77C454.39 1066.93 598.4 1111.06 653.32 1123.08C689.94 1131.1 760.02 1160.17 863.57 1210.3Z" />
			</g>
			<path id="&lt;Path&gt;" class="shp1" d="M429.48 1339.86C430.26 1294.14 468.45 1268.86 544.03 1264.01C611.96 1326.51 653.29 1356.86 668 1355.04C682.71 1353.22 658.89 1320.83 596.53 1257.87C623.49 1248.22 676.46 1251.44 755.44 1267.54C773.03 1356.03 788.73 1397.58 802.55 1392.2C816.36 1386.82 806.57 1348.04 773.18 1275.87C801.95 1277.14 832.75 1290.23 865.59 1315.13C909.62 1358.07 902.92 1406.69 845.51 1461.01C852.27 1491.54 869.4 1521.83 896.89 1551.87L896.9 1551.87C902.74 1557.23 909.19 1564.82 916.24 1574.64L905.3 1577.4C903.67 1574.7 901.97 1572.11 900.19 1569.66C900.18 1569.64 900.17 1569.63 900.16 1569.62C900.13 1569.58 900.1 1569.55 900.08 1569.51C898.9 1568.01 897.22 1565.88 895.14 1563.29C895.14 1563.29 895.13 1563.28 895.13 1563.28C895.13 1563.27 895.12 1563.28 895.12 1563.27C890.13 1557.57 886.65 1553.31 884.34 1550.18C884.33 1550.17 884.33 1550.16 884.32 1550.15C869.13 1532.14 736.41 1581 681.56 1583.46C626.71 1585.93 645.73 1565.48 667.78 1534.52C689.84 1503.56 750.26 1495.01 765.28 1481.26C780.3 1467.51 752.54 1464.56 718.44 1476.01C684.35 1487.46 675.74 1526.62 620.93 1546.14C584.39 1559.15 542.97 1534.05 496.67 1470.82C538.48 1473.07 602.62 1434.13 601.92 1420.08C601.22 1406.03 498.59 1433.36 481.53 1433.4C464.47 1433.43 428.29 1408.43 429.48 1339.86Z" />
			<g id="&lt;Group&gt;">
				<path id="&lt;Path&gt;" class="shp3" d="M1582.19 1813.67L772.58 1813.67C754.99 1813.67 740.74 1799.38 740.74 1781.74L740.74 700.1C740.74 682 755.73 667.52 773.78 668.19L1614.03 706.94L1614.03 1781.74C1614.03 1799.38 1599.77 1813.67 1582.19 1813.67Z" />
				<path id="&lt;Path&gt;" class="shp3" d="M1645.88 1813.67L2455.48 1813.67C2473.07 1813.67 2487.33 1799.38 2487.33 1781.74L2487.33 700.1C2487.33 682 2472.33 667.52 2454.29 668.19L1614.03 706.94L1614.03 1781.74C1614.03 1799.38 1628.29 1813.67 1645.88 1813.67Z" />
				<path id="&lt;Path&gt;" class="shp4" d="M802.04 715.11L775.79 736.44C772.08 739.45 769.92 744.03 769.92 748.88L769.92 1797.5C769.92 1806.28 776.87 1813.39 785.45 1813.39L850.8 1813.39C859.75 1813.39 866.85 1805.68 866.3 1796.54L802.04 715.11Z" />
				<path id="&lt;Path&gt;" class="shp4" d="M2427.62 715.11L2453.87 736.44C2457.58 739.45 2459.75 744.03 2459.75 748.88L2459.75 1797.5C2459.75 1806.28 2452.79 1813.39 2444.22 1813.39L2378.86 1813.39C2369.91 1813.39 2362.82 1805.68 2363.36 1796.54L2427.62 715.11Z" />
				<path id="&lt;Path&gt;" class="shp5" d="M1584.07 1813.67L822.33 1813.67C805.79 1813.67 792.37 1799.86 792.37 1782.82L792.37 737.8C792.37 720.3 806.48 706.31 823.46 706.97L1488.35 732.66C1558.51 735.37 1614.03 794.73 1614.03 867.02L1614.03 1782.82C1614.03 1799.86 1600.62 1813.67 1584.07 1813.67Z" />
				<path id="&lt;Path&gt;" class="shp5" d="M1641.53 1813.67L2408.19 1813.67C2423.38 1813.67 2435.69 1801 2435.69 1785.36L2435.69 735.16C2435.69 719.11 2422.74 706.27 2407.16 706.87L1725.6 733.21C1663.32 735.62 1614.03 788.31 1614.03 852.48L1614.03 1785.36C1614.03 1801 1626.34 1813.67 1641.53 1813.67Z" />
				<g id="&lt;Group&gt;">
					<path id="&lt;Path&gt;" class="shp6" d="M1616.1 1593.5L1611.97 1593.5L1611.97 914.95L1616.1 914.95L1616.1 1593.5Z" />
				</g>
			</g>
			<g id="&lt;Group&gt;">
				<g id="&lt;Group&gt;">
					<path id="&lt;Path&gt;" class="shp7" d="M2012.69 847.21C2014.22 848.98 2014.41 850.96 2013.63 853.06C2013.63 853.07 2013.62 853.08 2013.61 853.09C2012.17 856.98 2007.49 861.29 2002.04 865.6C2001.35 866.16 2000.73 866.66 2000.19 867.13C2000.05 867.25 1999.91 867.37 1999.77 867.49C1999.66 867.59 1999.56 867.69 1999.45 867.78C1994.38 872.39 1996.27 873.47 1987.13 882.85C1976.72 893.53 1969.6 893.67 1967.59 892.68C1965.88 891.83 1969.4 886.15 1973.3 879.77C1973.49 879.46 1973.67 879.15 1973.87 878.84C1974.39 877.99 1974.9 877.13 1975.42 876.27C1979.99 868.59 1978.86 864.96 1977.87 853.47C1977.33 847.24 1972.61 829.83 1963.72 801.23L1983.55 797.96C1987.37 820.71 1991.46 833.85 1995.81 837.38C1999.31 840.2 2003.24 840.27 2006.61 842.36C2006.84 842.51 2007.08 842.66 2007.3 842.81C2009.22 844.1 2011.16 845.43 2012.69 847.21Z" />
					<path id="&lt;Path&gt;" class="shp8" d="M2012.69 847.21C2014.22 848.98 2014.41 850.96 2013.63 853.06C2013.63 853.07 2013.62 853.08 2013.61 853.09C2011.86 856.97 2007.29 861.27 2002.03 865.56C2001.34 866.12 2000.73 866.64 2000.19 867.13C2000.05 867.25 1999.91 867.37 1999.77 867.49C1999.66 867.59 1999.56 867.69 1999.45 867.78C1994.38 872.39 1996.27 873.47 1987.13 882.85C1976.72 893.53 1969.6 893.67 1967.59 892.68C1965.88 891.83 1969.4 886.15 1973.3 879.77C1975.32 879.05 1984.69 875.31 1991.82 866.32C1998.1 858.42 2002.33 848.25 2006.61 842.36C2006.84 842.51 2007.08 842.66 2007.3 842.81C2009.22 844.1 2011.16 845.43 2012.69 847.21Z" />
					<path id="&lt;Path&gt;" class="shp7" d="M1853.05 833.71C1851.78 839.81 1843.07 838.73 1833.35 836.28C1823.63 833.84 1825.92 836.68 1812.08 835.05C1798.23 833.42 1794.07 828.22 1793.66 826.16C1793.29 824.33 1800.14 823.73 1807.5 822.93C1808.42 822.84 1809.35 822.73 1810.28 822.62C1818.58 821.64 1824.69 816.33 1832.25 811.99C1837.03 809.25 1843.01 802.25 1850.19 790.99L1869.18 792.63C1862.46 802.68 1857.8 809.9 1855.2 814.27C1852.9 818.13 1852.98 823.25 1853.24 827.21C1853.37 829.36 1853.5 831.56 1853.05 833.71Z" />
					<path id="&lt;Path&gt;" class="shp8" d="M1833.35 836.28C1823.63 833.84 1825.92 836.68 1812.08 835.05C1798.23 833.42 1794.07 828.22 1793.66 826.16C1793.29 824.33 1800.14 823.73 1807.5 822.93L1807.56 823.08C1813.08 827.04 1819.68 829.15 1827.37 829.39C1836.77 829.68 1846.75 827.06 1853.24 827.21C1853.37 829.36 1853.5 831.56 1853.05 833.71C1851.78 839.81 1843.07 838.73 1833.35 836.28Z" />
					<path id="&lt;Path&gt;" class="shp8" d="M1991.22 816.46C1990.34 817.04 1989.24 817.69 1987.92 818.41C1985.57 819.71 1982.29 821.33 1979.26 822.18C1976.03 823.09 1972.72 823.32 1970.35 823.34C1968.98 823.35 1967.84 823.31 1966.93 823.22L1944.17 760.62L1940.06 749.31L1935.68 737.26L1934.16 733.07L1926.75 712.69C1938.82 681.72 1951.02 673.62 1963.33 688.38C1965.58 691.08 1967.69 695.01 1969.66 699.82C1971.01 703.11 1972.29 706.81 1973.51 710.82C1974.42 713.83 1975.31 717.02 1976.16 720.33C1978.46 729.35 1980.5 739.31 1982.28 749.31C1986.24 771.56 1989.22 793.95 1991.22 816.46Z" />
					<path id="&lt;Path&gt;" class="shp9" d="M2113.53 717.9L2021.24 721.78C2001.02 717.6 1983.96 706.9 1972.36 701.16C1971.4 700.68 1970.5 700.23 1969.66 699.82C1965.7 697.86 1962.98 696.52 1961.86 696.28C1954.84 694.82 1951.23 706.26 1945.28 720.33C1944.06 723.2 1942.76 726.16 1941.31 729.16C1940.27 731.3 1938.32 734.06 1935.68 737.26C1935.19 737.85 1934.69 738.45 1934.16 739.07C1920.54 754.98 1896.21 777.74 1861.15 807.35C1860.74 807.35 1860.2 807.35 1859.53 807.33C1856.32 807.27 1849.15 806.98 1845.72 805.66C1843.74 804.9 1842.28 804.06 1841.24 803.34C1840.23 802.62 1839.52 801.98 1839.11 801.42C1881.06 719.41 1912.89 667.23 1934.61 644.89L1934.61 644.88C1935.08 644.39 1935.54 643.93 1936.01 643.49C1939.56 640.01 1942.72 637.71 1945.35 636.89C1952.75 634.56 1980.38 634.69 2028.25 637.29L2030.54 633.56L2034.38 633.29L2035.04 633.25L2038.23 633.01L2038.24 633.01L2042.66 632.7L2049.22 632.24L2066.96 630.98L2069.81 630.78L2102.62 628.44C2103.62 630.7 2104.79 633.69 2106.14 637.41C2106.93 639.6 2107.79 642.11 2108.68 644.9C2114.54 663.22 2122.12 696.17 2113.53 717.9Z" />
					<path id="&lt;Compound Path&gt;" class="shp8" d="M2134.52 506.15C2118.13 492.15 2106.43 488.69 2104.8 466.53C2103.92 454.51 2087.77 414.72 2060.46 418.2C2058.17 418.49 2055.87 418.69 2053.57 418.6C2050.38 418.48 2045.11 418.9 2039.69 422.09C2026.54 429.78 2002.32 500.98 2018.65 525.99C2021.58 530.48 2025.81 533.49 2031.67 534.37C2032.36 534.75 2033.05 535.15 2033.77 535.55L2033.78 535.55C2036.72 537.2 2039.95 539.01 2043.36 540.95C2062.66 551.83 2087.93 566.22 2100.88 573.49L2100.88 573.49C2101.67 573.93 2102.4 574.35 2103.09 574.74C2104.59 575.58 2105.86 576.28 2106.86 576.83C2108.37 577.66 2109.26 578.13 2109.33 578.13C2111.55 578.98 2114.22 579.73 2117.34 580.38C2123.84 581.73 2132.96 582.49 2139.31 578.34C2141.82 576.7 2144.17 574.67 2146.26 572.32C2159.4 557.62 2162.86 530.33 2134.52 506.15Z" />
					<path id="&lt;Path&gt;" class="shp7" d="M2053.26 522.49C2053.14 522.56 2065.85 527 2074.39 523.29C2082.42 519.81 2088.58 506.67 2088.46 506.66C2084.82 506.47 2080.84 503.25 2077.91 482.33L2076.35 482.87L2050.2 492.08C2051.42 497.67 2052.42 503.12 2053.2 508.44C2054.18 515.14 2054.69 521.56 2053.26 522.49Z" />
					<path id="&lt;Path&gt;" class="shp10" d="M2050.2 492.08C2050.94 496 2051.83 500.75 2052.86 506.35C2067.87 503.76 2074.19 490.96 2076.35 482.87L2050.2 492.08Z" />
					<path id="&lt;Path&gt;" class="shp7" d="M2046.26 500.36C2070.07 497.33 2080.93 488.42 2078.81 473.61C2075.65 451.41 2078.12 435.87 2055.18 437.83C2032.23 439.78 2029.02 448.89 2028.27 456.56C2027.53 464.23 2036.88 500.97 2046.26 500.36Z" />
					<path id="&lt;Path&gt;" class="shp8" d="M2029.66 444.41C2044.8 457.64 2057.55 464.83 2067.9 465.96C2078.26 467.09 2085.41 466.01 2089.35 462.71C2083.28 457.59 2078.44 450.93 2074.82 442.72C2073.22 439.09 2069.8 436.59 2065.85 436.22C2054.76 435.18 2033.73 434.59 2029.66 444.41Z" />
					<path id="&lt;Path&gt;" class="shp8" d="M2043.96 442.75C2038.82 447.64 2035.44 451.9 2033.81 455.55C2031.45 460.82 2030.67 473.47 2032.48 478.51C2024.65 463.01 2023.01 451.53 2027.56 444.06C2032.38 436.14 2037.85 435.7 2043.96 442.75Z" />
					<path id="&lt;Path&gt;" class="shp4" d="M2022.83 574.86C2023.4 647.12 2022.72 632.02 2030.58 638.93C2032.47 640.6 2037.82 641.62 2044.86 642.13C2067 643.76 2105.98 640.38 2107.49 636.3C2112.7 622.17 2109.12 617.74 2113.54 596.08C2114 593.78 2114.57 591.28 2115.23 588.57C2118.89 573.7 2122.39 568.65 2109.94 544.63C2098.66 522.87 2086.9 505.19 2085.83 505.82C2065.63 517.62 2054.75 518.49 2053.2 508.45C2032.76 529.22 2022.64 551.36 2022.83 574.86Z" />
					<path id="&lt;Path&gt;" class="shp9" d="M1991.22 816.46C1990.34 817.04 1989.24 817.69 1987.92 818.41C1985.57 819.71 1982.29 821.33 1979.26 822.18C1976.03 823.09 1972.72 823.32 1970.35 823.34C1968.98 823.35 1967.84 823.31 1966.93 823.22L1944.17 760.62L1950.84 749.31L1967.91 720.33L1973.51 710.82C1974.42 713.83 1975.31 717.02 1976.16 720.33C1978.46 729.35 1980.5 739.31 1982.28 749.31C1986.24 771.56 1989.22 793.95 1991.22 816.46Z" />
					<path id="&lt;Path&gt;" class="shp4" d="M2053.2 508.44C2032.47 511.81 2020.86 517.93 2018.37 526.83C2015.88 535.73 2007.29 566.32 1992.62 618.61C2003.13 620.58 2010.83 619.15 2015.73 614.32C2020.62 609.49 2029.24 587 2041.58 546.84L2053.2 508.44Z" />
					<path id="&lt;Path&gt;" class="shp11" d="M2044.86 642.13C2067 643.76 2105.98 640.38 2107.49 636.3C2112.7 622.17 2109.12 617.74 2113.54 596.08L2103.06 565.91C2104.08 588.26 2101.28 602.35 2094.65 608.18C2084.72 616.92 2054.07 624.91 2049.21 632.24C2046.87 635.76 2045.32 639.29 2044.86 642.13Z" />
					<path id="&lt;Path&gt;" class="shp7" d="M2070.34 628.22C2055.79 624.87 2047.34 623.84 2044.98 625.11C2041.44 627.03 2032.77 634.03 2031.67 636.48C2030.58 638.93 2039.54 634.67 2042.45 633.91C2044.33 633.42 2049.27 635.18 2051.72 636.01C2058.58 638.35 2064.12 638.95 2068.34 637.8L2070.34 628.22Z" />
					<path id="&lt;Path&gt;" class="shp4" d="M2085.85 505.8C2105.4 507.15 2118.54 512.57 2125.24 522.06C2139.4 542.11 2167.18 627.32 2150.84 638.55C2138.57 646.97 2110.78 647.89 2067.47 641.3C2066.08 634.55 2066.39 629.55 2068.42 626.3C2071.47 621.43 2120.46 613.87 2122.73 611.62C2125 609.38 2094.81 567.39 2094.86 560.62C2094.89 556.1 2091.89 537.83 2085.85 505.8Z" />
					<path id="&lt;Path&gt;" class="shp7" d="M2043.88 631.19C2040.8 635.11 2038.75 637.3 2037.75 637.76C2036.75 638.22 2035.92 638.39 2035.27 638.27L2038.4 632.74L2043.88 631.19Z" />
					<path id="&lt;Path&gt;" class="shp7" d="M2044.98 625.11L2031.62 631.48C2031.99 632.1 2032.72 632.39 2033.82 632.35C2034.91 632.31 2036.84 631.79 2039.6 630.81L2044.98 625.11Z" />
				</g>
				<g id="&lt;Group&gt;">
					<g id="&lt;Group&gt;">
						<path id="&lt;Path&gt;" class="shp3" d="M2040.6 644L1935.27 643.25L1904.14 564.24L2009.31 564.98L2040.6 644Z" />
						<path id="&lt;Path&gt;" class="shp12" d="M1934.05 640.18L2073.15 641.16L2073.12 644.23L1935.27 643.25L1934.05 640.18Z" />
					</g>
					<path id="&lt;Path&gt;" class="shp13" d="M1962.13 604.05C1961.36 601.27 1962.98 599.04 1965.75 599.06C1968.52 599.08 1971.39 601.34 1972.16 604.12C1972.94 606.89 1971.32 609.13 1968.55 609.11C1965.78 609.09 1962.91 606.82 1962.13 604.05Z" />
				</g>
			</g>
			<g id="&lt;Group&gt;">
				<g id="&lt;Group&gt;">
					<path id="&lt;Path&gt;" class="shp9" d="M900.94 1812.98L1463.18 1812.98C1502.29 1812.98 1533.99 1781.27 1533.99 1742.17L1533.99 1739.21C1533.99 1700.11 1502.29 1668.4 1463.18 1668.4L900.94 1668.4C861.83 1668.4 830.13 1700.11 830.13 1739.21L830.13 1742.17C830.13 1781.27 861.83 1812.98 900.94 1812.98Z" />
					<path id="&lt;Path&gt;" class="shp6" d="M1219.58 1721.46L1219.08 1753.05C1218.63 1781 1240.93 1804.03 1268.88 1804.47L1642.56 1810.44L1642.66 1804.15C1621.7 1793.24 1607.55 1771.17 1607.95 1745.94L1608.13 1734.82C1608.53 1709.59 1623.38 1687.98 1644.68 1677.75L1644.69 1677.62L1271 1671.65C1243.05 1671.21 1220.03 1693.51 1219.58 1721.46Z" />
					<g id="&lt;Group&gt;">
						<path id="&lt;Path&gt;" class="shp14" d="M1652.35 1812.98L1258.67 1812.98C1233.28 1812.98 1213.39 1781.2 1213.39 1740.64C1213.39 1700.08 1233.28 1668.31 1258.67 1668.31L1652.35 1668.31C1655.62 1668.31 1658.27 1670.96 1658.27 1674.23C1658.27 1677.5 1655.62 1680.15 1652.35 1680.15L1258.67 1680.15C1240.54 1680.15 1225.22 1707.85 1225.22 1740.64C1225.22 1773.43 1240.54 1801.14 1258.67 1801.14L1652.35 1801.14C1655.62 1801.14 1658.27 1803.79 1658.27 1807.06C1658.27 1810.33 1655.62 1812.98 1652.35 1812.98Z" />
					</g>
					<g id="&lt;Group&gt;">
						<path id="&lt;Path&gt;" class="shp15" d="M1614.79 1707.76L1276.24 1707.76L1276.24 1706.82L1614.79 1706.82L1614.79 1707.76Z" />
					</g>
					<g id="&lt;Group&gt;">
						<path id="&lt;Path&gt;" class="shp15" d="M1609.98 1720.88L1481.46 1720.88L1481.46 1720.03L1609.98 1720.03L1609.98 1720.88Z" />
					</g>
					<g id="&lt;Group&gt;">
						<path id="&lt;Path&gt;" class="shp15" d="M1609.98 1765.78L1385.77 1765.78L1385.77 1764.92L1609.98 1764.92L1609.98 1765.78Z" />
					</g>
				</g>
				<path id="&lt;Path&gt;" class="shp16" d="M1318.28 1707.29C1329.86 1712.14 1336.34 1722.74 1337.72 1739.1C1339.09 1755.45 1339.09 1767.99 1337.72 1776.71L1316.75 1766.73L1295.58 1776.71L1295.58 1738.35C1295.06 1717.64 1285.17 1707.29 1265.91 1707.29L1318.28 1707.29Z" />
			</g>
			<g id="&lt;Group&gt;">
				<g id="&lt;Group&gt;">
					<path id="&lt;Path&gt;" class="shp17" d="M855.86 1668.4L1288.45 1668.4C1314.05 1668.4 1334.8 1647.65 1334.8 1622.05L1334.8 1605.93C1334.8 1580.33 1314.05 1559.58 1288.45 1559.58L855.86 1559.58C830.26 1559.58 809.51 1580.33 809.51 1605.93L809.51 1622.05C809.51 1647.65 830.26 1668.4 855.86 1668.4Z" />
					<path id="&lt;Path&gt;" class="shp6" d="M1100.16 1599.46L1099.78 1623.21C1099.45 1644.21 1116.09 1661.52 1136.95 1661.86L1415.83 1666.34L1415.91 1661.61C1400.26 1653.42 1389.7 1636.82 1390 1617.86L1390.13 1609.5C1390.43 1590.54 1401.52 1574.29 1417.41 1566.6L1417.41 1566.51L1138.54 1562.02C1117.68 1561.69 1100.49 1578.45 1100.16 1599.46Z" />
					<g id="&lt;Group&gt;">
						<path id="&lt;Path&gt;" class="shp18" d="M1423.13 1668.25L1129.33 1668.25C1110.38 1668.25 1095.53 1644.37 1095.53 1613.88C1095.53 1583.39 1110.38 1559.5 1129.33 1559.5L1423.13 1559.5C1425.57 1559.5 1427.55 1561.5 1427.55 1563.95C1427.55 1566.41 1425.57 1568.4 1423.13 1568.4L1129.33 1568.4C1115.8 1568.4 1104.37 1589.23 1104.37 1613.88C1104.37 1638.53 1115.8 1659.35 1129.33 1659.35L1423.13 1659.35C1425.57 1659.35 1427.55 1661.34 1427.55 1663.8C1427.55 1666.26 1425.57 1668.25 1423.13 1668.25Z" />
					</g>
					<g id="&lt;Group&gt;">
						<path id="&lt;Path&gt;" class="shp15" d="M1395.1 1589.13L1182.96 1589.13L1182.96 1588.49L1395.1 1588.49L1395.1 1589.13Z" />
					</g>
					<g id="&lt;Group&gt;">
						<path id="&lt;Path&gt;" class="shp15" d="M1391.51 1599.02L1295.6 1599.02L1295.6 1598.38L1391.51 1598.38L1391.51 1599.02Z" />
					</g>
					<g id="&lt;Group&gt;">
						<path id="&lt;Path&gt;" class="shp15" d="M1391.51 1632.77L1224.19 1632.77L1224.19 1632.13L1391.51 1632.13L1391.51 1632.77Z" />
					</g>
				</g>
			</g>
			<g id="&lt;Group&gt;">
				<g id="&lt;Group&gt;">
					<path id="&lt;Path&gt;" class="shp7" d="M2338.5 1469.35C2342.1 1480.44 2343.75 1487.26 2343.44 1489.8C2342.98 1493.61 2339.58 1506.62 2337.16 1509.95C2334.74 1513.28 2333.54 1496.38 2331.62 1493.84C2329.7 1491.3 2331.23 1500.2 2329.88 1501.03C2328.52 1501.85 2325.7 1494.48 2324.49 1491.88C2323.28 1489.28 2327.46 1479.69 2327.47 1473C2327.47 1468.55 2331.15 1467.33 2338.5 1469.35Z" />
					<path id="&lt;Path&gt;" class="shp8" d="M2211.38 1337.11C2209.88 1318.02 2230.62 1304.94 2246.99 1314.87C2247.33 1315.07 2247.66 1315.28 2247.99 1315.49C2272.5 1331.27 2325.39 1404.89 2329.03 1412.26C2331.45 1417.18 2336.25 1439.19 2343.41 1478.31C2334.56 1481.55 2328.07 1481.49 2323.93 1478.13C2309.57 1441.03 2301.33 1421.56 2299.21 1419.7C2296.03 1416.92 2213.09 1370.38 2212.38 1352.94C2212.19 1348.32 2211.82 1342.78 2211.38 1337.11Z" />
				</g>
				<g id="&lt;Group&gt;">
					<path id="&lt;Path&gt;" class="shp3" d="M2102.06 1306.32L2109.27 1327.03L2005.1 1363.3L1997.89 1342.59L2102.06 1306.32Z" />
					<path id="&lt;Path&gt;" class="shp19" d="M1977.27 1361.38L2005.1 1363.3L1997.89 1342.59L1977.27 1361.38Z" />
					<path id="&lt;Path&gt;" class="shp19" d="M2116.56 1308.97L2118.84 1315.52C2120.24 1319.55 2118.11 1323.95 2114.09 1325.35L2109.27 1327.03L2102.06 1306.32L2107.3 1304.5C2111.09 1303.17 2115.24 1305.18 2116.56 1308.97Z" />
				</g>
				<g id="&lt;Group&gt;">
					<path id="&lt;Path&gt;" class="shp20" d="M2359.39 1768.03C2365.97 1774.04 2368.63 1779.18 2367.34 1783.46C2365.41 1789.86 2356.49 1794.14 2355.29 1801.97C2354.08 1809.8 2349.26 1814.07 2344.92 1814.07C2342.03 1814.07 2335.13 1814.07 2324.24 1814.07C2322.11 1810.4 2323.61 1808.01 2328.76 1806.9C2336.47 1805.24 2339.38 1796.04 2338.9 1787.49C2338.57 1781.79 2338.82 1775.15 2339.62 1767.55L2356.01 1763.76L2359.39 1768.03Z" />
					<path id="&lt;Path&gt;" class="shp20" d="M2238.14 1791.36C2239.32 1805.04 2238.47 1812.59 2235.57 1814.02L2180.04 1813.9C2180.04 1809.63 2183.02 1807.02 2188.96 1806.07C2197.88 1804.65 2213.55 1799.43 2216.2 1787.8C2217.97 1780.04 2225.28 1781.23 2238.14 1791.36Z" />
					<path id="&lt;Path&gt;" class="shp3" d="M2191.26 1501.41C2193.21 1525.39 2195.33 1551.8 2197.63 1580.64C2202.31 1639.39 2207.93 1711.55 2208.49 1725.23C2209.13 1741.05 2210.74 1761.62 2213.31 1786.94C2219.42 1792.95 2228.58 1794.69 2240.79 1792.16C2251.68 1756.02 2258.68 1718.83 2261.79 1680.59C2261.86 1679.65 2261.93 1678.71 2262 1677.76C2264.9 1638.83 2268.59 1578.39 2273.09 1496.42L2191.26 1501.41Z" />
					<path id="&lt;Path&gt;" class="shp21" d="M2191.26 1501.41C2193.21 1525.39 2195.33 1551.8 2197.63 1580.64L2261.79 1680.59C2261.86 1679.65 2261.93 1678.71 2262 1677.76C2264.9 1638.83 2268.59 1578.39 2273.09 1496.42L2191.26 1501.41Z" />
					<path id="&lt;Path&gt;" class="shp3" d="M2204.63 1505.68C2239.83 1592.55 2268.99 1656.4 2292.13 1697.22C2315.27 1738.04 2330.46 1764.15 2337.69 1775.55C2350.95 1770.32 2358.18 1765.93 2359.39 1762.37C2350.54 1683.56 2338.36 1634.55 2322.87 1615.34C2309.73 1599.05 2294.3 1550.18 2293.58 1533.09C2293.1 1521.7 2291.53 1504.73 2288.88 1482.18L2204.63 1505.68Z" />
				</g>
				<path id="&lt;Path&gt;" class="shp7" d="M2250.15 1310.21C2226.57 1322.17 2207.88 1326.16 2194.07 1322.17C2197.36 1317.84 2201.93 1314.03 2207.78 1310.74C2206.99 1306.62 2206.36 1303.05 2205.98 1300.01C2205.31 1295.35 2204.95 1291.69 2204.9 1289.04L2218.46 1277.93L2231.32 1267.3C2231.02 1286.75 2237.29 1301.06 2250.15 1310.21Z" />
				<path id="&lt;Path&gt;" class="shp9" d="M2285.28 1492.49C2271 1501.14 2257.48 1507.63 2241.66 1511.28C2223 1515.71 2200.06 1514.4 2192.39 1515.57C2191.6 1515.68 2190.85 1515.47 2190.15 1515.01C2189.55 1514.7 2186.16 1491.93 2182.77 1463.2C2182.62 1462.05 2182.46 1460.88 2182.4 1459.71L2182.35 1459.32C2181.03 1448.09 2179.87 1436.29 2178.87 1424.46C2178.05 1415.26 2177.38 1406.16 2176.91 1397.61C2176.32 1386.92 2176.08 1377.09 2176.32 1369.01C2176.43 1365.32 2176.64 1362 2176.97 1359.11C2179 1342.33 2187 1330.34 2194.54 1321.41L2200.79 1314.29C2208.04 1314.75 2215.45 1313.38 2222.43 1308.77C2230.07 1303.74 2238.34 1297.78 2239.9 1298.69C2251.61 1305.09 2261.1 1322.24 2267.91 1344.16C2271.81 1356.77 2274.81 1371.09 2276.73 1386.25C2277.34 1390.96 2277.87 1395.78 2278.27 1400.59C2278.35 1401.48 2278.41 1402.37 2278.48 1403.24C2279.4 1416.38 2280.9 1428.7 2282.56 1439.69C2284.8 1454.52 2287.35 1466.95 2289.15 1475.7C2290.05 1480.15 2290.74 1483.59 2291.15 1486.06C2291.51 1488.21 2287.2 1491.29 2285.28 1492.49Z" />
				<path id="&lt;Path&gt;" class="shp22" d="M2231.78 1278.44C2225.98 1289.53 2217.38 1296.72 2205.98 1300.01C2205.31 1295.35 2204.95 1291.69 2204.9 1289.04L2218.46 1277.93L2231.78 1278.44Z" />
				<path id="&lt;Path&gt;" class="shp7" d="M2198.6 1288.69C2221.39 1291.95 2233.71 1286.58 2235.56 1272.58C2238.35 1251.57 2244.63 1238.06 2222.93 1234.04C2201.22 1230.03 2195.91 1237.5 2193.25 1244.29C2190.59 1251.08 2189.79 1286.87 2198.6 1288.69Z" />
				<path id="&lt;Path&gt;" class="shp23" d="M2247.13 1231.05C2247.43 1230.69 2248.14 1230.39 2249.72 1230.27C2248.87 1229.76 2247.87 1229.5 2246.74 1229.5C2246.36 1227.3 2245.11 1223.41 2241.29 1222.54C2242.67 1223.24 2243.46 1224.37 2243.67 1225.93C2239.18 1221.5 2229.69 1218.39 2203.62 1220.97C2169.27 1224.37 2181.04 1246.18 2185.55 1248.71C2190.06 1251.25 2201.13 1243.83 2209.44 1244.32C2217.75 1244.82 2219.57 1256.78 2222.42 1258.37C2225.26 1259.96 2224.1 1257.07 2227.87 1255.27C2231.65 1253.48 2232.14 1259.78 2231.12 1263.91C2230.44 1266.66 2231.88 1269.8 2235.44 1273.34C2235.44 1273.34 2237.17 1271.41 2240.62 1267.54C2245.79 1261.74 2250.3 1237.51 2247.79 1232.42C2247.57 1231.97 2247.35 1231.51 2247.13 1231.05Z" />
				<path id="&lt;Path&gt;" class="shp8" d="M2236.27 1370.88C2217.06 1385.5 2197.27 1394.41 2176.91 1397.61C2176.32 1386.92 2176.08 1377.09 2176.32 1369.01L2236.27 1370.88Z" />
				<g id="&lt;Group&gt;">
					<path id="&lt;Path&gt;" class="shp7" d="M2059.3 1342.59C2058.85 1342.1 2052.97 1322.46 2042.81 1323.89C2036.18 1324.82 2025.35 1328.66 2028.22 1337.4C2028.98 1339.69 2036.09 1344.78 2049.56 1352.66L2059.3 1342.59Z" />
					<path id="&lt;Path&gt;" class="shp9" d="M2239.84 1328.52C2256.27 1338.35 2254.94 1362.83 2237.36 1370.43C2237 1370.59 2236.64 1370.74 2236.28 1370.88C2209.22 1381.74 2128.72 1382.94 2110.45 1380.94C2097.24 1379.49 2076.52 1370.66 2048.27 1354.43C2050.76 1345.34 2054.57 1340.08 2059.7 1338.65C2089.54 1347.11 2110.19 1351.66 2121.65 1352.32C2132.53 1352.94 2211.72 1310.65 2226.36 1320.17C2230.23 1322.69 2234.96 1325.6 2239.84 1328.52Z" />
				</g>
			</g>
			<g id="&lt;Group&gt;">
				<g id="&lt;Group&gt;">
					<path id="&lt;Path&gt;" class="shp6" d="M1846.19 1717.53L1663.05 1726.54L1663.05 1543.4L1846.19 1534.4L1846.19 1717.53Z" />
					<g id="&lt;Group&gt;">
						<path id="&lt;Path&gt;" class="shp5" d="M1676.81 1704.94L1730.9 1604.75L1770.68 1657.05L1790.54 1634.36L1832.63 1697.28L1676.81 1704.94Z" />
						<path id="&lt;Path&gt;" class="shp5" d="M1756.68 1589.49C1756.68 1581.75 1762.95 1575.18 1770.68 1574.8C1778.41 1574.42 1784.68 1580.38 1784.68 1588.11C1784.68 1595.84 1778.41 1602.42 1770.68 1602.8C1762.95 1603.18 1756.68 1597.22 1756.68 1589.49Z" />
					</g>
				</g>
				<g id="&lt;Group&gt;">
					<path id="&lt;Path&gt;" class="shp6" d="M2390.41 1017.27L2126.57 1030.23L2126.57 766.39L2390.41 753.43L2390.41 1017.27Z" />
					<g id="&lt;Group&gt;">
						<path id="&lt;Path&gt;" class="shp5" d="M2146.38 999.12L2224.32 854.79L2281.62 930.13L2310.23 897.45L2370.87 988.09L2146.38 999.12Z" />
						<path id="&lt;Path&gt;" class="shp5" d="M2261.45 832.79C2261.45 821.66 2270.48 812.18 2281.62 811.63C2292.76 811.09 2301.79 819.67 2301.79 830.81C2301.79 841.95 2292.76 851.42 2281.62 851.97C2270.48 852.52 2261.45 843.93 2261.45 832.79Z" />
					</g>
				</g>
				<g id="&lt;Group&gt;">
					<path id="&lt;Path&gt;" class="shp3" d="M1921.05 1216.33L1663.05 1229.01L1663.05 1213.98L1921.05 1201.3L1921.05 1216.33Z" />
					<path id="&lt;Path&gt;" class="shp6" d="M1801.37 1252.63L1663.05 1259.43L1663.05 1251.91L1801.37 1245.12L1801.37 1252.63Z" />
					<path id="&lt;Path&gt;" class="shp6" d="M1760.83 1279.62L1663.05 1284.43L1663.05 1276.91L1760.83 1272.11L1760.83 1279.62Z" />
					<path id="&lt;Path&gt;" class="shp6" d="M1877.58 1273.88L1779.81 1278.69L1779.81 1271.18L1877.58 1266.37L1877.58 1273.88Z" />
					<path id="&lt;Path&gt;" class="shp6" d="M2010.65 1267.35L1891.51 1273.2L1891.51 1265.69L2010.65 1259.83L2010.65 1267.35Z" />
					<path id="&lt;Path&gt;" class="shp6" d="M1747.93 1304.74L1663.05 1308.92L1663.05 1301.4L1747.93 1297.23L1747.93 1304.74Z" />
					<path id="&lt;Path&gt;" class="shp6" d="M1849.3 1299.76L1764.41 1303.93L1764.41 1296.42L1849.3 1292.25L1849.3 1299.76Z" />
					<path id="&lt;Path&gt;" class="shp6" d="M1964.82 1294.09L1861.39 1299.17L1861.39 1291.65L1964.82 1286.57L1964.82 1294.09Z" />
				</g>
				<g id="&lt;Group&gt;">
					<path id="&lt;Path&gt;" class="shp3" d="M1921.05 1046.75L1663.05 1059.43L1663.05 1044.4L1921.05 1031.72L1921.05 1046.75Z" />
					<path id="&lt;Path&gt;" class="shp6" d="M1801.37 1083.05L1663.05 1089.85L1663.05 1082.33L1801.37 1075.53L1801.37 1083.05Z" />
					<path id="&lt;Path&gt;" class="shp6" d="M1966.53 1074.93L1828.22 1081.73L1828.22 1074.21L1966.53 1067.42L1966.53 1074.93Z" />
					<path id="&lt;Path&gt;" class="shp6" d="M1760.83 1110.04L1663.05 1114.85L1663.05 1107.33L1760.83 1102.53L1760.83 1110.04Z" />
					<path id="&lt;Path&gt;" class="shp6" d="M1877.58 1104.3L1779.81 1109.11L1779.81 1101.59L1877.58 1096.79L1877.58 1104.3Z" />
					<path id="&lt;Path&gt;" class="shp6" d="M2010.65 1097.76L1891.51 1103.62L1891.51 1096.1L2010.65 1090.25L2010.65 1097.76Z" />
					<path id="&lt;Path&gt;" class="shp6" d="M1747.93 1135.16L1663.05 1139.33L1663.05 1131.82L1747.93 1127.65L1747.93 1135.16Z" />
					<path id="&lt;Path&gt;" class="shp6" d="M1849.3 1130.18L1764.41 1134.35L1764.41 1126.84L1849.3 1122.67L1849.3 1130.18Z" />
					<path id="&lt;Path&gt;" class="shp6" d="M1964.82 1124.5L1861.39 1129.59L1861.39 1122.07L1964.82 1116.99L1964.82 1124.5Z" />
				</g>
				<g id="&lt;Group&gt;">
					<path id="&lt;Path&gt;" class="shp3" d="M2306.57 1067.66L2125.08 1076.58L2125.08 1066.01L2306.57 1057.09L2306.57 1067.66Z" />
					<path id="&lt;Path&gt;" class="shp6" d="M2222.38 1093.2L2125.08 1097.98L2125.08 1092.69L2222.38 1087.91L2222.38 1093.2Z" />
					<path id="&lt;Path&gt;" class="shp6" d="M2338.57 1087.49L2241.27 1092.27L2241.27 1086.98L2338.57 1082.2L2338.57 1087.49Z" />
					<path id="&lt;Path&gt;" class="shp6" d="M2193.86 1112.18L2125.08 1115.57L2125.08 1110.28L2193.86 1106.9L2193.86 1112.18Z" />
					<path id="&lt;Path&gt;" class="shp6" d="M2276 1108.15L2207.22 1111.53L2207.22 1106.24L2276 1102.86L2276 1108.15Z" />
					<path id="&lt;Path&gt;" class="shp6" d="M2369.61 1103.55L2285.8 1107.67L2285.8 1102.38L2369.61 1098.26L2369.61 1103.55Z" />
					<path id="&lt;Path&gt;" class="shp6" d="M2184.8 1129.86L2125.08 1132.79L2125.08 1127.51L2184.8 1124.57L2184.8 1129.86Z" />
					<path id="&lt;Path&gt;" class="shp6" d="M2256.1 1126.35L2196.39 1129.29L2196.39 1124L2256.1 1121.07L2256.1 1126.35Z" />
					<path id="&lt;Path&gt;" class="shp6" d="M2337.37 1122.36L2264.61 1125.93L2264.61 1120.65L2337.37 1117.07L2337.37 1122.36Z" />
				</g>
				<g id="&lt;Group&gt;">
					<path id="&lt;Path&gt;" class="shp3" d="M1921.05 1393.23L1663.05 1405.91L1663.05 1390.88L1921.05 1378.2L1921.05 1393.23Z" />
					<path id="&lt;Path&gt;" class="shp6" d="M1801.37 1429.53L1663.05 1436.33L1663.05 1428.82L1801.37 1422.02L1801.37 1429.53Z" />
					<path id="&lt;Path&gt;" class="shp6" d="M1966.53 1421.41L1828.22 1428.21L1828.22 1420.7L1966.53 1413.9L1966.53 1421.41Z" />
					<path id="&lt;Path&gt;" class="shp6" d="M1760.83 1456.52L1663.05 1461.33L1663.05 1453.82L1760.83 1449.01L1760.83 1456.52Z" />
					<path id="&lt;Path&gt;" class="shp6" d="M1877.58 1450.79L1779.81 1455.59L1779.81 1448.08L1877.58 1443.27L1877.58 1450.79Z" />
					<path id="&lt;Path&gt;" class="shp6" d="M2010.65 1444.25L1891.51 1450.1L1891.51 1442.59L2010.65 1436.73L2010.65 1444.25Z" />
					<path id="&lt;Path&gt;" class="shp6" d="M1747.93 1481.65L1663.05 1485.82L1663.05 1478.3L1747.93 1474.13L1747.93 1481.65Z" />
					<path id="&lt;Path&gt;" class="shp6" d="M1849.3 1476.66L1764.41 1480.84L1764.41 1473.32L1849.3 1469.15L1849.3 1476.66Z" />
					<path id="&lt;Path&gt;" class="shp6" d="M1964.82 1470.99L1861.39 1476.07L1861.39 1468.56L1964.82 1463.47L1964.82 1470.99Z" />
				</g>
				<g id="&lt;Group&gt;">
					<path id="&lt;Path&gt;" class="shp3" d="M2092.7 1628.88L1893.42 1638.67L1893.42 1623.64L2092.7 1613.85L2092.7 1628.88Z" />
					<path id="&lt;Path&gt;" class="shp6" d="M2000.25 1663.84L1893.42 1669.09L1893.42 1661.58L2000.25 1656.33L2000.25 1663.84Z" />
					<path id="&lt;Path&gt;" class="shp6" d="M2127.83 1657.57L2021 1662.82L2021 1655.31L2127.83 1650.06L2127.83 1657.57Z" />
					<path id="&lt;Path&gt;" class="shp6" d="M1968.94 1690.38L1893.42 1694.09L1893.42 1686.58L1968.94 1682.87L1968.94 1690.38Z" />
					<path id="&lt;Path&gt;" class="shp6" d="M2059.13 1685.95L1983.6 1689.66L1983.6 1682.15L2059.13 1678.43L2059.13 1685.95Z" />
					<path id="&lt;Path&gt;" class="shp6" d="M2161.91 1680.9L2069.89 1685.42L2069.89 1677.9L2161.91 1673.38L2161.91 1680.9Z" />
					<path id="&lt;Path&gt;" class="shp6" d="M1958.98 1715.36L1893.42 1718.58L1893.42 1711.06L1958.98 1707.84L1958.98 1715.36Z" />
					<path id="&lt;Path&gt;" class="shp6" d="M2037.28 1711.51L1971.71 1714.73L1971.71 1707.22L2037.28 1704L2037.28 1711.51Z" />
					<path id="&lt;Path&gt;" class="shp6" d="M2126.51 1707.12L2046.62 1711.05L2046.62 1703.54L2126.51 1699.61L2126.51 1707.12Z" />
				</g>
			</g>
			<g id="&lt;Group&gt;">
				<g id="&lt;Group&gt;">
					<path id="&lt;Path&gt;" class="shp6" d="M1519.46 1107.47L1231.95 1097.03L1231.95 809.52L1519.46 819.96L1519.46 1107.47Z" />
					<g id="&lt;Group&gt;">
						<path id="&lt;Path&gt;" class="shp5" d="M1253.55 1064.97L1338.47 914.95L1400.92 1002.39L1432.1 969.44L1498.17 1073.85L1253.55 1064.97Z" />
						<path id="&lt;Path&gt;" class="shp5" d="M1378.94 894.44C1378.94 882.3 1388.78 872.82 1400.92 873.26C1413.05 873.7 1422.89 883.9 1422.89 896.04C1422.89 908.17 1413.05 917.66 1400.92 917.22C1388.78 916.77 1378.94 906.58 1378.94 894.44Z" />
					</g>
				</g>
				<g id="&lt;Group&gt;">
					<path id="&lt;Path&gt;" class="shp3" d="M1485.11 1220.85L1227.12 1211.48L1227.12 1196.45L1485.11 1205.82L1485.11 1220.85Z" />
					<path id="&lt;Path&gt;" class="shp6" d="M1365.43 1246.92L1227.12 1241.9L1227.12 1234.39L1365.43 1239.41L1365.43 1246.92Z" />
					<path id="&lt;Path&gt;" class="shp6" d="M1324.89 1270.45L1227.12 1266.9L1227.12 1259.39L1324.89 1262.94L1324.89 1270.45Z" />
					<path id="&lt;Path&gt;" class="shp6" d="M1441.65 1274.69L1343.87 1271.14L1343.87 1263.63L1441.65 1267.17L1441.65 1274.69Z" />
					<path id="&lt;Path&gt;" class="shp6" d="M1574.71 1279.52L1455.58 1275.19L1455.58 1267.68L1574.71 1272L1574.71 1279.52Z" />
					<path id="&lt;Path&gt;" class="shp6" d="M1312 1294.47L1227.12 1291.39L1227.12 1283.87L1312 1286.96L1312 1294.47Z" />
					<path id="&lt;Path&gt;" class="shp6" d="M1413.36 1298.15L1328.48 1295.07L1328.48 1287.55L1413.36 1290.63L1413.36 1298.15Z" />
					<path id="&lt;Path&gt;" class="shp6" d="M1528.89 1302.34L1425.46 1298.59L1425.46 1291.07L1528.89 1294.83L1528.89 1302.34Z" />
				</g>
				<g id="&lt;Group&gt;">
					<path id="&lt;Path&gt;" class="shp3" d="M1485.11 1397.75L1227.12 1388.38L1227.12 1373.35L1485.11 1382.72L1485.11 1397.75Z" />
					<path id="&lt;Path&gt;" class="shp6" d="M1365.43 1423.82L1227.12 1418.8L1227.12 1411.29L1365.43 1416.31L1365.43 1423.82Z" />
					<path id="&lt;Path&gt;" class="shp6" d="M1530.6 1429.82L1392.28 1424.8L1392.28 1417.28L1530.6 1422.3L1530.6 1429.82Z" />
					<path id="&lt;Path&gt;" class="shp6" d="M1324.89 1447.35L1227.12 1443.8L1227.12 1436.29L1324.89 1439.84L1324.89 1447.35Z" />
					<path id="&lt;Path&gt;" class="shp6" d="M1441.65 1451.59L1343.87 1448.04L1343.87 1440.53L1441.65 1444.08L1441.65 1451.59Z" />
					<path id="&lt;Path&gt;" class="shp6" d="M1574.71 1456.42L1455.58 1452.09L1455.58 1444.58L1574.71 1448.91L1574.71 1456.42Z" />
					<path id="&lt;Path&gt;" class="shp6" d="M1312 1471.37L1227.12 1468.29L1227.12 1460.77L1312 1463.86L1312 1471.37Z" />
					<path id="&lt;Path&gt;" class="shp6" d="M1413.36 1475.05L1328.48 1471.97L1328.48 1464.45L1413.36 1467.54L1413.36 1475.05Z" />
					<path id="&lt;Path&gt;" class="shp6" d="M1528.89 1479.24L1425.46 1475.49L1425.46 1467.97L1528.89 1471.73L1528.89 1479.24Z" />
				</g>
				<g id="&lt;Group&gt;">
					<path id="&lt;Path&gt;" class="shp3" d="M1118.53 781.68L860.53 772.31L860.53 757.29L1118.53 766.65L1118.53 781.68Z" />
					<path id="&lt;Path&gt;" class="shp6" d="M998.84 807.75L860.53 802.73L860.53 795.22L998.84 800.24L998.84 807.75Z" />
					<path id="&lt;Path&gt;" class="shp6" d="M1164.01 813.75L1025.7 808.73L1025.7 801.22L1164.01 806.24L1164.01 813.75Z" />
					<path id="&lt;Path&gt;" class="shp6" d="M958.3 831.28L860.53 827.73L860.53 820.22L958.3 823.77L958.3 831.28Z" />
					<path id="&lt;Path&gt;" class="shp6" d="M1075.06 835.52L977.29 831.97L977.29 824.46L1075.06 828.01L1075.06 835.52Z" />
					<path id="&lt;Path&gt;" class="shp6" d="M1208.13 840.35L1088.99 836.03L1088.99 828.51L1208.13 832.84L1208.13 840.35Z" />
					<path id="&lt;Path&gt;" class="shp6" d="M945.41 855.3L860.53 852.22L860.53 844.71L945.41 847.79L945.41 855.3Z" />
					<path id="&lt;Path&gt;" class="shp6" d="M1046.78 858.98L961.89 855.9L961.89 848.39L1046.78 851.47L1046.78 858.98Z" />
					<path id="&lt;Path&gt;" class="shp6" d="M1162.3 863.18L1058.87 859.42L1058.87 851.91L1162.3 855.66L1162.3 863.18Z" />
				</g>
			</g>
			<g id="&lt;Group&gt;">
				<path id="&lt;Compound Path&gt;" fill-rule="evenodd" class="shp24" d="M985.6 477.62L1008.24 472.24L1082.77 573.27L1057.1 579.37L1040.95 556.77L993.76 567.98L989.5 595.43L964.47 601.38L985.6 477.62ZM1027.03 537.16L1003.61 504.5L997.38 544.21L1027.03 537.16Z" />
			</g>
			<g id="&lt;Group&gt;">
				<path id="&lt;Compound Path&gt;" class="shp24" d="M1112.57 411.48C1115.8 379.03 1142.9 354.88 1177.96 358.36C1199.48 360.5 1210.74 369.85 1220.3 381.34L1203.58 397.13C1195.57 388.27 1188.54 382.79 1175.49 381.5C1156.25 379.59 1140.8 394.19 1138.83 414.08C1136.88 433.65 1148.8 451.3 1168.37 453.25C1181.41 454.54 1189.92 450.12 1199.7 442.86L1213.98 461.56C1200.99 472.95 1187.27 478.51 1165.25 476.32C1131.66 472.98 1109.29 444.58 1112.57 411.48Z" />
			</g>
			<g id="&lt;Group&gt;">
				<path id="&lt;Compound Path&gt;" fill-rule="evenodd" class="shp24" d="M1458.34 380.5L1510.91 372.01C1523.86 369.93 1534.62 371.84 1542.14 377.27C1548.15 381.61 1551.76 387.5 1553.07 395.59C1555.13 408.37 1549.48 416.58 1542.13 422.42C1556.04 425.32 1565.36 431.61 1567.86 447.14C1571.21 467.85 1556.05 480.92 1530.49 485.05L1476.62 493.75L1458.34 380.5ZM1512.97 418.66C1523.97 416.88 1530.35 412.2 1528.94 403.46C1527.74 396.02 1521.24 392.76 1510.72 394.46L1486.13 398.43L1490 422.37L1512.97 418.66ZM1526.97 463.21C1537.97 461.43 1543.97 456.48 1542.56 447.74C1541.34 440.14 1534.92 436.36 1522.14 438.43L1493.34 443.08L1497.36 467.99L1526.97 463.21Z" />
			</g>
			<g id="&lt;Group&gt;">
				<path id="&lt;Compound Path&gt;" class="shp24" d="M1261.06 569.72C1263.83 537.23 1291.4 512.77 1326.01 515.71C1346.59 517.46 1358.52 524.06 1369.58 535.2L1352.12 552.96C1343.93 544.86 1336.45 539.95 1323.22 538.83C1304.94 537.27 1289.03 552.2 1287.35 571.96C1285.57 592.86 1298.64 609.43 1318.88 611.15C1328.03 611.93 1336.39 610.33 1343.14 606.3L1344.53 589.98L1319.22 587.82L1321.07 566.11L1370.71 570.33L1366.49 619.96C1353.88 628.92 1337.02 635.71 1316.12 633.94C1280.53 630.91 1258.16 603.85 1261.06 569.72Z" />
			</g>
			<g id="&lt;Group&gt;">
				<path id="&lt;Compound Path&gt;" fill-rule="evenodd" class="shp24" d="M2654.62 692.44C2643.87 696.53 2631.74 697.65 2619.23 695.01C2584.6 687.68 2565.21 656.61 2572.03 624.39C2578.78 592.48 2609.48 571.68 2644.11 579C2678.74 586.33 2698.13 617.4 2691.31 649.62C2688.84 661.33 2682.93 671.8 2674.55 679.74L2684.03 691.97L2664.62 706.12L2654.62 692.44ZM2639.76 672.38L2624.78 652.97L2644.22 638.66L2659.13 659.23C2662.2 655.02 2664.24 650.09 2665.5 644.16C2669.57 624.92 2658.85 605.91 2638.97 601.7C2619.09 597.5 2601.98 610.29 2597.84 629.85C2593.77 649.09 2604.49 668.1 2624.37 672.31C2629.82 673.46 2635.03 673.39 2639.76 672.38Z" />
			</g>
			<g id="&lt;Group&gt;">
				<path id="&lt;Compound Path&gt;" class="shp24" d="M2396.44 450.15L2419.5 447.03L2482.25 509.8L2472.77 439.81L2497.45 436.47L2512.85 550.14L2491.58 553.02L2426.74 488.22L2436.53 560.48L2411.85 563.82L2396.44 450.15Z" />
			</g>
			<g id="&lt;Group&gt;">
				<path id="&lt;Compound Path&gt;" class="shp24" d="M1648.38 510.42L1675.27 513.22L1690.88 592.93L1724.53 518L1746.04 520.24L1763.57 600.48L1795.24 525.68L1821.48 528.41L1770.58 639.27L1748.74 637L1730.74 559.67L1697.23 631.65L1675.39 629.38L1648.38 510.42Z" />
			</g>
			<g id="&lt;Group&gt;">
				<path id="&lt;Path&gt;" class="shp16" d="M469.59 1779.96C469.59 1781.34 469.67 1782.71 469.84 1784.05C470.36 1788.34 471.69 1792.38 473.66 1796.01C475.2 1798.85 477.15 1801.43 479.41 1803.69C485.49 1809.76 493.87 1813.51 503.14 1813.51L975.02 1813.51C993.55 1813.51 1008.58 1798.49 1008.58 1779.96C1008.58 1770.69 1004.83 1762.3 998.75 1756.23C992.68 1750.15 984.29 1746.4 975.02 1746.4L503.14 1746.4C484.61 1746.4 469.59 1761.42 469.59 1779.96Z" />
				<path id="&lt;Path&gt;" class="shp16" d="M505.58 1740.33L667.37 1740.33C670.2 1740.33 672.52 1738.01 672.52 1735.18C672.52 1732.35 670.2 1730.03 667.37 1730.03L505.58 1730.03C502.75 1730.03 500.43 1732.35 500.43 1735.18C500.43 1738.01 502.75 1740.33 505.58 1740.33Z" />
				<path id="&lt;Path&gt;" class="shp25" d="M514.52 1746.4L532.05 1746.4L532.05 1740.33L514.52 1740.33L514.52 1746.4Z" />
				<path id="&lt;Path&gt;" class="shp25" d="M473.66 1796.01C475.2 1798.85 477.15 1801.43 479.41 1803.69C485.49 1809.76 493.87 1813.51 503.14 1813.51L603.09 1813.51L603.09 1796.01L473.66 1796.01Z" />
				<path id="&lt;Path&gt;" class="shp3" d="M1071.04 1770.13L1071.04 1789.79C1071.04 1791.94 1070.75 1794.03 1070.21 1796.01C1067.49 1806.1 1058.27 1813.51 1047.32 1813.51L555.78 1813.51C544.83 1813.51 535.61 1806.1 532.88 1796.01C532.35 1794.03 532.06 1791.94 532.06 1789.79L532.06 1770.13C532.06 1757.02 542.67 1746.4 555.78 1746.4L1047.32 1746.4C1060.43 1746.4 1071.04 1757.02 1071.04 1770.13Z" />
				<path id="&lt;Path&gt;" class="shp26" d="M1070.21 1796.01C1067.49 1806.1 1058.27 1813.51 1047.32 1813.51L555.78 1813.51C544.83 1813.51 535.61 1806.1 532.88 1796.01L1070.21 1796.01Z" />
				<g id="&lt;Group&gt;">
					<path id="&lt;Path&gt;" class="shp1" d="M1022.22 1780.08C1022.22 1790.5 1026.01 1799.82 1031.98 1805.99C1032.12 1806.13 1032.25 1806.26 1032.38 1806.4C1037 1811 1042.85 1813.75 1049.22 1813.75C1059.17 1813.75 1083.84 1798.74 1099.12 1788.77C1104.2 1785.45 1108.5 1782.56 1112.03 1780.08C1108.5 1777.6 1104.2 1774.71 1099.12 1771.39C1083.84 1761.41 1059.17 1746.4 1049.22 1746.4C1046.34 1746.4 1043.57 1746.96 1040.96 1748C1036.57 1749.76 1032.66 1752.89 1029.58 1756.98C1026.18 1761.47 1023.77 1767.12 1022.75 1773.4C1022.74 1773.47 1022.72 1773.55 1022.72 1773.62C1022.39 1775.7 1022.22 1777.86 1022.22 1780.08Z" />
					<path id="&lt;Path&gt;" class="shp27" d="M1022.22 1780.08C1022.22 1790.5 1026.01 1799.82 1031.98 1805.99L1107.64 1779.96L1022.72 1773.62C1022.39 1775.7 1022.22 1777.86 1022.22 1780.08Z" />
					<path id="&lt;Path&gt;" class="shp28" d="M1029.58 1756.98L1105.06 1777.59L1040.96 1748C1036.57 1749.76 1032.66 1752.89 1029.58 1756.98Z" />
					<path id="&lt;Path&gt;" class="shp3" d="M1094.2 1780.08C1094.2 1784.09 1096.25 1787.5 1099.12 1788.77C1104.2 1785.45 1108.5 1782.56 1112.03 1780.08C1108.5 1777.6 1104.2 1774.71 1099.12 1771.39C1096.25 1772.65 1094.2 1776.06 1094.2 1780.08Z" />
				</g>
			</g>
			<g id="&lt;Group&gt;">
				<g id="&lt;Group&gt;">
					<path id="&lt;Path&gt;" class="shp8" d="M875 1815.73C878.38 1815.75 881.92 1813.28 882.92 1810.23L1086.29 1185.41C1087.29 1182.35 1085.36 1179.85 1081.98 1179.84C1078.61 1179.81 1075.06 1182.28 1074.07 1185.34L870.69 1810.16C869.7 1813.21 871.63 1815.71 875 1815.73Z" />
					<path id="&lt;Path&gt;" class="shp8" d="M711.09 1814.77C714.47 1814.79 718.01 1812.33 719.01 1809.27L922.38 1184.45C923.38 1181.39 921.45 1178.9 918.07 1178.88C914.7 1178.86 911.15 1181.32 910.16 1184.38L706.78 1809.2C705.79 1812.25 707.72 1814.75 711.09 1814.77Z" />
					<path id="&lt;Path&gt;" class="shp8" d="M887.58 1271.51L1052.17 1272.47C1055.34 1272.49 1058.71 1270.16 1059.64 1267.28C1060.58 1264.41 1058.75 1262.04 1055.57 1262.02L890.98 1261.06C887.81 1261.04 884.44 1263.38 883.51 1266.25C882.57 1269.13 884.4 1271.49 887.58 1271.51Z" />
					<path id="&lt;Path&gt;" class="shp8" d="M852.07 1380.6L1016.66 1381.56C1019.84 1381.58 1023.2 1379.25 1024.13 1376.37C1025.07 1373.5 1023.24 1371.13 1020.06 1371.11L855.47 1370.15C852.3 1370.13 848.94 1372.47 848 1375.34C847.06 1378.22 848.9 1380.59 852.07 1380.6Z" />
					<path id="&lt;Path&gt;" class="shp8" d="M817.87 1485.67L982.46 1486.63C985.64 1486.65 989 1484.31 989.93 1481.44C990.87 1478.57 989.04 1476.2 985.87 1476.18L821.27 1475.22C818.1 1475.2 814.74 1477.54 813.8 1480.41C812.87 1483.29 814.7 1485.65 817.87 1485.67Z" />
					<path id="&lt;Path&gt;" class="shp8" d="M779.37 1603.96L943.96 1604.92C947.14 1604.94 950.5 1602.6 951.43 1599.72C952.37 1596.85 950.54 1594.48 947.36 1594.46L782.77 1593.5C779.6 1593.49 776.24 1595.82 775.3 1598.7C774.37 1601.57 776.2 1603.94 779.37 1603.96Z" />
					<path id="&lt;Path&gt;" class="shp8" d="M739.07 1727.76L903.66 1728.72C906.84 1728.74 910.2 1726.4 911.14 1723.53C912.07 1720.65 910.24 1718.29 907.07 1718.27L742.47 1717.31C739.3 1717.29 735.94 1719.63 735 1722.5C734.07 1725.37 735.9 1727.74 739.07 1727.76Z" />
				</g>
				<g id="&lt;Group&gt;">
					<path id="&lt;Path&gt;" class="shp7" d="M1043.49 1043.93C1044.78 1041.01 1045.85 1038.86 1046.69 1037.48C1047.95 1035.41 1053.34 1029.33 1054.26 1030.71C1055.17 1032.08 1058.84 1041.34 1056.89 1043.93C1054.94 1046.52 1057.02 1051.03 1047.33 1053.76L1043.49 1043.93Z" />
					<path id="&lt;Path&gt;" class="shp21" d="M935.84 1016.29C968.9 1043.89 991.87 1056.41 1004.76 1053.85C1014.84 1051.85 1027.61 1048.2 1043.09 1042.9L1047.73 1054.77C1033.85 1073.59 1019.68 1083.06 1005.22 1083.18C982.61 1083.37 962.95 1078.48 946.25 1068.5L935.84 1016.29Z" />
					<path id="&lt;Path&gt;" class="shp29" d="M848.87 1452.9C849.83 1468.38 851.81 1476.23 854.8 1476.45C855.2 1476.48 862.8 1476.5 877.59 1476.5L905.91 1476.33C905.79 1471.78 902.97 1469.03 897.45 1468.07C889.17 1466.62 875.31 1460.8 870.29 1449.86C866.78 1442.19 859.64 1443.2 848.87 1452.9Z" />
					<path id="&lt;Path&gt;" class="shp9" d="M847.24 1454.51C852.98 1456.43 858.09 1457.39 862.57 1457.39C867.57 1457.39 872.34 1456.71 876.88 1455.35C877.97 1444.9 881.48 1428.16 887.43 1405.13C892.1 1387.02 898.78 1363.75 908.29 1334.82C934.56 1254.87 942.55 1208.11 943.28 1203.68C943.3 1203.52 943.32 1203.41 943.33 1203.33L943.25 1203.29L862.47 1167.82C869.13 1241.28 868.21 1292.1 859.72 1320.3C857.93 1326.21 856.41 1333.1 855.1 1340.56C849.73 1371.18 847.11 1409.17 847.24 1454.51Z" />
					<path id="&lt;Path&gt;" class="shp8" d="M887.43 1405.13C892.1 1387.02 898.78 1363.75 908.29 1334.82C934.56 1254.87 942.55 1208.11 943.28 1203.68C943.27 1203.54 943.26 1203.42 943.25 1203.29L862.47 1167.82C869.13 1241.28 868.21 1292.1 859.72 1320.3C858.53 1324.24 867.76 1352.52 887.43 1405.13Z" />
					<path id="&lt;Path&gt;" class="shp29" d="M911.96 1452.9C912.92 1468.38 914.9 1476.23 917.89 1476.45C918.29 1476.48 925.89 1476.5 940.68 1476.5L969 1476.33C968.88 1471.78 966.06 1469.03 960.54 1468.07C952.26 1466.62 938.4 1460.8 933.38 1449.86C929.87 1442.19 922.72 1443.2 911.96 1452.9Z" />
					<path id="&lt;Path&gt;" class="shp9" d="M957.76 1170.42C958.45 1218.02 954.69 1271.04 946.45 1329.48C938.22 1387.93 935.49 1429.55 938.29 1454.36C932.63 1456.2 928.66 1457.21 926.37 1457.39C920.55 1457.87 914.66 1457.18 908.7 1455.35C896.91 1396.88 892.71 1353.02 896.09 1323.77C899.47 1294.52 891.4 1244.33 871.87 1173.2L957.76 1170.42Z" />
					<path id="&lt;Path&gt;" class="shp7" d="M900.48 1003.34L916.25 1013.68L930.61 1009.61C933.23 1005.87 933.93 998.65 933.97 992.39C933.99 988.26 933.81 984.43 933.4 980.93L912.13 971.54L904.19 968.04C904.22 968.16 904.81 974.56 904.9 975.49C905.88 986.54 904.41 995.83 900.48 1003.34Z" />
					<path id="&lt;Path&gt;" class="shp3" d="M958.12 1190.27C938.49 1209.22 864.22 1206.03 859.64 1185.15C855.07 1164.28 864.63 1007.43 898.16 997.58C902.79 996.22 917.51 999.54 942.3 1007.56C946.2 1017.73 949.42 1029.3 951.97 1042.26C952.71 1046.04 954.88 1086.12 956.5 1123.62C957.26 1141.16 957.9 1158.13 958.23 1170.56C958.52 1182.21 958.54 1189.85 958.12 1190.27Z" />
					<path id="&lt;Path&gt;" class="shp30" d="M906.49 975.79C910.8 983.08 925.95 989.47 933.97 992.39C933.99 988.26 933.81 984.43 933.4 980.93L912.13 971.54C907.43 971.48 904.56 972.53 906.49 975.79Z" />
					<path id="&lt;Path&gt;" class="shp7" d="M941.43 979.63C918.58 986.76 905.04 983.18 900.82 968.88C894.49 947.43 885.81 934.37 907.42 926.63C929.04 918.9 935.73 925.82 939.58 932.47C943.43 939.11 950.18 976.3 941.43 979.63Z" />
					<path id="&lt;Path&gt;" class="shp31" d="M938.23 930.4C936.78 947.04 934.33 955 930.89 954.27C925.72 953.19 920.04 950.87 920.8 958.4C921.55 965.92 915.78 978.82 908.34 978.79C892.37 978.72 875.03 937.76 879.4 929.99C892.01 907.58 956.46 903.06 938.23 930.4Z" />
					<path id="&lt;Path&gt;" class="shp21" d="M933.19 998.12C932.75 997.94 907.67 986.69 904.74 987.66C902.79 988.3 900.59 991.61 898.16 997.58L942.31 1007.56C939.99 1002.85 936.95 999.7 933.19 998.12Z" />
					<g id="&lt;Group&gt;">
						<path id="&lt;Path&gt;" class="shp32" d="M1089.29 1119.59L948.74 1251.92C945.98 1254.52 942.51 1255.34 941.02 1253.76L936.27 1248.72C934.78 1247.14 935.82 1243.72 938.57 1241.13L1079.13 1108.79C1081.88 1106.2 1085.35 1105.37 1086.85 1106.96L1091.59 1111.99C1093.08 1113.58 1092.05 1117 1089.29 1119.59Z" />
						<path id="&lt;Path&gt;" class="shp16" d="M1010.42 1193.85L948.74 1251.92C945.98 1254.52 942.51 1255.34 941.02 1253.76L936.27 1248.72C934.78 1247.14 935.82 1243.72 938.57 1241.13L1000.25 1183.05L1010.42 1193.85Z" />
						<path id="&lt;Compound Path&gt;" fill-rule="evenodd" class="shp32" d="M1082.14 961.99C1123.83 917.67 1193.55 915.56 1237.85 957.25C1238.44 957.79 1239.02 958.35 1239.58 958.91C1282.22 1000.77 1283.75 1069.23 1242.61 1112.97C1200.92 1157.27 1131.2 1159.4 1086.88 1117.71C1072.38 1104.06 1062.38 1087.41 1056.99 1069.63C1045.88 1033.09 1054.1 991.79 1082.14 961.99ZM1092.84 1111.38C1118.63 1135.65 1153.77 1143.8 1185.84 1136.21C1204.51 1131.78 1222.13 1122.03 1236.27 1107C1274.67 1066.19 1272.72 1001.98 1231.9 963.58C1216.88 949.44 1198.68 940.78 1179.77 937.5C1147.3 931.88 1112.74 942.16 1088.47 967.95C1050.07 1008.77 1052.03 1072.98 1092.84 1111.38Z" />
						<g id="&lt;Group&gt;" style="opacity: 0.502">
							<path id="&lt;Path&gt;" class="shp33" d="M1236.27 1107C1222.14 1122.03 1204.51 1131.78 1185.83 1136.21C1153.77 1143.8 1118.63 1135.65 1092.84 1111.38C1052.03 1072.98 1050.07 1008.77 1088.47 967.95C1112.73 942.16 1147.3 931.88 1179.76 937.51C1198.68 940.78 1216.88 949.44 1231.9 963.58C1272.71 1001.98 1274.67 1066.19 1236.27 1107Z" />
						</g>
					</g>
					<path id="&lt;Path&gt;" class="shp21" d="M958.23 1170.56C906.6 1133.77 882.93 1090.83 887.22 1041.74C915.53 1057.7 943.61 1093 956.5 1123.62C957.26 1141.16 957.9 1158.13 958.23 1170.56Z" />
					<g id="&lt;Group&gt;">
						<path id="&lt;Path&gt;" class="shp3" d="M1034.66 1145.43C1040.13 1144.17 1043.79 1140.04 1044.56 1139.32C1046.11 1139.43 1045.98 1141.14 1044.17 1144.45C1043.95 1144.87 1043.44 1145.93 1043.06 1146.69C1042.91 1147 1043.12 1147.35 1043.47 1147.38C1046.62 1147.62 1049.79 1146.37 1055.86 1147.64C1056.7 1147.81 1056.94 1149.82 1056.91 1150.68C1056.85 1152.12 1056.96 1153.75 1055.28 1155.96C1054.3 1157.26 1051.57 1158.64 1045.49 1161.09C1043.18 1162.02 1036.55 1161.32 1030.35 1159.19L1025.39 1156.89L1026.93 1147.68L1028.17 1147.94C1030.15 1148.35 1032.6 1145.94 1034.66 1145.43Z" />
						<path id="&lt;Path&gt;" class="shp3" d="M911.25 1007.56C864.86 1016.4 871.69 1054.4 931.73 1121.58C941.33 1132.33 972.07 1144.69 1023.95 1158.68C1029.21 1154.21 1030.52 1150.16 1027.87 1146.53C992.14 1120.59 970.35 1105.56 962.5 1101.44C957.19 1098.65 941.91 1039.34 933.27 1025.05C927.5 1015.52 920.17 1009.7 911.25 1007.56Z" />
					</g>
					<path id="&lt;Path&gt;" class="shp7" d="M1045.37 1045.15C1046.89 1042.25 1047.8 1040.04 1048.09 1038.51C1048.54 1036.21 1051.4 1029.52 1052.59 1028.34C1053.06 1027.87 1054.62 1028.48 1054.8 1030.51C1054.88 1031.39 1054.45 1033 1053.68 1034.91C1052.44 1038.02 1052.64 1042.25 1052.21 1043.65C1051.49 1045.99 1049.21 1046.49 1045.37 1045.15Z" />
				</g>
			</g>
		</g>
	</g>
</svg>