<svg version="1.2" baseProfile="tiny-ps" xmlns="http://www.w3.org/2000/svg" viewBox="0 0 2800 2000" width="2800" height="2000">
	<title>5870-ai</title>
	<style>
		tspan { white-space:pre }
		.shp0 { fill: #f7cc7f } 
		.shp1 { fill: #f47458 } 
		.shp2 { fill: #b75742 } 
		.shp3 { fill: #13375b } 
		.shp4 { fill: #466eb6 } 
		.shp5 { fill: #355389 } 
		.shp6 { fill: #efefef } 
		.shp7 { fill: #f48c7f } 
		.shp8 { fill: #184655 } 
		.shp9 { fill: #3c8f7c } 
		.shp10 { fill: #96d9c9 } 
		.shp11 { fill: #f7a491 } 
		.shp12 { fill: #fae0b2 } 
		.shp13 { fill: #ffd09f } 
		.shp14 { fill: #ffb769 } 
		.shp15 { fill: #ff7700 } 
		.shp16 { fill: #ffffff } 
		.shp17 { fill: #f8a492 } 
		.shp18 { fill: #86b1f2 } 
		.shp19 { fill: #50bfa5 } 
		.shp20 { fill: #9bc1f9 } 
		.shp21 { fill: #07345a } 
	</style>
	<g id="Layer 1">
		<g id="&lt;Group&gt;">
			<g id="&lt;Group&gt;">
				<path id="&lt;Path&gt;" class="shp0" d="M638.22 910.39C639.59 910.98 641.02 911.33 642.5 911.54C642 908.28 642.53 904.3 645.6 900.02C644.37 898.43 643.13 896.83 641.9 895.23C639.3 898.65 636.27 904.3 638.22 910.39Z" />
				<path id="&lt;Path&gt;" class="shp0" d="M666.35 915.73C661.47 909.14 656.24 902.24 651.05 895.38C650.68 895.55 650.45 895.67 650.5 895.64C648.51 896.85 648.31 897.09 648.32 897.08C647.04 898.11 646.26 899.13 646.27 899.12C646.03 899.42 645.82 899.72 645.6 900.02C651.33 907.41 657.05 914.68 662.24 921.37C663.92 919.72 665.31 917.79 666.35 915.73Z" />
				<path id="&lt;Path&gt;" class="shp0" d="M683.17 950.97C683.14 950.91 686.44 957.93 682.87 961.98C680.23 965.15 677.85 964.64 675.72 960.46C675.73 960.47 675.41 960.04 675.4 960.03C674.7 959.09 673.39 958.86 672.37 959.53C671.31 960.23 671.18 961.54 671.64 962.71C671.89 963.35 672.41 964.34 673.74 965.44C681.54 971.83 691.03 963.7 689.92 954.41C689.27 948.64 681.54 936.66 671.3 922.49C669.96 924.21 668.48 925.86 666.87 927.36C675.4 938.46 681.79 947.22 683.17 950.97Z" />
				<path id="&lt;Path&gt;" class="shp0" d="M662.24 921.37C663.84 923.42 665.39 925.42 666.87 927.36C668.48 925.86 669.96 924.21 671.3 922.49C669.7 920.29 668.05 918.03 666.35 915.73C665.31 917.79 663.92 919.72 662.24 921.37Z" />
				<path id="&lt;Path&gt;" class="shp0" d="M641.9 895.23C643.49 893.12 644.92 891.86 644.91 891.87C645.64 891.24 646.38 890.69 647.13 890.19C642.67 884.27 638.31 878.45 634.34 872.97C633.33 876.16 632.5 879.16 631.83 881.98C635.08 886.33 638.47 890.78 641.9 895.23Z" />
				<path id="&lt;Path&gt;" class="shp0" d="M625.19 872.92C627.31 875.87 629.53 878.89 631.83 881.98C632.5 879.16 633.33 876.16 634.34 872.97C632.07 869.84 629.92 866.82 627.95 863.95C627.12 866.96 626.17 869.94 625.19 872.92Z" />
				<path id="&lt;Path&gt;" class="shp0" d="M639.73 924.08C636.7 922.52 624.24 913.79 631.83 881.98C629.53 878.89 627.31 875.87 625.19 872.92C624.04 876.44 622.86 879.94 621.82 883.47C619.31 892 617.18 901.11 618.42 909.86C620.03 921.26 628.31 929.58 638.56 933.56C643.89 935.63 649.96 936.21 655.63 934.3C659.8 932.9 663.6 930.42 666.87 927.36C665.39 925.42 663.84 923.42 662.24 921.37C657.02 926.46 648.98 928.84 639.73 924.08Z" />
				<path id="&lt;Path&gt;" class="shp0" d="M627.81 831.72C620.72 827.99 605.7 827.65 606.95 840.78C607.52 846.72 615.05 858.81 625.19 872.92C626.17 869.94 627.12 866.96 627.95 863.95C617.85 849.27 612.32 838.63 618.04 837.94C621.44 837.53 625.69 839.25 628.28 843.29C631.06 847.61 630.36 853.43 629.33 858.39C628.93 860.26 628.46 862.11 627.95 863.95C629.92 866.82 632.07 869.84 634.34 872.97C634.78 871.6 635.24 870.19 635.74 868.74C638.89 859.65 639.39 848.55 637.1 842.54C637.11 842.55 634.73 835.36 627.81 831.72Z" />
				<path id="&lt;Path&gt;" class="shp0" d="M653.19 894.58C652.8 894.68 655.93 893.68 658.79 894.16C657.62 894 664.84 893.95 667.73 902.19C669.19 906.37 668.55 911.35 666.35 915.73C668.05 918.03 669.7 920.29 671.3 922.49C671.51 922.21 671.72 921.93 671.93 921.65C687.19 900.97 664.55 878.69 647.13 890.19C648.43 891.91 649.74 893.64 651.05 895.38C651.64 895.11 652.56 894.71 653.19 894.58Z" />
				<path id="&lt;Path&gt;" class="shp0" d="M641.9 895.23C643.13 896.83 644.37 898.43 645.6 900.02C645.82 899.72 646.03 899.42 646.27 899.12C646.26 899.13 647.04 898.11 648.32 897.08C648.31 897.09 648.51 896.85 650.5 895.64C650.45 895.67 650.68 895.55 651.05 895.38C649.74 893.64 648.43 891.91 647.13 890.19C646.38 890.69 645.64 891.24 644.91 891.87C644.92 891.86 643.49 893.12 641.9 895.23Z" />
				<path id="&lt;Path&gt;" class="shp0" d="M649.2 906.31C652.31 909.64 652.91 914.14 650.54 916.36C648.17 918.58 643.72 917.67 640.61 914.34C637.5 911.01 636.9 906.51 639.27 904.3C641.64 902.08 646.09 902.98 649.2 906.31Z" />
				<path id="&lt;Path&gt;" class="shp0" d="M681.14 956.31C684.25 959.64 684.85 964.14 682.48 966.36C680.1 968.57 675.66 967.67 672.54 964.34C669.43 961.01 668.83 956.51 671.21 954.29C673.58 952.08 678.02 952.98 681.14 956.31Z" />
			</g>
			<path id="&lt;Path&gt;" class="shp1" d="M1620.12 1366.13L1485.45 1366.13L1485.45 1100.89L1620.12 1100.89L1620.12 1366.13Z" />
			<path id="&lt;Path&gt;" class="shp2" d="M1620.12 1238.16C1618.92 1238.13 1617.72 1238.11 1616.52 1238.11L1485.45 1238.11L1485.45 1366.13L1620.12 1366.13L1620.12 1238.16Z" />
			<path id="&lt;Path&gt;" class="shp1" d="M1318.91 1563.72L1318.91 1405.13C1318.91 1329.04 1380.59 1267.36 1456.68 1267.36L1622.14 1267.36C1698.23 1267.36 1759.91 1329.04 1759.91 1405.13L1759.91 1563.72C1759.91 1639.8 1698.23 1701.49 1622.14 1701.49L1456.68 1701.49C1380.59 1701.49 1318.91 1639.8 1318.91 1563.72Z" />
			<path id="&lt;Path&gt;" class="shp2" d="M1374.21 1550.48L1374.21 1425.24C1374.21 1367.42 1421.09 1320.54 1478.91 1320.54L1599.91 1320.54C1657.73 1320.54 1704.6 1367.42 1704.6 1425.24L1704.6 1550.48C1704.6 1608.3 1657.73 1655.17 1599.91 1655.17L1478.91 1655.17C1421.09 1655.17 1374.21 1608.3 1374.21 1550.48Z" />
			<g id="&lt;Group&gt;">
				<path id="&lt;Path&gt;" class="shp1" d="M1487.75 1412.71C1481.88 1412.71 1477.13 1417.46 1477.13 1423.33C1477.13 1429.19 1481.88 1433.94 1487.75 1433.94C1493.61 1433.94 1498.36 1429.19 1498.36 1423.33C1498.36 1417.46 1493.61 1412.71 1487.75 1412.71Z" />
				<path id="&lt;Path&gt;" class="shp1" d="M1535.04 1412.71C1529.18 1412.71 1524.43 1417.46 1524.43 1423.33C1524.43 1429.19 1529.18 1433.94 1535.04 1433.94C1540.9 1433.94 1545.65 1429.19 1545.65 1423.33C1545.65 1417.46 1540.9 1412.71 1535.04 1412.71Z" />
				<path id="&lt;Path&gt;" class="shp1" d="M1582.33 1412.71C1576.47 1412.71 1571.72 1417.46 1571.72 1423.33C1571.72 1429.19 1576.47 1433.94 1582.33 1433.94C1588.2 1433.94 1592.95 1429.19 1592.95 1423.33C1592.95 1417.46 1588.2 1412.71 1582.33 1412.71Z" />
			</g>
			<g id="&lt;Group&gt;">
				<path id="&lt;Path&gt;" class="shp3" d="M940.95 1701.49C940.95 1704.26 943.62 1706.5 946.91 1706.5L2432.58 1706.5C2435.87 1706.5 2438.54 1704.26 2438.54 1701.49C2438.54 1698.72 2435.87 1696.47 2432.58 1696.47L946.91 1696.47C943.62 1696.47 940.95 1698.72 940.95 1701.49Z" />
			</g>
			<g id="&lt;Group&gt;">
				<g id="&lt;Group&gt;">
					<g id="&lt;Group&gt;">
						<path id="&lt;Path&gt;" class="shp4" d="M1319.16 1697.46C1411.34 1700.61 1467.53 1697.39 1487.75 1687.81C1507.96 1678.23 1508.26 1667.11 1488.66 1654.45C1532.46 1644.07 1555.8 1632.04 1558.68 1618.37C1561.56 1604.7 1552.49 1598.94 1531.47 1601.09C1573.43 1571.76 1591.4 1552.6 1585.38 1543.59C1574.18 1526.82 1544.86 1533.21 1497.42 1562.75C1513.21 1547.04 1515.54 1536.27 1504.41 1530.43C1487.62 1521.64 1467.04 1538.4 1442.66 1580.71C1443.88 1570.47 1438.03 1565.03 1425.12 1564.4C1401.96 1563.27 1366.64 1607.63 1319.16 1697.46Z" />
					</g>
					<path id="&lt;Path&gt;" class="shp5" d="M1423.91 1553.34C1436.82 1553.96 1443.07 1563.09 1442.66 1580.71C1467.21 1530.72 1487.88 1510.12 1504.67 1518.92C1515.8 1524.75 1515.32 1538.19 1503.24 1559.24C1546.79 1532.04 1574.18 1526.82 1585.38 1543.59L1330.72 1687.81C1338.95 1672.03 1391.46 1551.75 1423.91 1553.34Z" />
				</g>
				<g id="&lt;Group&gt;">
					<g id="&lt;Group&gt;">
						<path id="&lt;Path&gt;" class="shp4" d="M1313.99 1697.49C1393.3 1642.31 1438.66 1602.58 1450.07 1578.32C1461.48 1554.06 1456.26 1542.94 1434.41 1544.97C1467.03 1502 1479.48 1473.1 1471.73 1458.26C1463.99 1443.42 1451.21 1444.99 1433.39 1462.98C1449.89 1403.89 1451.93 1372.48 1439.51 1368.72C1416.37 1361.73 1393.48 1395.65 1370.84 1470.47C1362.2 1429.08 1350.51 1409.92 1335.76 1412.99C1313.53 1417.63 1313.5 1450.55 1335.69 1511.75C1329.13 1491.81 1319.64 1486.47 1307.21 1495.72C1284.91 1512.31 1287.17 1579.57 1313.99 1697.49Z" />
					</g>
					<path id="&lt;Path&gt;" class="shp5" d="M1274.67 1497.15C1288.67 1490.53 1297.08 1480.24 1299.89 1466.31C1299.98 1431.7 1311.15 1412.08 1333.39 1407.44C1348.13 1404.37 1360.66 1416.73 1370.98 1444.53C1393.53 1387 1416.37 1361.73 1439.51 1368.72L1313.63 1696.1C1309.24 1675.23 1249.65 1508.98 1274.67 1497.15Z" />
				</g>
			</g>
			<g id="&lt;Group&gt;">
				<g id="&lt;Group&gt;">
					<g id="&lt;Group&gt;">
						<path id="&lt;Path&gt;" class="shp5" d="M748.19 1711.98C558.49 1612.48 446.74 1536.73 412.94 1484.71C379.15 1432.7 382.87 1404.58 424.13 1400.33C335.81 1312.14 298.19 1249.81 311.26 1213.35C324.33 1176.89 354.12 1176.46 400.63 1212.09C344.19 1081.86 329.62 1010.49 356.91 997.97C407.75 974.66 467.69 1032.37 536.74 1171.08C522.3 1111.02 532.46 1082.2 567.23 1084.6C619.65 1088.23 643.89 1157.72 639.93 1293.09C646.55 1241.25 665.55 1223.98 696.95 1241.26C753.29 1272.26 770.37 1429.17 748.19 1711.98Z" />
					</g>
					<path id="&lt;Path&gt;" class="shp4" d="M714.49 1210.07C689.98 1196.04 665.16 1208.89 640.04 1248.62C643.92 1142.9 619.65 1088.23 567.23 1084.61C532.46 1082.2 522.3 1111.02 536.74 1171.08C467.69 1032.37 407.75 974.66 356.91 997.97L748.58 1708.68C752.06 1659.46 787.33 1251.76 714.49 1210.07Z" />
				</g>
				<g id="&lt;Group&gt;">
					<g id="&lt;Group&gt;">
						<path id="&lt;Path&gt;" class="shp5" d="M745.78 1711.12C581.31 1726.95 478.1 1725.21 436.16 1705.9C394.22 1686.58 388.77 1666.14 419.8 1644.57C329.17 1624.15 280.72 1599.86 274.46 1571.71C268.2 1543.57 286.78 1531.46 330.21 1535.41C242.94 1475.86 205.41 1436.72 217.62 1417.99C240.36 1383.12 301.02 1395.63 399.61 1455.51C366.65 1423.45 361.6 1401.26 384.44 1388.96C418.88 1370.42 461.75 1404.53 513.04 1491.32C510.29 1470.2 522.23 1458.84 548.86 1457.24C596.65 1454.38 662.29 1539 745.78 1711.12Z" />
					</g>
					<path id="&lt;Path&gt;" class="shp4" d="M551.11 1434.37C524.48 1435.97 511.79 1454.95 513.04 1491.32C461.22 1388.69 418.08 1346.65 383.64 1365.2C360.8 1377.5 362.09 1405.23 387.52 1448.4C296.99 1393.26 240.36 1383.12 217.62 1417.99L746.57 1709.77C729.2 1677.4 618.06 1430.36 551.11 1434.37Z" />
				</g>
			</g>
			<g id="&lt;Group&gt;">
				<g id="&lt;Group&gt;">
					<path id="&lt;Path&gt;" class="shp0" d="M1820.79 680.31C1814.23 703.33 1790.25 716.66 1767.24 710.1C1744.22 703.53 1730.89 679.54 1737.45 656.52C1744.02 633.5 1768 620.17 1791.01 626.74C1814.03 633.31 1827.36 657.29 1820.79 680.31Z" />
					<path id="&lt;Path&gt;" class="shp6" d="M1754.96 668.66C1751.45 680.97 1758.58 693.79 1770.88 697.3C1783.19 700.82 1796.01 693.69 1799.52 681.38L1754.96 668.66Z" />
				</g>
			</g>
			<path id="&lt;Path&gt;" class="shp7" d="M1599.27 408.4L1575.36 406.47L1572.09 428.6L1548.45 427.73L1542.72 448.49L1524.92 450.74L1526.06 459.75L1549.87 456.74L1555.29 437.07L1579.89 437.97L1583.1 416.21L1604.77 417.96L1599.27 408.4Z" />
			<path id="&lt;Path&gt;" class="shp7" d="M690.18 697.43L689.01 711.99L665.37 712.7L661.03 733.79L643.41 737.21L645.15 746.12L668.7 741.55L672.81 721.56L697.41 720.83L699.18 698.91L690.18 697.43Z" />
			<path id="&lt;Path&gt;" class="shp8" d="M1321.13 1699.78L994.72 1699.78C977.77 1699.78 964.03 1686.04 964.03 1669.09L964.03 1031.59C964.03 1014.64 977.77 1000.9 994.72 1000.9L1321.13 1000.9C1338.08 1000.9 1351.82 1014.64 1351.82 1031.59L1351.82 1669.09C1351.82 1686.04 1338.08 1699.78 1321.13 1699.78Z" />
			<path id="&lt;Path&gt;" class="shp9" d="M994.72 1675.11C991.41 1675.11 988.71 1672.41 988.71 1669.09L988.71 1031.59C988.71 1028.27 991.41 1025.57 994.72 1025.57L1321.13 1025.57C1324.44 1025.57 1327.14 1028.27 1327.14 1031.59L1327.14 1669.09C1327.14 1672.41 1324.44 1675.11 1321.13 1675.11L994.72 1675.11Z" />
			<g id="&lt;Group&gt;">
				<path id="&lt;Path&gt;" class="shp5" d="M1224.03 1121.5C1224.03 1154.12 1197.58 1180.57 1164.96 1180.57C1132.34 1180.57 1105.89 1154.12 1105.89 1121.5C1105.89 1088.88 1132.34 1062.43 1164.96 1062.43C1197.58 1062.43 1224.03 1088.88 1224.03 1121.5Z" />
				<path id="&lt;Path&gt;" class="shp8" d="M1185.57 1121.5C1185.57 1132.88 1176.34 1142.1 1164.96 1142.1C1153.58 1142.1 1144.36 1132.88 1144.36 1121.5C1144.36 1110.12 1153.58 1100.89 1164.96 1100.89C1176.34 1100.89 1185.57 1110.12 1185.57 1121.5Z" />
			</g>
			<g id="&lt;Group&gt;">
				<path id="&lt;Path&gt;" class="shp5" d="M1248.7 1350.34C1248.7 1396.59 1211.21 1434.08 1164.96 1434.08C1118.71 1434.08 1081.22 1396.59 1081.22 1350.34C1081.22 1304.09 1118.71 1266.6 1164.96 1266.6C1211.21 1266.6 1248.7 1304.09 1248.7 1350.34Z" />
				<path id="&lt;Path&gt;" class="shp8" d="M1194.17 1350.34C1194.17 1366.47 1181.09 1379.55 1164.96 1379.55C1148.83 1379.55 1135.75 1366.47 1135.75 1350.34C1135.75 1334.21 1148.83 1321.13 1164.96 1321.13C1181.09 1321.13 1194.17 1334.21 1194.17 1350.34Z" />
			</g>
			<g id="&lt;Group&gt;">
				<path id="&lt;Path&gt;" class="shp5" d="M1241.66 1564.26C1241.66 1610.5 1204.17 1648 1157.92 1648C1111.68 1648 1074.19 1610.5 1074.19 1564.26C1074.19 1518.01 1111.68 1480.52 1157.92 1480.52C1204.17 1480.52 1241.66 1518.01 1241.66 1564.26Z" />
				<path id="&lt;Path&gt;" class="shp8" d="M1187.14 1564.26C1187.14 1580.39 1174.06 1593.47 1157.92 1593.47C1141.79 1593.47 1128.71 1580.39 1128.71 1564.26C1128.71 1548.12 1141.79 1535.04 1157.92 1535.04C1174.06 1535.04 1187.14 1548.12 1187.14 1564.26Z" />
			</g>
			<g id="&lt;Group&gt;">
				<path id="&lt;Path&gt;" class="shp10" d="M2014.21 709.83L2033.29 711.77C2034.26 711.87 2035.12 712.44 2035.59 713.28L2044.78 729.83C2045.95 731.96 2049.1 731.83 2050.09 729.62L2057.87 712.38C2058.27 711.51 2059.08 710.88 2060.04 710.7L2078.89 707.23C2081.31 706.78 2082.16 703.8 2080.33 702.19L2066.06 689.59C2065.33 688.95 2064.97 688 2065.1 687.04L2067.57 668.34C2067.88 665.95 2065.26 664.23 2063.14 665.44L2046.54 674.89C2045.69 675.37 2044.66 675.41 2043.78 675L2026.45 666.92C2024.23 665.88 2021.76 667.8 2022.28 670.16L2026.29 688.6C2026.49 689.54 2026.21 690.52 2025.54 691.22L2012.37 704.92C2010.67 706.68 2011.77 709.58 2014.21 709.83Z" />
				<path id="&lt;Path&gt;" class="shp0" d="M907.06 923.41L926.14 925.36C927.11 925.46 927.97 926.02 928.44 926.86L937.62 943.42C938.8 945.54 941.94 945.41 942.94 943.2L950.72 925.97C951.12 925.09 951.93 924.46 952.89 924.28L971.74 920.81C974.16 920.37 975 917.39 973.17 915.77L958.91 903.17C958.18 902.53 957.82 901.58 957.95 900.63L960.41 881.93C960.73 879.53 958.11 877.81 955.98 879.03L939.38 888.47C938.54 888.96 937.51 889 936.62 888.59L919.3 880.5C917.07 879.46 914.61 881.38 915.12 883.75L919.13 902.19C919.34 903.12 919.06 904.1 918.39 904.8L905.21 918.5C903.52 920.26 904.61 923.16 907.06 923.41Z" />
				<path id="&lt;Path&gt;" class="shp0" d="M2002.18 910.23L2021.26 912.17C2022.23 912.27 2023.09 912.84 2023.56 913.68L2032.74 930.23C2033.92 932.36 2037.06 932.23 2038.06 930.02L2045.84 912.78C2046.24 911.91 2047.05 911.28 2048.01 911.1L2066.86 907.63C2069.28 907.18 2070.13 904.21 2068.3 902.59L2054.03 889.99C2053.3 889.35 2052.94 888.4 2053.07 887.44L2055.53 868.74C2055.85 866.35 2053.23 864.63 2051.1 865.84L2034.51 875.29C2033.66 875.77 2032.63 875.81 2031.75 875.4L2014.42 867.32C2012.2 866.28 2009.73 868.2 2010.24 870.56L2014.25 889C2014.46 889.94 2014.18 890.92 2013.51 891.62L2000.33 905.32C1998.64 907.08 1999.74 909.98 2002.18 910.23Z" />
			</g>
			<g id="&lt;Group&gt;">
				<g id="&lt;Group&gt;">
					<path id="&lt;Path&gt;" class="shp11" d="M1922.73 1272.64C1921.89 1272.99 1933.81 1288.35 1945.42 1299.21C1954.78 1310.96 1963.56 1324.86 1966.58 1340.03C1971.18 1363.08 1967.36 1476.98 1971.36 1485.09C2005.71 1518.67 2030.59 1602.96 2037.57 1628.67C2038.93 1633.68 2041.69 1638.2 2045.51 1641.72L2043.98 1670.77L2026.91 1686.5C2029.44 1670.71 2028.18 1656.96 2023.12 1645.25C1965.46 1557.93 1934.92 1510.93 1931.49 1504.25C1924.95 1485.25 1909.78 1427.05 1885.96 1329.65L1877.67 1296.08C1907.66 1280.47 1922.68 1272.66 1922.73 1272.64Z" />
					<path id="&lt;Path&gt;" class="shp1" d="M2064.21 1651.06C2057.01 1662.16 2053.1 1669.87 2052.48 1674.2C2051.56 1680.69 2045.8 1695.4 2039.44 1696.34C2037.99 1696.55 2013.24 1698.36 2013.42 1695.27C2013.56 1692.91 2022.52 1689.53 2026.68 1686.66C2031.47 1683.35 2037.59 1668.21 2045.03 1641.24C2057.5 1644.33 2063.9 1647.61 2064.21 1651.06Z" />
				</g>
				<path id="&lt;Path&gt;" class="shp11" d="M1848.8 1323.12C1811.67 1402.53 1792.98 1449.22 1792.74 1463.18C1792.44 1481.13 1802.48 1581.85 1799.67 1665.72C1799.57 1668.75 1795.74 1672.78 1790.16 1675.34C1788.06 1676.29 1782.08 1679.19 1772.2 1684.04L1769.76 1688.98L1822.01 1685.26L1823.07 1673.14L1822.75 1670.99C1836.61 1587.35 1842.84 1533.69 1841.43 1510.04C1841.2 1506.32 1840.19 1493.34 1838.38 1471.09L1901.21 1349.78L1861.7 1297.86L1848.8 1323.12Z" />
				<g id="&lt;Group&gt;">
					<path id="&lt;Path&gt;" class="shp3" d="M1976.5 1466.21C1976.49 1466.23 1976.49 1466.23 1976.48 1466.2C1976.48 1466.2 1976.49 1466.2 1976.5 1466.21Z" />
					<path id="&lt;Path&gt;" class="shp3" d="M1780.63 1409.78L1889.97 1251.81C1896.72 1254.54 1903.09 1256.92 1910.3 1258.31C1925.98 1261.34 1941.68 1260.85 1957.55 1260.33C1957.55 1260.92 1957.58 1261.44 1957.64 1261.88C1959.47 1274.91 1976.74 1295.07 1980.3 1334.59C1984.35 1379.45 1981.9 1457.37 1980.53 1462.49C1907.84 1453.65 1801.25 1431.42 1780.63 1409.78Z" />
				</g>
				<path id="&lt;Path&gt;" class="shp11" d="M1923.38 1041.25C1922.94 1045.86 1920.5 1049.39 1917.92 1049.13C1915.34 1048.86 1913.6 1044.91 1914.04 1040.3C1914.47 1035.69 1916.91 1032.17 1919.49 1032.43C1922.07 1032.69 1923.81 1036.64 1923.38 1041.25Z" />
				<path id="&lt;Path&gt;" class="shp1" d="M1823.57 1697.03L1755.03 1697.03C1752.59 1696.81 1751.96 1693.73 1753.33 1692.35C1755.49 1690.2 1763.55 1688.02 1772.2 1684.04C1787.39 1685.62 1820.68 1676.61 1823.07 1673.13C1824.45 1680.09 1824.93 1696.73 1823.57 1697.03Z" />
				<path id="&lt;Path&gt;" class="shp11" d="M1757.21 1128.55C1757.54 1127.67 1758.34 1128.38 1759.32 1129.85C1758.05 1124.5 1758.22 1117.78 1759.23 1117.18C1760.47 1116.44 1761.19 1125.81 1763.95 1130.88C1766.71 1135.95 1769.23 1142.21 1769.61 1141.93C1770.22 1141.49 1766.36 1134.67 1763.64 1129.46C1760.92 1124.26 1763 1100.32 1765.53 1117.48C1768.07 1134.64 1784.66 1147.75 1785.14 1142.49C1785.63 1137.22 1782.84 1129.26 1786.26 1130.42C1789.68 1131.59 1790.68 1143.37 1793.68 1151.89C1794.03 1152.87 1794.06 1155.88 1794.04 1159.42C1794.03 1161.26 1795.18 1162.91 1796.91 1163.54L1840.53 1179.4L1869 1129.81L1901.21 1136.67C1883.94 1181.6 1867.94 1207.46 1853.22 1214.23C1843.15 1218.87 1796.09 1185.87 1777.59 1170.26C1759.27 1154.81 1755.79 1132.31 1757.21 1128.55Z" />
				<path id="&lt;Path&gt;" class="shp0" d="M1883.13 1098.65C1875.55 1102.26 1862.09 1126.51 1842.75 1171.39L1880.06 1194.27L1891.82 1160.03C1895.35 1114.66 1892.46 1094.2 1883.13 1098.65Z" />
				<path id="&lt;Path&gt;" class="shp2" d="M1893.87 1043.88C1888.34 1030.12 1882.85 1016.26 1889.1 999.37C1894.16 985.7 1905.19 976.66 1919.03 973.04C1958.26 962.78 1957.65 989.26 2014.39 983.71C2073.08 977.98 2096.65 1041.78 2091.22 1062.9C2065.25 1163.92 1948.59 1114.7 1932.79 1097.94C1921.04 1085.48 1897.44 1052.73 1893.87 1043.88Z" />
				<path id="&lt;Path&gt;" class="shp0" d="M1970.96 1093.01C1975.17 1092.81 1982.95 1095.31 1994.3 1100.49C2005.64 1105.68 2023.48 1125.14 2047.81 1158.87L2018.09 1182L1967.17 1148.7C1962.87 1111.57 1964.13 1093.01 1970.96 1093.01Z" />
				<path id="&lt;Path&gt;" class="shp12" d="M1880.06 1260.23C1891.74 1266.43 1920.05 1269.03 1964.98 1268.03C1966.65 1250.51 1975.59 1203.6 1979.49 1165.92C1984.39 1139.69 1976.3 1132.17 1970.96 1093.01C1970.94 1092.83 1961.87 1092.11 1943.78 1090.85L1915.52 1091.55C1899.14 1092.86 1888.34 1095.23 1883.13 1098.65C1882.59 1099 1879.48 1143.26 1881.91 1174.62C1883.57 1196 1885.99 1213.25 1885.84 1227.39C1885.69 1241.08 1883.76 1252.03 1880.06 1260.23Z" />
				<path id="&lt;Path&gt;" class="shp12" d="M1874.5 1153.08C1875.05 1169.8 1896.62 1185.9 1927.28 1185.9C1957.94 1185.9 1982.79 1172.34 1982.79 1155.61C1982.79 1138.87 1962.42 1115.33 1931.77 1115.33C1901.11 1115.33 1873.79 1131.87 1874.5 1153.08Z" />
				<path id="&lt;Path&gt;" class="shp11" d="M1937.18 1049.3C1937.57 1052.13 1938.07 1055.5 1938.68 1059.4C1940.36 1070.11 1941.21 1087.69 1943.36 1093.03C1945.26 1097.73 1928.84 1142.2 1923.44 1129.81C1913.97 1108.08 1914.25 1101.54 1913.76 1095.76C1913.27 1090.03 1911.73 1070.42 1910.7 1057.35C1910.33 1052.64 1910.01 1048.57 1909.75 1045.13L1937.18 1049.3Z" />
				<path id="&lt;Path&gt;" class="shp1" d="M1910.65 1057.12C1910.3 1052.51 1910 1048.51 1909.75 1045.13L1937.18 1049.3C1937.64 1051.97 1938.12 1055.18 1938.63 1058.94C1927.51 1065.39 1917.51 1063.36 1910.65 1057.12Z" />
				<path id="&lt;Path&gt;" class="shp11" d="M1928.57 987.22C1935.78 988.85 1941.61 993.06 1946.06 999.85C1952.74 1010.03 1957.32 1040.03 1935.33 1054.03C1913.34 1068.03 1896.24 1048.22 1895.96 1028.91C1895.68 1009.59 1899.82 983.82 1928.57 987.22Z" />
				<path id="&lt;Path&gt;" class="shp11" d="M1890.93 1022.86C1892.8 1027.52 1896.53 1030.42 1899.24 1029.32C1901.96 1028.23 1902.64 1023.57 1900.76 1018.91C1898.88 1014.25 1895.16 1011.35 1892.45 1012.45C1889.73 1013.54 1889.05 1018.2 1890.93 1022.86Z" />
				<path id="&lt;Path&gt;" class="shp2" d="M1925.33 986.59C1934.52 1007.2 1943.15 1018.43 1951.22 1020.27C1959.3 1022.11 1963.27 1028.21 1963.16 1038.59C1962.98 1014.64 1959.1 999.91 1951.54 994.42C1943.97 988.93 1935.24 986.32 1925.33 986.59Z" />
				<path id="&lt;Path&gt;" class="shp11" d="M1946.41 1026.69C1944.82 1031.71 1946.28 1036.66 1949.67 1037.74C1953.06 1038.81 1957.11 1035.62 1958.7 1030.6C1960.3 1025.58 1958.84 1020.63 1955.44 1019.55C1952.05 1018.48 1948.01 1021.67 1946.41 1026.69Z" />
				<g id="&lt;Group&gt;">
					<path id="&lt;Path&gt;" class="shp13" d="M1716.42 1114.14L1735.23 1080.4L1732.57 1078.92L1713.76 1112.66L1716.42 1114.14Z" />
					<path id="&lt;Path&gt;" class="shp14" d="M1716.42 1114.14L1735.23 1080.4L1733.69 1079.54L1714.88 1113.28L1716.42 1114.14Z" />
					<path id="&lt;Path&gt;" class="shp13" d="M1729.54 1120.48L1747.94 1087.48L1745.28 1086L1726.89 1119L1729.54 1120.48Z" />
					<path id="&lt;Path&gt;" class="shp14" d="M1729.54 1120.48L1747.94 1087.48L1745.96 1086.38L1727.57 1119.38L1729.54 1120.48Z" />
					<path id="&lt;Path&gt;" class="shp13" d="M1742.83 1127.88L1761.22 1094.88L1758.57 1093.4L1740.17 1126.4L1742.83 1127.88Z" />
					<path id="&lt;Path&gt;" class="shp14" d="M1742.83 1127.88L1761.22 1094.88L1759.61 1093.98L1741.21 1126.98L1742.83 1127.88Z" />
					<path id="&lt;Path&gt;" class="shp1" d="M1971.9 1326.77C1959.88 1315.87 1952.39 1293.22 1947.91 1284.08C1947.91 1284.08 1942.04 1272.14 1924.43 1271.86C1906.82 1271.59 1887.23 1261.1 1878.28 1240.94C1872.31 1227.49 1876.58 1210.65 1891.09 1190.41L1892.04 1188.72C1901.62 1165.73 1913.7 1153.24 1928.27 1151.24C1950.13 1148.25 1969.35 1159.4 1978.85 1174.23C1988.35 1189.06 2001.58 1187.77 2001.59 1187.77C2011.71 1186.78 2034.92 1181.24 2050.51 1185.73C2065.07 1189.92 2076.64 1200.66 2083.7 1214.22C2091.36 1228.93 2092.65 1249.07 2081.62 1274.36C2081.02 1275.71 2075.2 1287.61 2073.26 1290.83C2071.54 1294.18 2064.48 1305.39 2063.64 1306.61C2047.93 1329.29 2030.13 1338.79 2013.59 1340.01C1998.34 1341.14 1983.13 1336.95 1971.9 1326.77Z" />
					<path id="&lt;Path&gt;" class="shp2" d="M1932.23 1249.91C1946.57 1257.9 1965.15 1251.9 1973.73 1236.5C1982.31 1221.1 1977.65 1202.14 1963.31 1194.15C1948.97 1186.15 1930.38 1192.16 1921.8 1207.56C1913.22 1222.95 1917.89 1241.92 1932.23 1249.91Z" />
					<path id="&lt;Path&gt;" class="shp3" d="M1937.67 1240.14C1946.99 1245.33 1959.06 1241.43 1964.63 1231.43C1970.21 1221.43 1967.18 1209.11 1957.86 1203.91C1948.55 1198.72 1936.47 1202.62 1930.9 1212.63C1925.32 1222.63 1928.36 1234.95 1937.67 1240.14Z" />
					<path id="&lt;Compound Path&gt;" fill-rule="evenodd" class="shp15" d="M1764.39 1100.88C1764.78 1102.45 1766.87 1105.13 1770.66 1108.92L1759.73 1128.53C1754.51 1127.3 1751.13 1126.93 1749.6 1127.43L1695.42 1100.48L1695.4 1100.21C1694.57 1087.24 1701.46 1075 1712.98 1068.97L1764.39 1100.88ZM1759.81 1107.84C1761.37 1105.28 1760.7 1102.01 1758.32 1100.55L1728.34 1082.13C1725.96 1080.67 1722.77 1081.56 1721.21 1084.13C1719.65 1086.69 1720.32 1089.96 1722.7 1091.42L1752.68 1109.84C1755.06 1111.3 1758.26 1110.41 1759.81 1107.84ZM1714.89 1106.25L1746.33 1122.06C1748.82 1123.32 1751.95 1122.17 1753.31 1119.5C1754.68 1116.83 1753.76 1113.64 1751.26 1112.39L1719.83 1096.57C1717.33 1095.32 1714.2 1096.47 1712.84 1099.14C1711.48 1101.81 1712.4 1105 1714.89 1106.25Z" />
					<path id="&lt;Path&gt;" class="shp8" d="M1930.9 1212.63C1928.01 1217.82 1927.43 1223.63 1928.85 1228.74L1759.73 1128.53L1770.66 1108.92L1945.93 1201.86C1939.91 1202.83 1934.24 1206.63 1930.9 1212.63Z" />
					<path id="&lt;Path&gt;" class="shp2" d="M2003.09 1301.34L2044.02 1227.9L2033.09 1221.81L1992.15 1295.25L2003.09 1301.34Z" />
					<path id="&lt;Path&gt;" class="shp8" d="M1764.8 1096.34L1764.86 1096.23C1765.31 1095.42 1765.02 1094.4 1764.21 1093.95L1757.9 1090.43C1757.09 1089.98 1756.07 1090.27 1755.62 1091.08L1755.56 1091.19C1755.11 1092 1755.4 1093.02 1756.21 1093.47L1762.52 1096.99C1763.33 1097.44 1764.35 1097.15 1764.8 1096.34Z" />
					<path id="&lt;Path&gt;" class="shp8" d="M1751.46 1088.9L1751.52 1088.8C1751.97 1087.99 1751.68 1086.96 1750.87 1086.51L1744.56 1083C1743.75 1082.54 1742.73 1082.84 1742.28 1083.65L1742.22 1083.75C1741.77 1084.56 1742.06 1085.58 1742.87 1086.04L1749.18 1089.55C1749.98 1090 1751.01 1089.71 1751.46 1088.9Z" />
					<path id="&lt;Path&gt;" class="shp8" d="M1739.06 1081.26L1739.12 1081.16C1739.57 1080.35 1739.28 1079.32 1738.47 1078.87L1732.16 1075.36C1731.35 1074.9 1730.33 1075.19 1729.88 1076L1729.82 1076.11C1729.37 1076.92 1729.66 1077.94 1730.47 1078.39L1736.78 1081.91C1737.59 1082.36 1738.61 1082.07 1739.06 1081.26Z" />
					<path id="&lt;Path&gt;" class="shp8" d="M1719.68 1116.03L1719.74 1115.92C1720.2 1115.11 1719.9 1114.09 1719.09 1113.64L1712.79 1110.12C1711.98 1109.67 1710.95 1109.96 1710.5 1110.77L1710.44 1110.88C1709.99 1111.69 1710.28 1112.71 1711.09 1113.16L1717.4 1116.68C1718.21 1117.13 1719.23 1116.84 1719.68 1116.03Z" />
					<path id="&lt;Path&gt;" class="shp8" d="M1732.6 1122.74L1732.66 1122.63C1733.11 1121.82 1732.82 1120.8 1732.01 1120.35L1725.7 1116.83C1724.89 1116.38 1723.87 1116.67 1723.42 1117.48L1723.36 1117.59C1722.91 1118.4 1723.2 1119.42 1724.01 1119.87L1730.32 1123.39C1731.13 1123.84 1732.15 1123.55 1732.6 1122.74Z" />
					<path id="&lt;Path&gt;" class="shp8" d="M1745.6 1129.98L1745.66 1129.88C1746.11 1129.07 1745.82 1128.04 1745.01 1127.59L1738.7 1124.08C1737.89 1123.63 1736.87 1123.92 1736.41 1124.73L1736.35 1124.83C1735.9 1125.64 1736.19 1126.66 1737 1127.12L1743.31 1130.63C1744.12 1131.08 1745.15 1130.79 1745.6 1129.98Z" />
					<path id="&lt;Path&gt;" class="shp10" d="M1759.73 1128.53L1770.66 1108.92L1772.88 1110.1L1761.9 1129.81L1759.73 1128.53Z" />
					<path id="&lt;Path&gt;" class="shp10" d="M1774.76 1137.43L1786.09 1117.11L1787.02 1117.6L1775.67 1137.97L1774.76 1137.43Z" />
					<path id="&lt;Path&gt;" class="shp10" d="M1788.53 1145.59L1800.23 1124.6L1801.16 1125.1L1789.44 1146.13L1788.53 1145.59Z" />
					<path id="&lt;Path&gt;" class="shp10" d="M1800.25 1152.54L1812.27 1130.99L1813.2 1131.48L1801.17 1153.08L1800.25 1152.54Z" />
					<path id="&lt;Path&gt;" class="shp10" d="M1811.98 1159.49L1824.3 1137.37L1825.24 1137.87L1812.89 1160.03L1811.98 1159.49Z" />
					<path id="&lt;Path&gt;" class="shp10" d="M1822.79 1165.89L1835.41 1143.26L1836.34 1143.75L1823.7 1166.43L1822.79 1165.89Z" />
					<path id="&lt;Path&gt;" class="shp10" d="M1833.6 1172.3L1846.51 1149.15L1847.45 1149.64L1834.52 1172.84L1833.6 1172.3Z" />
					<path id="&lt;Path&gt;" class="shp10" d="M1842.75 1177.72L1855.9 1154.12L1856.83 1154.62L1843.66 1178.26L1842.75 1177.72Z" />
					<path id="&lt;Path&gt;" class="shp10" d="M1851.89 1183.14L1865.29 1159.1L1866.22 1159.6L1852.8 1183.68L1851.89 1183.14Z" />
					<path id="&lt;Path&gt;" class="shp10" d="M1860.73 1188.38L1874.37 1163.92L1875.3 1164.41L1861.64 1188.92L1860.73 1188.38Z" />
					<path id="&lt;Path&gt;" class="shp10" d="M1869 1193.28L1882.86 1168.42L1883.79 1168.92L1869.91 1193.82L1869 1193.28Z" />
					<path id="&lt;Path&gt;" class="shp10" d="M1876.82 1197.91L1890.88 1172.68L1891.82 1173.17L1877.73 1198.45L1876.82 1197.91Z" />
					<path id="&lt;Path&gt;" class="shp10" d="M1890.93 1206.27L1905.37 1180.36L1906.31 1180.85L1891.84 1206.81L1890.93 1206.27Z" />
					<path id="&lt;Path&gt;" class="shp10" d="M1897.83 1210.36L1912.46 1184.12L1913.4 1184.61L1898.74 1210.9L1897.83 1210.36Z" />
					<path id="&lt;Path&gt;" class="shp10" d="M1903.45 1213.69L1918.23 1187.17L1919.16 1187.67L1904.36 1214.23L1903.45 1213.69Z" />
					<path id="&lt;Path&gt;" class="shp10" d="M1909.37 1217.2L1924.31 1190.4L1925.25 1190.9L1910.28 1217.74L1909.37 1217.2Z" />
					<path id="&lt;Path&gt;" class="shp16" d="M1730.48 1090.28L1731.29 1088.82L1727.05 1086.46L1726.24 1087.92L1730.48 1090.28Z" />
					<path id="&lt;Path&gt;" class="shp16" d="M1722.71 1104.21L1723.27 1103.21L1719.49 1101.11L1718.94 1102.1L1722.71 1104.21Z" />
					<path id="&lt;Path&gt;" class="shp16" d="M1743.45 1097.44L1744.07 1096.33L1739.52 1093.79L1738.9 1094.9L1743.45 1097.44Z" />
					<path id="&lt;Path&gt;" class="shp16" d="M1735.65 1111.42L1736.5 1109.9L1732.42 1107.62L1731.57 1109.14L1735.65 1111.42Z" />
					<path id="&lt;Path&gt;" class="shp16" d="M1756.48 1104.13L1757.18 1102.88L1753.26 1100.69L1752.56 1101.95L1756.48 1104.13Z" />
					<path id="&lt;Path&gt;" class="shp16" d="M1747.9 1119.87L1748.32 1119.13L1744.7 1117.11L1744.28 1117.85L1747.9 1119.87Z" />
					<g id="&lt;Group&gt;">
						<path id="&lt;Path&gt;" class="shp10" d="M1883.57 1201.91L1897.81 1176.35L1898.75 1176.85L1884.48 1202.45L1883.57 1201.91Z" />
					</g>
				</g>
				<path id="&lt;Path&gt;" class="shp11" d="M1956.82 1255.44C1956.99 1255.86 1950.88 1257.18 1945.35 1258.77C1939.81 1260.36 1930.71 1260.38 1931.14 1261.71C1931.47 1262.75 1937.07 1263.36 1942.22 1262.96C1940.93 1263.51 1940.34 1264.04 1941.02 1264.48C1943.83 1266.28 1959.95 1265.27 1974.74 1258.97C1989.54 1252.67 2075.69 1205.38 2066.96 1192.07C2063.75 1187.17 2049.95 1173.05 2042.07 1163.34L2019.5 1180.9L2031.12 1193.59C2013.32 1212.64 1986.08 1233.31 1984.68 1234.31C1980.91 1237.01 1973.65 1234.68 1972.01 1234.64C1963.04 1234.4 1951.49 1234.3 1949.57 1237.3C1947.64 1240.31 1955.98 1239.29 1960.95 1240.82C1965.92 1242.35 1949.42 1255.41 1932.26 1254.33C1915.11 1253.24 1934.5 1260.9 1940.16 1259.38C1945.82 1257.86 1956.53 1254.77 1956.82 1255.44Z" />
				<path id="&lt;Path&gt;" class="shp11" d="M1840.53 1179.4L1796.91 1163.54C1795.18 1162.91 1794.03 1161.26 1794.04 1159.42C1794.06 1155.88 1794.03 1152.87 1793.68 1151.89C1790.68 1143.36 1789.68 1131.59 1786.26 1130.42C1782.84 1129.26 1785.63 1137.22 1785.14 1142.49C1784.66 1147.75 1768.07 1134.64 1765.53 1117.48C1763 1100.32 1760.92 1124.26 1763.64 1129.46C1766.36 1134.67 1770.22 1141.49 1769.61 1141.93C1769.23 1142.21 1766.71 1135.95 1763.95 1130.88C1761.19 1125.81 1760.47 1116.44 1759.23 1117.18C1758.22 1117.78 1758.05 1124.5 1759.32 1129.85C1758.34 1128.38 1757.54 1127.67 1757.21 1128.55C1755.79 1132.31 1759.27 1154.81 1777.59 1170.26C1796.09 1185.87 1843.15 1218.87 1853.22 1214.23L1840.53 1179.4Z" />
			</g>
			<g id="&lt;Group&gt;">
				<path id="&lt;Path&gt;" class="shp11" d="M1252.76 747.77C1253.38 746.04 1253.44 743.29 1252.94 739.53C1252.02 732.55 1249.37 722.16 1248.98 721.26C1248.51 720.18 1255.53 716.38 1270.04 709.86C1294.09 705.75 1307.75 702.14 1311.03 699.01C1315.95 694.32 1320.29 692.11 1318.27 696.61C1314.62 704.74 1305.31 717.14 1303.13 718.94C1300.94 720.74 1273.6 731.17 1273.09 731.23C1272.76 731.27 1273.34 737.19 1274.86 749L1252.76 747.77Z" />
				<g id="&lt;Group&gt;">
					<path id="&lt;Path&gt;" class="shp5" d="M1275.41 737.42C1259.43 736.62 1251.39 737.01 1251.29 738.61C1247.97 791.72 1248.4 809.09 1247.41 809.76C1244.06 812.02 1187.59 773.21 1178.8 771.27C1174.59 770.35 1170.22 771.11 1166.02 771.73C1156 773.22 1159.36 772.58 1154.09 773.47L1154.1 773.48C1153.91 773.51 1153.76 773.54 1153.65 773.56L1154.83 783.01C1167.37 791.86 1211.61 943.12 1213.78 942.76C1216.21 942.36 1268.98 949.17 1267.57 944.96C1267.34 944.28 1229.38 920.07 1214.72 880.38C1209.8 867.06 1206.42 852.48 1203.1 839.77C1215.16 844.12 1262.23 860.73 1268.94 857C1282.84 849.27 1285 809.41 1275.41 737.42Z" />
					<path id="&lt;Path&gt;" class="shp11" d="M1396.18 1000.99C1430.92 1022.12 1449.09 1034.83 1450.67 1039.11C1454.09 1048.38 1496.26 1030.66 1485.5 1029.97C1483.03 1029.81 1475.04 1028.76 1474.37 1028.5C1471.95 1027.55 1454.58 1011.72 1422.25 980.99L1396.18 1000.99Z" />
					<path id="&lt;Path&gt;" class="shp0" d="M1505.98 1027.54L1475.24 1028.67C1470.01 1034.16 1461.84 1037.68 1450.71 1039.23C1449.54 1044.53 1449.72 1050.11 1451.28 1055.96C1451.68 1057.48 1452.49 1062.1 1454.03 1061.81C1459.61 1060.76 1474.15 1055.26 1490.82 1049.82C1505.73 1044.76 1517.29 1039.07 1525.5 1032.73C1533.71 1026.4 1527.2 1024.67 1505.98 1027.54Z" />
					<path id="&lt;Path&gt;" class="shp2" d="M1171.43 932.66C1195.17 933.81 1219.56 929.85 1244.59 920.77C1288.03 905.01 1336.29 889.49 1351.76 896.18C1360.07 899.78 1392.82 935.35 1450.03 1002.89L1424.37 1026.73L1333.6 946.52C1268.44 979.75 1228.04 995.88 1212.4 994.91C1158.99 991.6 1153.29 949.93 1171.43 932.66Z" />
					<path id="&lt;Path&gt;" class="shp2" d="M1206.97 905.94L1246.83 943.31L1184.37 970.75L1171.43 932.66L1206.97 905.94Z" />
					<path id="&lt;Path&gt;" class="shp11" d="M1300.47 1087.15C1303.62 1125.77 1305.14 1148.38 1305.03 1154.99C1304.88 1164.87 1334.13 1191.1 1329.63 1181.3C1328.59 1179.05 1325.72 1171.52 1325.63 1170.8C1325.32 1168.23 1325.75 1144.63 1326.93 1100.02L1300.47 1087.15Z" />
					<path id="&lt;Path&gt;" class="shp0" d="M1341.5 1198.16L1325.9 1171.66C1318.58 1169.66 1311.6 1164.14 1304.95 1155.09C1299.73 1156.57 1294.91 1159.39 1290.5 1163.54C1289.35 1164.61 1281.57 1171.86 1282.33 1173.22C1285.15 1178.26 1298.1 1188.23 1312.27 1199.11C1325.42 1207.36 1336.73 1213.59 1346.2 1217.81C1355.67 1222.02 1354.11 1215.47 1341.5 1198.16Z" />
					<path id="&lt;Path&gt;" class="shp1" d="M1343.57 966.75C1334.14 956.86 1295.97 950.66 1229.06 948.15L1195.32 898.6L1139.01 943.27C1146.88 975.02 1152.85 995.02 1156.91 1003.28C1165.03 1019.77 1205.96 1015.8 1230.87 1012.58C1246.15 1010.61 1267.94 1009.53 1296.25 1009.33L1296.92 1136.07C1316 1138.09 1328.1 1138.45 1333.24 1137.15C1334.11 1136.93 1361.16 985.2 1343.57 966.75Z" />
					<path id="&lt;Path&gt;" class="shp10" d="M1154 773.61L1119.95 779.55C1119.44 779.8 1119.12 779.95 1118.96 779.99C1116.23 780.84 1130.62 880.43 1137.54 917.45C1142.15 942.12 1146.76 959.48 1151.37 969.53C1181.71 960.35 1201.41 953.35 1210.49 948.53C1214.25 946.53 1220.2 938.99 1228.34 925.91C1217.02 913.95 1207.64 897.6 1200.19 876.87C1191.58 852.89 1179.38 810.01 1174.28 801.36C1166.48 788.12 1159.72 778.87 1154 773.61Z" />
				</g>
				<path id="&lt;Path&gt;" class="shp11" d="M1117.34 749.21L1119.95 779.59C1137.77 803.32 1150.27 812.96 1157.44 808.51C1163.46 804.77 1162.49 793.54 1154.53 774.83C1152.9 770.51 1151.02 765.89 1148.88 760.97C1146.64 755.8 1144.62 750.16 1144.21 745.9C1143.55 738.98 1134.59 740.09 1117.34 749.21Z" />
				<g id="&lt;Group&gt;">
					<path id="&lt;Path&gt;" class="shp8" d="M1135.65 677.03C1144.54 687.5 1149.83 697.49 1151.53 706.98C1153.23 716.48 1153.45 724.61 1152.2 731.38L1110.77 692.31L1135.65 677.03Z" />
					<path id="&lt;Path&gt;" class="shp7" d="M1154.94 703.6C1156.04 708.56 1154.6 713.11 1151.72 713.75C1148.84 714.4 1145.6 710.9 1144.49 705.93C1143.39 700.97 1144.83 696.43 1147.71 695.78C1150.59 695.14 1153.83 698.64 1154.94 703.6Z" />
					<path id="&lt;Path&gt;" class="shp11" d="M1099.85 700.65C1099 700.57 1104.04 742.32 1117.3 750.71C1130.57 759.1 1151.74 757.46 1156.72 746.83C1162.22 735.08 1150.53 691.85 1131.42 684.64C1118.68 679.83 1108.16 685.17 1099.85 700.65Z" />
					<path id="&lt;Path&gt;" class="shp8" d="M1093.71 675.12C1085.43 684.32 1081.66 690.77 1077.12 705.91C1071.53 724.53 1088.96 741.07 1102.61 746.85C1111.72 750.7 1116.98 755.56 1118.42 761.44L1118.26 755.81C1118.3 751.42 1116.7 749.11 1115.16 746.64C1113.8 744.44 1109.35 736.88 1107.74 734.94C1103.48 729.82 1102.63 728.7 1103.78 723.22C1104.67 718.99 1102.02 710.23 1103.34 703.29L1120.12 697.53C1127.09 694.95 1132.15 691.36 1135.27 686.74C1148.76 666.87 1115.49 650.44 1093.71 675.12Z" />
					<path id="&lt;Path&gt;" class="shp11" d="M1108.42 727.3C1111.08 731.63 1111.2 736.4 1108.68 737.95C1106.17 739.49 1101.97 737.24 1099.3 732.91C1096.64 728.58 1096.52 723.81 1099.04 722.26C1101.55 720.71 1105.75 722.97 1108.42 727.3Z" />
				</g>
				<path id="&lt;Path&gt;" class="shp17" d="M977.45 626.03C979.39 631.24 982.04 637.93 985.4 646.12C985.53 649.65 986.23 664.3 987.11 682.26L1012.05 668.68C1009.55 649.35 1008.61 639.05 1009.25 637.78C1010.06 636.16 1011.94 637.83 1018.61 625.4C1019.89 623 1020.44 619.82 1020.26 615.83C1020 610.94 1019.3 608.33 1018.16 608C1016.44 607.52 1014.69 608.83 1014.25 610.16C1013.8 611.49 1014.3 614.41 1013.86 615.74C1013.42 617.07 1009.81 619.03 1008.21 619.14C1007.14 619.22 1006.35 612.02 1005.85 597.56C1005.96 593.42 1006.08 590.67 1006.23 589.31C1006.35 588.15 1006.73 585.84 1007.37 582.4C1008.01 577.43 1007.56 574.86 1006.01 574.66C1004.65 574.5 1001.98 580.77 1000.4 587.28C998.71 594.29 998.15 601.58 997.42 601.57C996.29 601.55 995.55 597.58 995.21 589.66C995.9 585.93 996.12 583.22 995.89 581.52C997.1 578.21 997.45 572.3 994.63 572.15C994.28 572.13 993.18 574.72 991.33 579.91C990.78 583.48 990.32 586.1 989.96 587.78C988.99 592.22 989.56 598.98 989.15 602.05C988.8 604.6 988.1 603.65 987.85 603.78C987.66 603.89 987.61 600.44 987.46 595.7C987.39 593.31 986.79 590.62 987.13 587.86C987.45 585.3 987.38 581.69 987.28 579.52C987 573.37 983.24 574.45 982.58 580.18C982.32 582.36 982.07 584.74 981.82 587.15C980.84 596.53 981.94 605.32 980.97 605.51C980.12 605.68 979.35 600.39 978.64 589.64C976.63 583.88 975.3 583.82 974.65 589.47C973.52 599.28 974.69 607.04 974.76 607.38C975.24 609.69 974.54 618.23 977.45 626.03Z" />
				<path id="&lt;Path&gt;" class="shp5" d="M1119.91 779.61C1097.16 781.23 1082.7 781.06 1076.54 779.11C1072.81 777.93 1054.99 767.34 1023.1 747.33L1012.41 653.07L981.42 654.38C979.05 725.06 980.15 763.98 984.72 771.14C991.82 782.23 1061.49 823.11 1076.76 842.62C1085.57 853.86 1112.14 1006.01 1114.64 1007.22C1132.2 1013.87 1192.63 1027.18 1190.81 1022.1C1157.23 928.53 1133.59 847.7 1119.91 779.61Z" />
				<path id="&lt;Path&gt;" class="shp11" d="M1264.24 721.5C1270.22 718.06 1274.02 715.95 1275.64 715.19C1277.26 714.42 1280.71 713.22 1285.99 711.56C1293.35 701.96 1298.09 696.92 1300.2 696.44C1302.31 695.96 1300.42 700.95 1294.53 711.41L1290.64 716.15C1294.89 711.53 1297.43 708.89 1298.26 708.22C1299.51 707.22 1308.32 690.6 1311.14 691.29C1313.96 691.99 1307.98 703.65 1305.12 709.81C1303.21 713.91 1297 717.79 1286.48 721.43L1264.24 721.5Z" />
			</g>
			<g id="&lt;Group&gt;">
				<g id="&lt;Group&gt;">
					<g id="&lt;Group&gt;">
						<g id="&lt;Group&gt;">
							<path id="&lt;Path&gt;" class="shp18" d="M1294.38 692.14C1294.15 691.88 1270.8 666.36 1226.16 650.65C1162.45 628.22 1053.23 652.8 1020.81 582.48C1015.03 569.94 1014.76 560.12 1014.75 559.71C1014.72 558.21 1016.99 558.16 1017.02 559.66C1017.02 559.76 1017.3 569.5 1022.92 581.63C1054.75 650.39 1162.85 625.95 1226.92 648.51C1258.97 659.79 1285.31 678.68 1296.07 690.62C1297.07 691.74 1295.38 693.25 1294.38 692.14Z" />
						</g>
						<g id="&lt;Group&gt;">
							<path id="&lt;Path&gt;" class="shp18" d="M1293.49 680.09C1292.61 679.13 1271.4 656.34 1231.62 642.27C1188.28 626.87 1121.62 630.64 1081.56 612.71C1057.23 601.82 1045.33 586.22 1039.63 575.06C1033.44 562.92 1033.04 553.48 1033.02 553.08C1032.97 551.58 1035.24 551.5 1035.29 553C1035.3 553.14 1035.72 562.46 1041.71 574.14C1047.25 584.94 1058.81 600.04 1082.49 610.64C1122.14 628.38 1188.67 624.6 1232.38 640.13C1272.69 654.39 1294.27 677.58 1295.17 678.56C1295.59 679.02 1295.56 679.74 1295.1 680.16C1294.64 680.58 1293.92 680.55 1293.49 680.09Z" />
						</g>
						<g id="&lt;Group&gt;">
							<path id="&lt;Path&gt;" class="shp18" d="M1292.6 668.03C1283.15 657.73 1263.6 643.35 1237.07 633.89C1195.2 618.87 1138.29 619.27 1102.52 604.27C1077.04 593.58 1064.48 578.48 1058.43 567.7C1051.83 555.95 1051.31 546.84 1051.29 546.45C1051.22 544.96 1053.49 544.84 1053.56 546.34C1053.57 546.43 1054.09 555.4 1060.47 566.7C1066.36 577.14 1078.58 591.77 1103.39 602.17C1121.46 609.75 1144.86 613.32 1169.63 617.1C1193.03 620.67 1217.22 624.36 1237.83 631.75C1264.75 641.35 1284.64 656 1294.27 666.5C1295.29 667.61 1293.62 669.14 1292.6 668.03Z" />
						</g>
						<g id="&lt;Group&gt;">
							<path id="&lt;Path&gt;" class="shp18" d="M1291.71 655.98C1251.23 611.85 1169.24 613.61 1123.48 595.83C1096.82 585.46 1083.59 570.85 1077.19 560.41C1070.2 549.03 1069.59 540.19 1069.57 539.82C1069.47 538.33 1071.74 538.19 1071.83 539.68C1071.84 539.84 1072.49 548.48 1079.2 559.36C1085.43 569.45 1098.31 583.61 1124.3 593.71C1169.91 611.44 1252.25 609.61 1293.38 654.44C1293.8 654.91 1293.77 655.62 1293.31 656.05C1292.85 656.47 1292.13 656.44 1291.71 655.98Z" />
						</g>
					</g>
				</g>
				<g id="&lt;Group&gt;">
					<path id="&lt;Path&gt;" class="shp4" d="M1115.71 566.47L1115.71 566.47C1111.96 562.55 1107.21 551.15 1104.37 544.33C1100.55 535.17 1101.01 537.05 1099.56 536.31C1096.51 535.71 1099.08 537.91 1074.77 587.61C1064.7 574.44 1035.83 577.67 1035.92 592.98C1035.96 600.89 1044.31 607.96 1055.57 607.9C1063.39 607.86 1070.42 604.27 1073.48 598.77L1073.46 598.76C1074.26 597.31 1084.83 575.72 1093.54 558.23C1096.57 569.8 1110.17 578.22 1118.66 572.62L1121.23 570.93L1118.63 569.29C1117.72 568.72 1115.85 566.62 1115.71 566.47Z" />
					<path id="&lt;Path&gt;" class="shp4" d="M1272.71 613.99L1272.71 613.99C1268.09 612.67 1259.33 606.03 1254.09 602.06C1248.55 597.87 1247.97 597.43 1246.6 598.01C1243.71 598.98 1246.71 600.32 1250.27 649.07C1236.44 643.79 1215.88 658.73 1222.88 670.58C1230.28 683.12 1255.14 673.6 1254.82 658.06L1254.81 658.06C1254.77 656.58 1253.23 631.84 1252.11 614.81C1259.79 622.05 1273.84 625.87 1277.88 617.71L1279.24 614.95C1275.69 614.69 1277.21 615.3 1272.71 613.99Z" />
					<path id="&lt;Path&gt;" class="shp4" d="M1197.33 614.33C1197.27 612.27 1195.77 589.8 1193.95 562.21C1164.96 565.29 1165.96 565.57 1139.25 561.32C1140.15 575.5 1141.11 589.74 1141.93 601.19C1127.89 595.84 1110.46 612.28 1117.37 623.98C1124.83 636.61 1148.24 623.36 1147.93 607.9C1146.88 599.68 1145.91 589.01 1145.02 575.9L1190.17 576.32C1190.58 582.4 1191.08 594.35 1191.94 606.02C1177.97 600.7 1158.47 615.1 1165.41 626.85C1169.23 633.32 1179.16 634.55 1187.55 629.59C1193.62 626.01 1197.47 620.02 1197.36 614.33L1197.33 614.33Z" />
				</g>
			</g>
			<path id="&lt;Path&gt;" class="shp19" d="M1782.17 483.47L1782.17 483.47C1777.6 484.92 1766.62 484.23 1760.07 483.81C1753.13 483.38 1752.41 483.33 1751.59 484.57C1749.71 486.97 1749.89 486.93 1779.78 525.6C1765.34 528.85 1759.52 552.15 1771.9 558.17C1784.99 564.53 1800.46 542.86 1791.61 530.08L1791.59 530.09C1790.75 528.88 1777.76 512.06 1767.41 498.49C1777.82 500.27 1789.67 492.75 1788.54 483.72L1788.15 480.67C1785.05 482.4 1786.65 482.08 1782.17 483.47Z" />
			<path id="&lt;Path&gt;" class="shp10" d="M1195.44 394.85C1195.66 392.8 1197.21 370.34 1199.14 342.75C1169.99 341.88 1170.94 342.3 1145.06 334.48C1144.03 348.64 1143.06 362.89 1142.33 374.35C1129.14 367.14 1109.65 381.08 1114.91 393.61C1120.59 407.13 1146.48 400.88 1148.25 385.52L1148.24 385.51C1148.39 384.1 1149.17 371.61 1150.5 351.94L1191.2 357.95C1190.79 364.03 1190.27 372 1189.54 383.68C1176.42 376.52 1156.84 390.36 1162.12 402.94C1165.03 409.86 1174.71 412.43 1183.69 408.65C1190.19 405.92 1194.81 400.5 1195.47 394.85L1195.44 394.85Z" />
			<path id="&lt;Path&gt;" class="shp20" d="M671.93 556.58L686.95 568.76L704.69 560.12L720.56 574.98L736.62 559.94L755.31 575.95L771.8 563.93L792.3 576.39L787.59 584.15L772.26 574.84L754.86 587.52L736.89 572.13L720.57 587.42L703.05 571.02L685.73 579.46L671.8 568.17L661.59 576.09L656.02 568.91L671.93 556.58Z" />
			<g id="&lt;Group&gt;">
				<path id="&lt;Path&gt;" class="shp5" d="M1829.73 877.61C1830.01 879.07 1830.54 880.45 1831.2 881.78C1833.61 879.52 1837.19 877.71 1842.46 877.81C1843.07 875.89 1843.68 873.96 1844.3 872.04C1840.02 871.84 1833.64 872.55 1829.73 877.61Z" />
				<path id="&lt;Path&gt;" class="shp5" d="M1841.27 903.81C1843.93 896.06 1846.66 887.83 1849.37 879.67C1849.02 879.46 1848.79 879.34 1848.84 879.36C1846.71 878.41 1846.4 878.38 1846.42 878.38C1844.85 877.91 1843.56 877.85 1843.58 877.86C1843.19 877.83 1842.82 877.82 1842.46 877.81C1839.61 886.72 1836.86 895.55 1834.29 903.62C1836.6 904.07 1838.98 904.12 1841.27 903.81Z" />
				<path id="&lt;Path&gt;" class="shp5" d="M1821.76 937.63C1821.8 937.58 1817.88 944.28 1812.52 943.63C1808.42 943.25 1807.48 941 1809.72 936.88C1809.71 936.89 1809.89 936.38 1809.89 936.36C1810.27 935.26 1809.71 934.05 1808.59 933.59C1807.41 933.11 1806.26 933.74 1805.55 934.79C1805.17 935.36 1804.64 936.34 1804.5 938.06C1803.65 948.11 1815.73 951.33 1822.75 945.15C1827.14 941.34 1832.63 928.18 1838.5 911.71C1836.32 911.59 1834.13 911.3 1831.98 910.83C1827.67 924.15 1824.06 934.38 1821.76 937.63Z" />
				<path id="&lt;Path&gt;" class="shp5" d="M1834.29 903.62C1833.5 906.1 1832.73 908.51 1831.98 910.83C1834.13 911.3 1836.32 911.59 1838.5 911.71C1839.41 909.15 1840.34 906.51 1841.27 903.81C1838.98 904.12 1836.6 904.07 1834.29 903.62Z" />
				<path id="&lt;Path&gt;" class="shp5" d="M1844.3 872.04C1846.94 872.16 1848.79 872.63 1848.78 872.62C1849.71 872.87 1850.59 873.17 1851.42 873.51C1853.77 866.47 1856.1 859.59 1858.36 853.21C1855.16 854.18 1852.22 855.2 1849.52 856.24C1847.77 861.38 1846.03 866.7 1844.3 872.04Z" />
				<path id="&lt;Path&gt;" class="shp5" d="M1853.22 845.64C1851.99 849.05 1850.76 852.6 1849.52 856.24C1852.22 855.2 1855.16 854.18 1858.36 853.21C1859.66 849.56 1860.93 846.08 1862.18 842.83C1859.22 843.85 1856.23 844.76 1853.22 845.64Z" />
				<path id="&lt;Path&gt;" class="shp5" d="M1819.3 886.61C1818.87 883.23 1819 868.01 1849.52 856.24C1850.76 852.6 1851.99 849.05 1853.22 845.64C1849.67 846.68 1846.11 847.69 1842.61 848.84C1834.16 851.6 1825.45 855.01 1818.94 860.99C1810.46 868.78 1808.29 880.31 1810.83 891.01C1812.14 896.58 1815.11 901.91 1819.89 905.5C1823.41 908.14 1827.6 909.87 1831.98 910.83C1832.73 908.51 1833.5 906.1 1834.29 903.62C1827.14 902.21 1820.62 896.93 1819.3 886.61Z" />
				<path id="&lt;Path&gt;" class="shp5" d="M1888.65 824.46C1887.71 816.5 1879.48 803.93 1869.37 812.4C1864.79 816.23 1859.11 829.29 1853.22 845.64C1856.23 844.76 1859.22 843.85 1862.18 842.83C1868.55 826.19 1874.18 815.6 1877.99 819.92C1880.25 822.49 1881.25 826.97 1879.38 831.4C1877.4 836.13 1872.21 838.86 1867.54 840.81C1865.78 841.55 1863.98 842.21 1862.18 842.83C1860.93 846.08 1859.66 849.56 1858.36 853.21C1859.74 852.79 1861.16 852.37 1862.64 851.96C1871.92 849.41 1881.34 843.53 1885 838.24C1885 838.25 1889.57 832.22 1888.65 824.46Z" />
				<path id="&lt;Path&gt;" class="shp5" d="M1851.24 880.98C1850.93 880.71 1853.53 882.73 1854.76 885.36C1854.22 884.3 1858.36 890.23 1853.2 897.28C1850.59 900.85 1846.12 903.14 1841.27 903.81C1840.34 906.51 1839.41 909.15 1838.5 911.71C1838.85 911.73 1839.2 911.75 1839.55 911.76C1865.24 912.61 1870.77 881.34 1851.42 873.51C1850.74 875.55 1850.05 877.61 1849.37 879.67C1849.93 880 1850.78 880.54 1851.24 880.98Z" />
				<path id="&lt;Path&gt;" class="shp5" d="M1844.3 872.04C1843.68 873.96 1843.07 875.89 1842.46 877.81C1842.82 877.82 1843.19 877.83 1843.58 877.86C1843.56 877.85 1844.85 877.91 1846.42 878.38C1846.4 878.38 1846.71 878.41 1848.84 879.36C1848.79 879.34 1849.02 879.46 1849.37 879.67C1850.05 877.61 1850.74 875.55 1851.42 873.51C1850.59 873.17 1849.71 872.87 1848.78 872.62C1848.79 872.63 1846.94 872.16 1844.3 872.04Z" />
				<path id="&lt;Path&gt;" class="shp5" d="M1839.31 884.34C1838.33 888.79 1834.96 891.84 1831.79 891.14C1828.62 890.44 1826.84 886.26 1827.83 881.81C1828.81 877.36 1832.17 874.32 1835.34 875.02C1838.51 875.71 1840.29 879.89 1839.31 884.34Z" />
				<path id="&lt;Path&gt;" class="shp5" d="M1816.21 938.99C1815.23 943.44 1811.86 946.48 1808.69 945.78C1805.52 945.08 1803.74 940.91 1804.72 936.46C1805.71 932 1809.07 928.96 1812.24 929.66C1815.41 930.36 1817.19 934.54 1816.21 938.99Z" />
			</g>
			<g id="&lt;Group&gt;">
				<path id="&lt;Path&gt;" class="shp2" d="M586.63 1503.11L586.63 1388.75C586.63 1273.23 680.28 1179.59 795.8 1179.59L910.15 1179.59C1025.67 1179.59 1119.32 1273.23 1119.32 1388.75L1119.32 1503.11C1119.32 1618.63 1025.67 1712.28 910.15 1712.28L795.8 1712.28C680.28 1712.28 586.63 1618.63 586.63 1503.11Z" />
				<path id="&lt;Path&gt;" class="shp1" d="M715.07 1089.68C715.7 1068.99 708.09 865.63 759.5 704.81C794.54 594.98 833.54 547.52 880.26 509.1C882.39 507.43 884.48 505.73 886.62 504.1C888.78 502.48 890.92 500.84 893.11 499.29C893.78 498.81 890.68 501.01 899.68 494.64C1052.12 388.83 1360.98 384.02 1490.62 543.79C1537.98 601.27 1569.36 693.95 1583.08 767.79C1606.98 896.13 1600.24 1036.53 1596.9 1174.72L1534.41 1174.72C1523.18 1002.93 1541.56 787.14 1462.24 628.9L1459.27 623.1C1455.75 618.99 1413.47 515.98 1276.89 466.6C1104.63 408.39 927.62 492.86 868.31 649.36C814.22 788.11 819.41 950.75 819.29 1089.68L715.07 1089.68Z" />
				<path id="&lt;Path&gt;" class="shp1" d="M858.68 1258.65L668.57 1258.65L668.57 984.51L858.68 984.51L858.68 1258.65Z" />
				<path id="&lt;Path&gt;" class="shp2" d="M858.68 1141.92C844.99 1139.22 830.84 1137.8 816.36 1137.8L718.1 1137.8C701.06 1137.8 684.48 1139.76 668.57 1143.47L668.57 1258.65L858.68 1258.65L858.68 1141.92Z" />
				<path id="&lt;Path&gt;" class="shp19" d="M848.01 514.94C852.43 523.22 861.6 527.02 868.68 523.43C875.87 519.77 878.18 509.88 873.83 501.33C869.49 492.78 860.14 488.81 852.95 492.47C851.07 493.42 849.54 494.8 848.36 496.47L836.94 471.92L878.84 464.57L898.36 506.56L898.36 506.56C898.39 506.61 898.41 506.66 898.43 506.71C902.77 515.26 912.12 519.23 919.31 515.58C926.5 511.93 928.81 502.03 924.47 493.48C920.13 484.93 910.78 480.96 903.59 484.62C901.71 485.57 900.18 486.95 899 488.61L878.09 443.64C877.42 442.18 875.96 441.33 874.62 441.6L822.44 452.17C820.7 452.53 819.9 454.61 820.79 456.51L847.96 514.95L848.01 514.94Z" />
				<path id="&lt;Path&gt;" class="shp1" d="M530.21 1511.57L530.21 1380.3C530.21 1269.45 620.07 1179.59 730.92 1179.59L819.99 1179.59C930.84 1179.59 1020.7 1269.45 1020.7 1380.3L1020.7 1511.57C1020.7 1622.42 930.84 1712.28 819.99 1712.28L730.92 1712.28C620.07 1712.28 530.21 1622.42 530.21 1511.57Z" />
				<path id="&lt;Path&gt;" class="shp2" d="M606.88 1452.38L606.88 1394.28C606.88 1335.59 654.46 1288.01 713.14 1288.01L771.24 1288.01C829.93 1288.01 877.51 1335.59 877.51 1394.28L877.51 1452.38C877.51 1511.06 829.93 1558.64 771.24 1558.64L713.14 1558.64C654.46 1558.64 606.88 1511.06 606.88 1452.38Z" />
				<path id="&lt;Path&gt;" class="shp1" d="M556.78 1452.38L556.78 1394.28C556.78 1335.59 604.35 1288.01 663.04 1288.01L721.14 1288.01C779.83 1288.01 827.41 1335.59 827.41 1394.28L827.41 1452.38C827.41 1511.06 779.83 1558.64 721.14 1558.64L663.04 1558.64C604.35 1558.64 556.78 1511.06 556.78 1452.38Z" />
			</g>
			<g id="&lt;Group&gt;">
				<path id="&lt;Path&gt;" class="shp17" d="M2126.38 932.62C2128.45 938.17 2131.27 945.31 2134.85 954.04C2135 957.8 2135.74 973.44 2136.68 992.59L2163.28 978.1C2160.61 957.49 2159.62 946.5 2160.3 945.14C2161.16 943.41 2163.17 945.2 2170.27 931.94C2171.64 929.38 2172.23 925.98 2172.04 921.74C2171.76 916.51 2171.01 913.73 2169.79 913.38C2167.96 912.87 2166.09 914.27 2165.62 915.68C2165.15 917.1 2165.68 920.21 2165.21 921.63C2164.74 923.05 2160.89 925.15 2159.18 925.27C2158.04 925.35 2157.2 917.67 2156.66 902.24C2156.78 897.83 2156.92 894.9 2157.07 893.45C2157.2 892.2 2157.61 889.75 2158.29 886.07C2158.97 880.78 2158.49 878.03 2156.84 877.82C2155.39 877.64 2152.54 884.34 2150.86 891.28C2149.05 898.76 2148.45 906.53 2147.68 906.52C2146.47 906.5 2145.68 902.27 2145.32 893.81C2146.05 889.84 2146.29 886.94 2146.05 885.14C2147.33 881.61 2147.71 875.3 2144.7 875.14C2144.32 875.12 2143.15 877.88 2141.18 883.42C2140.59 887.22 2140.1 890.02 2139.71 891.81C2138.68 896.55 2139.3 903.76 2138.85 907.03C2138.48 909.75 2137.74 908.74 2137.47 908.88C2137.26 908.99 2137.21 905.31 2137.05 900.26C2136.97 897.72 2136.34 894.85 2136.7 891.9C2137.04 889.16 2136.96 885.32 2136.86 883C2136.57 876.45 2132.55 877.6 2131.84 883.71C2131.57 886.04 2131.3 888.57 2131.03 891.14C2129.99 901.15 2131.17 910.53 2130.13 910.73C2129.22 910.9 2128.4 905.26 2127.64 893.8C2125.5 887.66 2124.08 887.59 2123.39 893.61C2122.19 904.08 2123.42 912.36 2123.5 912.72C2124.02 915.18 2123.27 924.29 2126.38 932.62Z" />
				<path id="&lt;Path&gt;" class="shp21" d="M2295.34 1027.52C2286.57 1018.28 2278.66 1019.28 2271.61 1030.53C2266.17 1027.48 2261.55 1028.67 2257.73 1034.1C2247.91 1031.15 2241.81 1037.01 2239.43 1051.69C2234.38 1050.74 2231.52 1053.26 2230.85 1059.27C2230.18 1065.28 2231.38 1070.28 2234.43 1074.28C2231.59 1076.41 2230.81 1080.24 2232.1 1085.76C2233.2 1090.45 2235.69 1093.16 2239.57 1093.87C2240.62 1101.79 2242.86 1106.93 2246.29 1109.32C2249.73 1111.7 2253.78 1112.32 2258.45 1111.18C2259.69 1115.47 2262.31 1117.42 2266.31 1117.04C2272.32 1116.47 2279.76 1110.75 2286.48 1113.32C2290.96 1115.04 2299.01 1114.99 2310.64 1113.18C2323.7 1107.36 2328.28 1097.78 2324.37 1084.44C2331.23 1078.24 2331.66 1071.42 2325.66 1063.99C2330.04 1052.36 2327.9 1043.11 2319.22 1036.25C2310.55 1029.38 2302.59 1026.48 2295.34 1027.52Z" />
				<path id="&lt;Path&gt;" class="shp11" d="M2409.2 913.99L2410.85 940.66L2404.93 986.07L2379.45 986.32C2383.23 967.19 2383.82 955.35 2381.22 950.81C2378.15 945.44 2374.36 937.15 2374.07 934.15C2373.42 927.32 2385.13 920.6 2409.2 913.99Z" />
				<path id="&lt;Path&gt;" class="shp1" d="M2376.29 928.71L2387.15 949.38C2390.37 955.45 2397.54 955.25 2400.38 948.95L2404.66 936.96C2392.46 926.56 2383.01 923.81 2376.29 928.71Z" />
				<path id="&lt;Path&gt;" class="shp0" d="M2298.39 889.19L2352.8 894.75C2355.58 895.03 2358.03 896.64 2359.37 899.04L2385.56 946.26C2388.92 952.32 2397.89 951.96 2400.74 945.65L2422.93 896.49C2424.06 893.98 2426.37 892.19 2429.11 891.68L2482.88 881.78C2489.78 880.51 2492.21 872.01 2486.98 867.4L2446.28 831.46C2444.21 829.63 2443.18 826.91 2443.54 824.2L2450.58 770.86C2451.48 764.01 2444.01 759.12 2437.94 762.58L2390.59 789.53C2388.18 790.91 2385.23 791.03 2382.72 789.85L2333.29 766.78C2326.95 763.83 2319.91 769.3 2321.38 776.05L2332.82 828.65C2333.4 831.32 2332.61 834.11 2330.69 836.11L2293.11 875.19C2288.29 880.21 2291.4 888.48 2298.39 889.19Z" />
				<path id="&lt;Path&gt;" class="shp11" d="M2204.75 1608.61C2195.2 1620.45 2189.23 1627.1 2186.85 1628.56C2183.28 1630.75 2188.44 1656.56 2198.17 1658.26C2201.82 1658.89 2204.57 1656.68 2206.41 1651.61L2205.12 1645.74L2225.6 1624.65L2204.75 1608.61Z" />
				<path id="&lt;Path&gt;" class="shp11" d="M2278.58 1613C2270.62 1625.96 2265.55 1633.32 2263.38 1635.07C2260.11 1637.7 2268.53 1662.64 2278.39 1663.08C2282.1 1663.24 2284.54 1660.69 2285.72 1655.43L2283.69 1649.78L2301.31 1626.24L2278.58 1613Z" />
				<path id="&lt;Path&gt;" class="shp21" d="M2264.09 1634.31C2268.67 1640.14 2272.2 1644.22 2274.7 1646.54C2277.92 1649.54 2281.59 1652.5 2285.72 1655.43C2290.39 1663.91 2293.37 1669.63 2294.65 1672.59C2298.91 1682.47 2303.7 1693.49 2303.01 1699.02C2302.79 1700.8 2298.8 1702.68 2295.47 1701.65C2281.63 1697.4 2246.23 1665.02 2241.76 1656.33C2238.33 1649.64 2245.77 1642.3 2264.09 1634.31Z" />
				<path id="&lt;Path&gt;" class="shp9" d="M2365.13 1338C2363.85 1334.4 2362.61 1331.07 2361.42 1327.94C2346.7 1331.15 2330.07 1334.69 2312.96 1338.33L2310.87 1401.04C2310.88 1397.81 2315.17 1431.15 2323.74 1501.06C2303.57 1549.63 2285.91 1588.21 2270.75 1616.81C2280.09 1628.46 2282.55 1630.11 2296.07 1638.05C2331.36 1595.74 2376.46 1521.16 2378.38 1508.28C2379.49 1500.88 2380.48 1381.17 2365.13 1338Z" />
				<path id="&lt;Path&gt;" class="shp19" d="M2233.71 1356.13C2238.21 1404.99 2248.21 1498.41 2247.38 1505.92C2244.86 1515.29 2202.19 1601.73 2194.18 1614.31C2200.54 1623.89 2209.91 1632.9 2220.49 1635.76C2222.58 1636.33 2294.67 1533.17 2298.67 1524.88C2303.2 1515.5 2310.74 1464.36 2310.87 1401.04L2312.96 1338.33C2284.45 1344.41 2258.24 1350.37 2233.71 1356.13Z" />
				<path id="&lt;Path&gt;" class="shp1" d="M2327.32 1133.4L2293.76 1138C2275.83 1138.44 2265.76 1138.66 2263.54 1138.66C2260.21 1138.66 2239.14 1261.06 2233.04 1307.12C2228.97 1337.83 2228.51 1355.9 2231.66 1361.34C2260.02 1367.72 2284.69 1369.98 2305.68 1368.12C2327.5 1366.18 2350.68 1359.33 2375.23 1347.55C2357.65 1289.89 2347.01 1251.85 2343.32 1233.42C2339.62 1214.99 2334.29 1181.65 2327.32 1133.4Z" />
				<path id="&lt;Path&gt;" class="shp4" d="M2408.68 985.13C2410.11 1045.97 2409.68 1078.71 2407.39 1083.36C2404.05 1090.13 2383.6 1117.52 2346.04 1165.52C2363.99 1240.6 2376.73 1291.11 2384.27 1317.04C2385.41 1320.96 2390.46 1346.26 2390.46 1348.73C2390.46 1354.2 2366.65 1361.14 2363.82 1360.73C2361.29 1360.36 2340.52 1253.22 2327.25 1200.79C2322.76 1183.03 2315.05 1166.24 2304.5 1151.26L2295.28 1138.15L2366.06 1067.21C2371.88 1014.56 2374.79 986.06 2374.79 981.69C2374.79 979.98 2405.24 978.69 2408.68 985.13Z" />
				<path id="&lt;Path&gt;" class="shp4" d="M2264.76 1138.5L2176.49 1048.56C2168.29 991.86 2163.9 962.45 2163.32 960.31C2162.46 957.17 2140.54 955.46 2131.71 954.6C2128.87 954.33 2133.19 1045.19 2137.41 1060.42C2140.74 1072.41 2164.64 1105.73 2209.12 1160.38C2217.09 1189.99 2220.12 1215.64 2218.2 1237.35C2213.42 1291.45 2200.52 1365.86 2202.83 1368.19C2217.18 1377.23 2272.23 1378.2 2275.72 1372.58C2301.37 1331.27 2297.72 1253.24 2264.76 1138.5Z" />
				<path id="&lt;Path&gt;" class="shp11" d="M2293.12 1121.69L2295.5 1139.36C2299.06 1156.33 2298.55 1166.45 2293.97 1169.72C2289.4 1172.99 2279.67 1162.63 2264.79 1138.64L2267.14 1093.87L2293.12 1121.69Z" />
				<path id="&lt;Path&gt;" class="shp1" d="M2266.38 1108.38C2272.05 1123.65 2285.55 1133.03 2295.14 1136.67L2293.12 1121.69L2267.14 1093.87L2266.38 1108.38Z" />
				<path id="&lt;Path&gt;" class="shp21" d="M2230.62 1063.44C2230.62 1070.26 2234.5 1075.79 2239.28 1075.79C2244.06 1075.79 2247.94 1070.26 2247.94 1063.44C2247.94 1056.62 2244.06 1051.09 2239.28 1051.09C2234.5 1051.09 2230.62 1056.62 2230.62 1063.44Z" />
				<path id="&lt;Path&gt;" class="shp21" d="M2256.6 1036.9C2256.6 1040.82 2261.32 1044 2267.14 1044C2272.96 1044 2277.67 1040.82 2277.67 1036.9C2277.67 1032.99 2272.96 1029.81 2267.14 1029.81C2261.32 1029.81 2256.6 1032.99 2256.6 1036.9Z" />
				<path id="&lt;Path&gt;" class="shp11" d="M2283 1046.83C2296.93 1042.04 2311.78 1051.29 2313.9 1065.65C2314.83 1071.89 2315.66 1079.74 2315.82 1088.32C2316.19 1108.95 2305.51 1129.04 2296.14 1129.04C2286.77 1129.04 2260.87 1115.68 2259.94 1086.38C2259.36 1068.29 2268.39 1051.86 2283 1046.83Z" />
				<path id="&lt;Path&gt;" class="shp11" d="M2266.84 1088.7C2266.84 1093.25 2263.82 1096.94 2260.1 1096.94C2256.38 1096.94 2253.36 1093.25 2253.36 1088.7C2253.36 1084.15 2256.38 1080.46 2260.1 1080.46C2263.82 1080.46 2266.84 1084.15 2266.84 1088.7Z" />
				<path id="&lt;Path&gt;" class="shp21" d="M2323.6 1036.57C2333.28 1044.23 2336.67 1055.88 2331.18 1062.59C2325.68 1069.29 2313.38 1068.51 2303.7 1060.84C2294.02 1053.18 2290.63 1041.53 2296.13 1034.82C2301.62 1028.12 2313.92 1028.9 2323.6 1036.57Z" />
				<path id="&lt;Path&gt;" class="shp21" d="M2298.29 1042.85C2298.29 1046.19 2294.27 1048.89 2289.31 1048.89C2284.34 1048.89 2280.32 1046.19 2280.32 1042.85C2280.32 1039.52 2284.34 1036.82 2289.31 1036.82C2294.27 1036.82 2298.29 1039.52 2298.29 1042.85Z" />
				<path id="&lt;Path&gt;" class="shp21" d="M2325.03 1068.5C2325.03 1072.78 2321.6 1076.25 2317.36 1076.25C2313.13 1076.25 2309.69 1072.78 2309.69 1068.5C2309.69 1064.21 2313.13 1060.74 2317.36 1060.74C2321.6 1060.74 2325.03 1064.21 2325.03 1068.5Z" />
				<path id="&lt;Path&gt;" class="shp11" d="M2381.13 940.5L2385.89 932.93C2391.4 928.07 2393.43 924.67 2391.98 922.73C2389.57 919.49 2384.17 921.8 2375.79 929.64C2374.85 936.67 2376.63 940.29 2381.13 940.5Z" />
				<path id="&lt;Path&gt;" class="shp11" d="M2410.85 940.66C2412.33 928.62 2412.93 922.42 2412.64 922.06C2410.25 919.07 2402.68 914.07 2399.88 915.2C2398.02 915.95 2399.23 919.53 2403.53 925.92C2400.84 926.48 2399.23 927.95 2398.68 930.32C2398.13 932.69 2402.19 936.13 2410.85 940.66Z" />
				<path id="&lt;Path&gt;" class="shp21" d="M2187.66 1627.89C2191.45 1634.26 2194.43 1638.76 2196.61 1641.38C2199.43 1644.76 2202.69 1648.17 2206.41 1651.61C2209.96 1660.61 2212.18 1666.67 2213.07 1669.77C2216.04 1680.11 2219.39 1692.6 2218 1698C2217.55 1699.73 2213.74 1703.04 2210.59 1701C2198.45 1693.09 2166.02 1656.07 2162.7 1646.88C2160.14 1639.81 2168.46 1633.48 2187.66 1627.89Z" />
			</g>
		</g>
	</g>
</svg>