<svg version="1.2" baseProfile="tiny-ps" xmlns="http://www.w3.org/2000/svg" viewBox="0 0 2475 1650" width="2475" height="1650">
	<title>20944787-ai</title>
	<defs>
		<linearGradient id="grd1" gradientUnits="userSpaceOnUse"  x1="172.951" y1="156.397" x2="2291.852" y2="156.397">
			<stop offset="0" stop-color="#dae3fe"  />
			<stop offset="1" stop-color="#e9effd"  />
		</linearGradient>
		<linearGradient id="grd2" gradientUnits="userSpaceOnUse"  x1="1291.339" y1="-239.948" x2="822.056" y2="329.519">
			<stop offset="0" stop-color="#ff928e"  />
			<stop offset="1" stop-color="#feb3b1"  />
		</linearGradient>
		<linearGradient id="grd3" gradientUnits="userSpaceOnUse"  x1="1173.026" y1="-433.857" x2="667.744" y2="179.292">
			<stop offset="0" stop-color="#ff928e"  />
			<stop offset="1" stop-color="#feb3b1"  />
		</linearGradient>
		<linearGradient id="grd4" gradientUnits="userSpaceOnUse"  x1="1409.167" y1="-244.232" x2="903.888" y2="368.914">
			<stop offset="0" stop-color="#ff928e"  />
			<stop offset="1" stop-color="#feb3b1"  />
		</linearGradient>
		<linearGradient id="grd5" gradientUnits="userSpaceOnUse"  x1="1242.334" y1="-389.841" x2="737.056" y2="223.303">
			<stop offset="0" stop-color="#ff928e"  />
			<stop offset="1" stop-color="#feb3b1"  />
		</linearGradient>
		<linearGradient id="grd6" gradientUnits="userSpaceOnUse"  x1="1297.876" y1="-327.754" x2="792.596" y2="285.393">
			<stop offset="0" stop-color="#ff928e"  />
			<stop offset="1" stop-color="#feb3b1"  />
		</linearGradient>
		<linearGradient id="grd7" gradientUnits="userSpaceOnUse"  x1="1171.702" y1="-448.863" x2="661.557" y2="170.187">
			<stop offset="0" stop-color="#ff928e"  />
			<stop offset="1" stop-color="#feb3b1"  />
		</linearGradient>
		<linearGradient id="grd8" gradientUnits="userSpaceOnUse"  x1="1404.605" y1="-252.638" x2="894.462" y2="366.411">
			<stop offset="0" stop-color="#ff928e"  />
			<stop offset="1" stop-color="#feb3b1"  />
		</linearGradient>
		<linearGradient id="grd9" gradientUnits="userSpaceOnUse"  x1="1315.391" y1="-335.22" x2="805.248" y2="283.829">
			<stop offset="0" stop-color="#ff928e"  />
			<stop offset="1" stop-color="#feb3b1"  />
		</linearGradient>
		<linearGradient id="grd10" gradientUnits="userSpaceOnUse"  x1="1242.907" y1="-378.87" x2="732.761" y2="240.182">
			<stop offset="0" stop-color="#ff928e"  />
			<stop offset="1" stop-color="#feb3b1"  />
		</linearGradient>
		<linearGradient id="grd11" gradientUnits="userSpaceOnUse"  x1="1211.908" y1="-418.549" x2="699.963" y2="202.687">
			<stop offset="0" stop-color="#ff928e"  />
			<stop offset="1" stop-color="#feb3b1"  />
		</linearGradient>
		<linearGradient id="grd12" gradientUnits="userSpaceOnUse"  x1="1381.095" y1="-288.189" x2="869.149" y2="333.047">
			<stop offset="0" stop-color="#ff928e"  />
			<stop offset="1" stop-color="#feb3b1"  />
		</linearGradient>
		<linearGradient id="grd13" gradientUnits="userSpaceOnUse"  x1="1372.44" y1="-290.412" x2="860.5" y2="330.818">
			<stop offset="0" stop-color="#ff928e"  />
			<stop offset="1" stop-color="#feb3b1"  />
		</linearGradient>
		<linearGradient id="grd14" gradientUnits="userSpaceOnUse"  x1="1199.868" y1="-439.696" x2="687.922" y2="181.54">
			<stop offset="0" stop-color="#ff928e"  />
			<stop offset="1" stop-color="#feb3b1"  />
		</linearGradient>
		<linearGradient id="grd15" gradientUnits="userSpaceOnUse"  x1="2319.762" y1="1078.506" x2="2251.05" y2="1078.506">
			<stop offset="0" stop-color="#ff928e"  />
			<stop offset="1" stop-color="#feb3b1"  />
		</linearGradient>
		<linearGradient id="grd16" gradientUnits="userSpaceOnUse"  x1="2249.523" y1="1447.307" x2="2199.155" y2="1447.307">
			<stop offset="0" stop-color="#09005d"  />
			<stop offset="1" stop-color="#1a0f91"  />
		</linearGradient>
		<linearGradient id="grd17" gradientUnits="userSpaceOnUse"  x1="2304.131" y1="1216.498" x2="2322.959" y2="1089.542">
			<stop offset="0" stop-color="#4042e2"  />
			<stop offset="1" stop-color="#4f52ff"  />
		</linearGradient>
		<linearGradient id="grd18" gradientUnits="userSpaceOnUse"  x1="2223.427" y1="1412.401" x2="2233.222" y2="1497.883">
			<stop offset="0" stop-color="#ff928e"  />
			<stop offset="1" stop-color="#feb3b1"  />
		</linearGradient>
		<linearGradient id="grd19" gradientUnits="userSpaceOnUse"  x1="2225.562" y1="1140.8" x2="2248.865" y2="983.671">
			<stop offset="0" stop-color="#4042e2"  />
			<stop offset="1" stop-color="#4f52ff"  />
		</linearGradient>
		<linearGradient id="grd20" gradientUnits="userSpaceOnUse"  x1="2172.217" y1="1450.873" x2="2098.05" y2="1450.873">
			<stop offset="0" stop-color="#09005d"  />
			<stop offset="1" stop-color="#1a0f91"  />
		</linearGradient>
		<linearGradient id="grd21" gradientUnits="userSpaceOnUse"  x1="2143.285" y1="1421.485" x2="2153.044" y2="1506.654">
			<stop offset="0" stop-color="#ff928e"  />
			<stop offset="1" stop-color="#feb3b1"  />
		</linearGradient>
		<linearGradient id="grd22" gradientUnits="userSpaceOnUse"  x1="1930.273" y1="1102.014" x2="2241.476" y2="1584.916">
			<stop offset="0" stop-color="#09005d"  />
			<stop offset="1" stop-color="#1a0f91"  />
		</linearGradient>
		<linearGradient id="grd23" gradientUnits="userSpaceOnUse"  x1="3298.492" y1="1868.94" x2="3722.099" y2="2124.156">
			<stop offset="0" stop-color="#fe7062"  />
			<stop offset="1" stop-color="#ff928e"  />
		</linearGradient>
		<linearGradient id="grd24" gradientUnits="userSpaceOnUse"  x1="2186.224" y1="852.721" x2="2220.45" y2="1000.625">
			<stop offset="0" stop-color="#ff928e"  />
			<stop offset="0.236" stop-color="#ff9a96"  />
			<stop offset="1" stop-color="#feb3b1"  />
		</linearGradient>
		<linearGradient id="grd25" gradientUnits="userSpaceOnUse"  x1="2190.279" y1="831.379" x2="2173.599" y2="929.532">
			<stop offset="0" stop-color="#ff928e"  />
			<stop offset="1" stop-color="#feb3b1"  />
		</linearGradient>
		<linearGradient id="grd26" gradientUnits="userSpaceOnUse"  x1="2277.965" y1="846.664" x2="2225.123" y2="790.53">
			<stop offset="0" stop-color="#09005d"  />
			<stop offset="1" stop-color="#1a0f91"  />
		</linearGradient>
		<linearGradient id="grd27" gradientUnits="userSpaceOnUse"  x1="2249.872" y1="932.193" x2="2252.469" y2="871.844">
			<stop offset="0" stop-color="#ff928e"  />
			<stop offset="1" stop-color="#feb3b1"  />
		</linearGradient>
		<linearGradient id="grd28" gradientUnits="userSpaceOnUse"  x1="2508.27" y1="796.185" x2="2232.296" y2="1047.519">
			<stop offset="0" stop-color="#e1473d"  />
			<stop offset="1" stop-color="#e9605a"  />
		</linearGradient>
		<linearGradient id="grd29" gradientUnits="userSpaceOnUse"  x1="3479.514" y1="1700.754" x2="3961.27" y2="1991.005">
			<stop offset="0" stop-color="#fe7062"  />
			<stop offset="1" stop-color="#ff928e"  />
		</linearGradient>
		<linearGradient id="grd30" gradientUnits="userSpaceOnUse"  x1="3372.595" y1="1997.316" x2="3261.055" y2="1918.689">
			<stop offset="0" stop-color="#ff928e"  />
			<stop offset="1" stop-color="#feb3b1"  />
		</linearGradient>
		<linearGradient id="grd31" gradientUnits="userSpaceOnUse"  x1="3491.11" y1="1979.695" x2="3372.292" y2="1895.938">
			<stop offset="0" stop-color="#ff928e"  />
			<stop offset="1" stop-color="#feb3b1"  />
		</linearGradient>
		<linearGradient id="grd32" gradientUnits="userSpaceOnUse"  x1="2035.469" y1="1176.229" x2="2109.957" y2="1153.399">
			<stop offset="0" stop-color="#09005d"  />
			<stop offset="1" stop-color="#1a0f91"  />
		</linearGradient>
		<linearGradient id="grd33" gradientUnits="userSpaceOnUse"  x1="2164.5" y1="1056.905" x2="2112.337" y2="1193.632">
			<stop offset="0" stop-color="#ff928e"  />
			<stop offset="1" stop-color="#feb3b1"  />
		</linearGradient>
		<linearGradient id="grd34" gradientUnits="userSpaceOnUse"  x1="2024.39" y1="1093.028" x2="1984.797" y2="1196.806">
			<stop offset="0" stop-color="#ff928e"  />
			<stop offset="1" stop-color="#feb3b1"  />
		</linearGradient>
		<linearGradient id="grd35" gradientUnits="userSpaceOnUse"  x1="1995.707" y1="1402.213" x2="1995.32" y2="1484.572">
			<stop offset="0" stop-color="#09005d"  />
			<stop offset="1" stop-color="#1a0f91"  />
		</linearGradient>
		<linearGradient id="grd36" gradientUnits="userSpaceOnUse"  x1="2040.716" y1="1445.356" x2="2021.829" y2="1273.53">
			<stop offset="0" stop-color="#ff928e"  />
			<stop offset="1" stop-color="#feb3b1"  />
		</linearGradient>
		<linearGradient id="grd37" gradientUnits="userSpaceOnUse"  x1="2038.123" y1="1402.397" x2="2037.735" y2="1484.756">
			<stop offset="0" stop-color="#09005d"  />
			<stop offset="1" stop-color="#1a0f91"  />
		</linearGradient>
		<linearGradient id="grd38" gradientUnits="userSpaceOnUse"  x1="2083.133" y1="1445.356" x2="2064.246" y2="1273.53">
			<stop offset="0" stop-color="#ff928e"  />
			<stop offset="1" stop-color="#feb3b1"  />
		</linearGradient>
		<linearGradient id="grd39" gradientUnits="userSpaceOnUse"  x1="2067.269" y1="1266.945" x2="1990.38" y2="1272.225">
			<stop offset="0" stop-color="#09005d"  />
			<stop offset="1" stop-color="#1a0f91"  />
		</linearGradient>
		<linearGradient id="grd40" gradientUnits="userSpaceOnUse"  x1="2052.388" y1="1252.949" x2="2033.117" y2="1283.401">
			<stop offset="0" stop-color="#09005d"  />
			<stop offset="1" stop-color="#1a0f91"  />
		</linearGradient>
		<linearGradient id="grd41" gradientUnits="userSpaceOnUse"  x1="1978.766" y1="1339.676" x2="2003.562" y2="1493.528">
			<stop offset="0" stop-color="#fe7062"  />
			<stop offset="1" stop-color="#ff928e"  />
		</linearGradient>
		<linearGradient id="grd42" gradientUnits="userSpaceOnUse"  x1="2050.015" y1="1140.313" x2="2047.642" y2="1252.458">
			<stop offset="0" stop-color="#ff928e"  />
			<stop offset="1" stop-color="#feb3b1"  />
		</linearGradient>
		<linearGradient id="grd43" gradientUnits="userSpaceOnUse"  x1="2003.525" y1="816.008" x2="1997.809" y2="891.163">
			<stop offset="0" stop-color="#ff928e"  />
			<stop offset="1" stop-color="#feb3b1"  />
		</linearGradient>
		<linearGradient id="grd44" gradientUnits="userSpaceOnUse"  x1="2032.69" y1="1163.651" x2="2102.594" y2="1134.224">
			<stop offset="0" stop-color="#09005d"  />
			<stop offset="1" stop-color="#1a0f91"  />
		</linearGradient>
		<linearGradient id="grd45" gradientUnits="userSpaceOnUse"  x1="2062.555" y1="812.261" x2="2056.551" y2="891.21">
			<stop offset="0" stop-color="#ff928e"  />
			<stop offset="1" stop-color="#feb3b1"  />
		</linearGradient>
		<linearGradient id="grd46" gradientUnits="userSpaceOnUse"  x1="343.157" y1="1129.06" x2="464.276" y2="1162.39">
			<stop offset="0" stop-color="#09005d"  />
			<stop offset="1" stop-color="#1a0f91"  />
		</linearGradient>
		<linearGradient id="grd47" gradientUnits="userSpaceOnUse"  x1="527.185" y1="1168.137" x2="635.852" y2="1139.471">
			<stop offset="0" stop-color="#ff928e"  />
			<stop offset="1" stop-color="#feb3b1"  />
		</linearGradient>
		<linearGradient id="grd48" gradientUnits="userSpaceOnUse"  x1="526.17" y1="1155.249" x2="614.771" y2="1131.876">
			<stop offset="0" stop-color="#ff928e"  />
			<stop offset="1" stop-color="#feb3b1"  />
		</linearGradient>
		<linearGradient id="grd49" gradientUnits="userSpaceOnUse"  x1="726.367" y1="1286.829" x2="697.119" y2="1156.98">
			<stop offset="0" stop-color="#ff928e"  />
			<stop offset="1" stop-color="#feb3b1"  />
		</linearGradient>
		<linearGradient id="grd50" gradientUnits="userSpaceOnUse"  x1="742.263" y1="1278.752" x2="716.397" y2="1163.916">
			<stop offset="0" stop-color="#ff928e"  />
			<stop offset="1" stop-color="#feb3b1"  />
		</linearGradient>
		<linearGradient id="grd51" gradientUnits="userSpaceOnUse"  x1="694.969" y1="1401.052" x2="716.341" y2="1401.052">
			<stop offset="0" stop-color="#e1473d"  />
			<stop offset="1" stop-color="#e9605a"  />
		</linearGradient>
		<linearGradient id="grd52" gradientUnits="userSpaceOnUse"  x1="682.485" y1="1276.109" x2="715.565" y2="1276.109">
			<stop offset="0" stop-color="#ff928e"  />
			<stop offset="1" stop-color="#feb3b1"  />
		</linearGradient>
		<linearGradient id="grd53" gradientUnits="userSpaceOnUse"  x1="670.383" y1="1401.052" x2="649.011" y2="1401.052">
			<stop offset="0" stop-color="#e1473d"  />
			<stop offset="1" stop-color="#e9605a"  />
		</linearGradient>
		<linearGradient id="grd54" gradientUnits="userSpaceOnUse"  x1="682.867" y1="1276.109" x2="649.787" y2="1276.109">
			<stop offset="0" stop-color="#ff928e"  />
			<stop offset="1" stop-color="#feb3b1"  />
		</linearGradient>
		<linearGradient id="grd55" gradientUnits="userSpaceOnUse"  x1="553.774" y1="1477.874" x2="432.468" y2="1717.791">
			<stop offset="0" stop-color="#fe7062"  />
			<stop offset="1" stop-color="#ff928e"  />
		</linearGradient>
		<linearGradient id="grd56" gradientUnits="userSpaceOnUse"  x1="601.429" y1="1554.569" x2="449.975" y2="1807.583">
			<stop offset="0" stop-color="#fe7062"  />
			<stop offset="1" stop-color="#ff928e"  />
		</linearGradient>
		<linearGradient id="grd57" gradientUnits="userSpaceOnUse"  x1="894.688" y1="944.268" x2="719.236" y2="1208.796">
			<stop offset="0" stop-color="#e1473d"  />
			<stop offset="1" stop-color="#e9605a"  />
		</linearGradient>
		<linearGradient id="grd58" gradientUnits="userSpaceOnUse"  x1="690.171" y1="1091.945" x2="714.06" y2="1211.388">
			<stop offset="0" stop-color="#ff928e"  />
			<stop offset="1" stop-color="#feb3b1"  />
		</linearGradient>
		<linearGradient id="grd59" gradientUnits="userSpaceOnUse"  x1="615.44" y1="657.991" x2="618.176" y2="736.149">
			<stop offset="0" stop-color="#ff928e"  />
			<stop offset="1" stop-color="#feb3b1"  />
		</linearGradient>
		<linearGradient id="grd60" gradientUnits="userSpaceOnUse"  x1="699.401" y1="638.852" x2="690.65" y2="704.344">
			<stop offset="0" stop-color="#ff928e"  />
			<stop offset="1" stop-color="#feb3b1"  />
		</linearGradient>
		<linearGradient id="grd61" gradientUnits="userSpaceOnUse"  x1="395.452" y1="1045.07" x2="507.091" y2="1075.791">
			<stop offset="0" stop-color="#09005d"  />
			<stop offset="1" stop-color="#1a0f91"  />
		</linearGradient>
		<linearGradient id="grd62" gradientUnits="userSpaceOnUse"  x1="1841.104" y1="1349.467" x2="1758.907" y2="1720.408">
			<stop offset="0" stop-color="#09005d"  />
			<stop offset="1" stop-color="#1a0f91"  />
		</linearGradient>
		<linearGradient id="grd63" gradientUnits="userSpaceOnUse"  x1="1953.401" y1="1423.012" x2="1875.564" y2="1774.278">
			<stop offset="0" stop-color="#09005d"  />
			<stop offset="1" stop-color="#1a0f91"  />
		</linearGradient>
		<linearGradient id="grd64" gradientUnits="userSpaceOnUse"  x1="1948.32" y1="1439.881" x2="1948.32" y2="1946.931">
			<stop offset="0" stop-color="#4042e2"  />
			<stop offset="1" stop-color="#4f52ff"  />
		</linearGradient>
		<linearGradient id="grd65" gradientUnits="userSpaceOnUse"  x1="1816.831" y1="1073.877" x2="1843.835" y2="1694.948">
			<stop offset="0" stop-color="#4042e2"  />
			<stop offset="1" stop-color="#4f52ff"  />
		</linearGradient>
		<linearGradient id="grd66" gradientUnits="userSpaceOnUse"  x1="979.287" y1="1010.849" x2="1135.302" y2="1352.884">
			<stop offset="0" stop-color="#4042e2"  />
			<stop offset="1" stop-color="#4f52ff"  />
		</linearGradient>
		<linearGradient id="grd67" gradientUnits="userSpaceOnUse"  x1="690.267" y1="524.875" x2="1202.569" y2="366.947">
			<stop offset="0" stop-color="#e92556"  />
			<stop offset="1" stop-color="#f9c342"  />
		</linearGradient>
		<linearGradient id="grd68" gradientUnits="userSpaceOnUse"  x1="1346.592" y1="364.04" x2="1829.219" y2="250.481">
			<stop offset="0" stop-color="#fe7062"  />
			<stop offset="1" stop-color="#ff928e"  />
		</linearGradient>
		<linearGradient id="grd69" gradientUnits="userSpaceOnUse"  x1="798.613" y1="1018.043" x2="1023.415" y2="816.496">
			<stop offset="0" stop-color="#a22b25"  />
			<stop offset="1" stop-color="#c0423c"  />
		</linearGradient>
		<linearGradient id="grd70" gradientUnits="userSpaceOnUse"  x1="561.266" y1="916.151" x2="886.588" y2="624.483">
			<stop offset="0" stop-color="#a22b25"  />
			<stop offset="1" stop-color="#c0423c"  />
		</linearGradient>
		<linearGradient id="grd71" gradientUnits="userSpaceOnUse"  x1="879.639" y1="1368.57" x2="522.604" y2="2185.421">
			<stop offset="0" stop-color="#e1473d"  />
			<stop offset="1" stop-color="#e9605a"  />
		</linearGradient>
		<linearGradient id="grd72" gradientUnits="userSpaceOnUse"  x1="1682.002" y1="1351.211" x2="1363.413" y2="1637.332">
			<stop offset="0" stop-color="#4042e2"  />
			<stop offset="1" stop-color="#4f52ff"  />
		</linearGradient>
		<linearGradient id="grd73" gradientUnits="userSpaceOnUse"  x1="1911.7" y1="384.132" x2="1399.397" y2="226.204">
			<stop offset="0" stop-color="#e92556"  />
			<stop offset="1" stop-color="#f9c342"  />
		</linearGradient>
		<linearGradient id="grd74" gradientUnits="userSpaceOnUse"  x1="110.985" y1="1083.595" x2="1629.841" y2="288.678">
			<stop offset="0" stop-color="#fe7062"  />
			<stop offset="1" stop-color="#ff928e"  />
		</linearGradient>
		<linearGradient id="grd75" gradientUnits="userSpaceOnUse"  x1="1577.411" y1="970.53" x2="1469.137" y2="714.399">
			<stop offset="0" stop-color="#a22b25"  />
			<stop offset="1" stop-color="#c0423c"  />
		</linearGradient>
		<linearGradient id="grd76" gradientUnits="userSpaceOnUse"  x1="1820.174" y1="958.897" x2="1679.377" y2="625.827">
			<stop offset="0" stop-color="#a22b25"  />
			<stop offset="1" stop-color="#c0423c"  />
		</linearGradient>
		<linearGradient id="grd77" gradientUnits="userSpaceOnUse"  x1="1497.074" y1="696.934" x2="1330.355" y2="302.546">
			<stop offset="0" stop-color="#e1473d"  />
			<stop offset="1" stop-color="#e9605a"  />
		</linearGradient>
		<linearGradient id="grd78" gradientUnits="userSpaceOnUse"  x1="1912.929" y1="1102.702" x2="1379.716" y2="1465.396">
			<stop offset="0" stop-color="#4042e2"  />
			<stop offset="1" stop-color="#4f52ff"  />
		</linearGradient>
		<linearGradient id="grd79" gradientUnits="userSpaceOnUse"  x1="455.007" y1="695.156" x2="334.902" y2="848.153">
			<stop offset="0" stop-color="#09005d"  />
			<stop offset="1" stop-color="#1a0f91"  />
		</linearGradient>
		<linearGradient id="grd80" gradientUnits="userSpaceOnUse"  x1="309.853" y1="1467.752" x2="274.269" y2="1467.752">
			<stop offset="0" stop-color="#4042e2"  />
			<stop offset="1" stop-color="#4f52ff"  />
		</linearGradient>
		<linearGradient id="grd81" gradientUnits="userSpaceOnUse"  x1="493.554" y1="1627.864" x2="440.601" y2="1008.982">
			<stop offset="0" stop-color="#ff928e"  />
			<stop offset="1" stop-color="#feb3b1"  />
		</linearGradient>
		<linearGradient id="grd82" gradientUnits="userSpaceOnUse"  x1="479.71" y1="1453.802" x2="422.519" y2="1453.802">
			<stop offset="0" stop-color="#4042e2"  />
			<stop offset="1" stop-color="#4f52ff"  />
		</linearGradient>
		<linearGradient id="grd83" gradientUnits="userSpaceOnUse"  x1="425.258" y1="1628.017" x2="374.388" y2="1033.478">
			<stop offset="0" stop-color="#ff928e"  />
			<stop offset="1" stop-color="#feb3b1"  />
		</linearGradient>
		<linearGradient id="grd84" gradientUnits="userSpaceOnUse"  x1="386.685" y1="1301.39" x2="259.064" y2="1570.428">
			<stop offset="0" stop-color="#fe7062"  />
			<stop offset="1" stop-color="#ff928e"  />
		</linearGradient>
		<linearGradient id="grd85" gradientUnits="userSpaceOnUse"  x1="229.327" y1="1076.058" x2="358.329" y2="1282.46">
			<stop offset="0" stop-color="#09005d"  />
			<stop offset="1" stop-color="#1a0f91"  />
		</linearGradient>
		<linearGradient id="grd86" gradientUnits="userSpaceOnUse"  x1="502.421" y1="877.222" x2="475.336" y2="998.139">
			<stop offset="0" stop-color="#ff928e"  />
			<stop offset="1" stop-color="#feb3b1"  />
		</linearGradient>
		<linearGradient id="grd87" gradientUnits="userSpaceOnUse"  x1="596.711" y1="645.555" x2="559.836" y2="707.1">
			<stop offset="0" stop-color="#ff928e"  />
			<stop offset="1" stop-color="#feb3b1"  />
		</linearGradient>
		<linearGradient id="grd88" gradientUnits="userSpaceOnUse"  x1="508.395" y1="795.718" x2="430.582" y2="862.565">
			<stop offset="0" stop-color="#09005d"  />
			<stop offset="1" stop-color="#1a0f91"  />
		</linearGradient>
		<linearGradient id="grd89" gradientUnits="userSpaceOnUse"  x1="567.369" y1="623.091" x2="528.314" y2="688.276">
			<stop offset="0" stop-color="#ff928e"  />
			<stop offset="1" stop-color="#feb3b1"  />
		</linearGradient>
		<linearGradient id="grd90" gradientUnits="userSpaceOnUse"  x1="426.502" y1="736.089" x2="459.424" y2="859.917">
			<stop offset="0" stop-color="#ff928e"  />
			<stop offset="1" stop-color="#feb3b1"  />
		</linearGradient>
		<linearGradient id="grd91" gradientUnits="userSpaceOnUse"  x1="459.859" y1="831.272" x2="484.898" y2="925.45">
			<stop offset="0" stop-color="#ff928e"  />
			<stop offset="1" stop-color="#feb3b1"  />
		</linearGradient>
	</defs>
	<style>
		tspan { white-space:pre }
		.shp0 { fill: url(#grd1) } 
		.shp1 { fill: url(#grd2) } 
		.shp2 { fill: url(#grd3) } 
		.shp3 { fill: url(#grd4) } 
		.shp4 { fill: url(#grd5) } 
		.shp5 { fill: url(#grd6) } 
		.shp6 { fill: url(#grd7) } 
		.shp7 { fill: url(#grd8) } 
		.shp8 { fill: url(#grd9) } 
		.shp9 { fill: url(#grd10) } 
		.shp10 { fill: url(#grd11) } 
		.shp11 { fill: url(#grd12) } 
		.shp12 { fill: url(#grd13) } 
		.shp13 { fill: url(#grd14) } 
		.shp14 { fill: #bdd0fb } 
		.shp15 { fill: #91b3fa } 
		.shp16 { fill: #7d97f4 } 
		.shp17 { fill: url(#grd15) } 
		.shp18 { fill: url(#grd16) } 
		.shp19 { fill: url(#grd17) } 
		.shp20 { fill: url(#grd18) } 
		.shp21 { fill: url(#grd19) } 
		.shp22 { fill: url(#grd20) } 
		.shp23 { fill: url(#grd21) } 
		.shp24 { fill: url(#grd22) } 
		.shp25 { fill: url(#grd23) } 
		.shp26 { fill: url(#grd24) } 
		.shp27 { fill: url(#grd25) } 
		.shp28 { fill: url(#grd26) } 
		.shp29 { fill: url(#grd27) } 
		.shp30 { fill: url(#grd28) } 
		.shp31 { fill: url(#grd29) } 
		.shp32 { fill: url(#grd30) } 
		.shp33 { fill: url(#grd31) } 
		.shp34 { fill: url(#grd32) } 
		.shp35 { fill: url(#grd33) } 
		.shp36 { fill: url(#grd34) } 
		.shp37 { fill: url(#grd35) } 
		.shp38 { fill: url(#grd36) } 
		.shp39 { fill: url(#grd37) } 
		.shp40 { fill: url(#grd38) } 
		.shp41 { fill: url(#grd39) } 
		.shp42 { fill: url(#grd40) } 
		.shp43 { fill: url(#grd41) } 
		.shp44 { fill: url(#grd42) } 
		.shp45 { fill: url(#grd43) } 
		.shp46 { fill: url(#grd44) } 
		.shp47 { fill: url(#grd45) } 
		.shp48 { fill: url(#grd46) } 
		.shp49 { fill: url(#grd47) } 
		.shp50 { fill: url(#grd48) } 
		.shp51 { fill: url(#grd49) } 
		.shp52 { fill: url(#grd50) } 
		.shp53 { fill: url(#grd51) } 
		.shp54 { fill: url(#grd52) } 
		.shp55 { fill: url(#grd53) } 
		.shp56 { fill: url(#grd54) } 
		.shp57 { fill: url(#grd55) } 
		.shp58 { fill: url(#grd56) } 
		.shp59 { fill: url(#grd57) } 
		.shp60 { fill: url(#grd58) } 
		.shp61 { fill: url(#grd59) } 
		.shp62 { fill: url(#grd60) } 
		.shp63 { fill: url(#grd61) } 
		.shp64 { fill: url(#grd62) } 
		.shp65 { fill: url(#grd63) } 
		.shp66 { fill: url(#grd64) } 
		.shp67 { fill: url(#grd65) } 
		.shp68 { fill: url(#grd66) } 
		.shp69 { fill: url(#grd67) } 
		.shp70 { fill: url(#grd68) } 
		.shp71 { fill: url(#grd69) } 
		.shp72 { fill: url(#grd70) } 
		.shp73 { fill: url(#grd71) } 
		.shp74 { opacity: 0.478;fill: #ffffff } 
		.shp75 { fill: url(#grd72) } 
		.shp76 { fill: url(#grd73) } 
		.shp77 { fill: url(#grd74) } 
		.shp78 { fill: url(#grd75) } 
		.shp79 { fill: url(#grd76) } 
		.shp80 { fill: url(#grd77) } 
		.shp81 { opacity: 0.522;fill: #ffffff } 
		.shp82 { fill: url(#grd78) } 
		.shp83 { fill: #ffffff } 
		.shp84 { fill: url(#grd79) } 
		.shp85 { fill: url(#grd80) } 
		.shp86 { fill: url(#grd81) } 
		.shp87 { fill: url(#grd82) } 
		.shp88 { fill: url(#grd83) } 
		.shp89 { fill: url(#grd84) } 
		.shp90 { fill: url(#grd85) } 
		.shp91 { fill: url(#grd86) } 
		.shp92 { fill: url(#grd87) } 
		.shp93 { fill: url(#grd88) } 
		.shp94 { fill: url(#grd89) } 
		.shp95 { fill: url(#grd90) } 
		.shp96 { fill: url(#grd91) } 
	</style>
	<g id="Illustration">
		<path id="&lt;Path&gt;" class="shp0" d="M2226.9 813.59C2184.52 739.06 2181.1 675.12 2203.01 593.74C2227.22 503.87 2250.6 389.09 2192.67 307.35C2141.63 235.31 2061.4 184.24 1975.45 165.44C1866.33 141.57 1774.96 180.2 1687.46 244.33C1567.36 332.37 1359.72 404.17 1211.74 365.23C1082.47 331.2 986.92 217.81 850.67 195.84C756.71 180.69 616.63 204.82 586.4 310.86C578.47 338.67 578.78 368.98 565.95 394.89C536.24 454.84 460.98 449.13 404.62 454.55C343.68 460.4 279.83 489.48 232.64 528.04C201.28 553.67 175.94 588.45 168.3 628.23C159.32 674.95 179.13 727.72 222.02 751.07C285.45 785.59 354.16 773.91 371.67 859.05C390.34 949.81 381.67 1040.96 411.41 1131.25C487.31 1361.6 732.22 1444.85 957.99 1401.01C1135.13 1366.61 1287.45 1254.74 1467.65 1230.54C1541.6 1220.61 1620.37 1226.96 1688.23 1259.78C1753.12 1291.17 1806.02 1347.61 1877.22 1365.69C1920.83 1376.76 1966.77 1371.57 2011.31 1365.15C2090.57 1353.7 2174.78 1335.69 2230.27 1277.94C2270.22 1236.37 2289.8 1179.34 2301.76 1122.94C2328.29 997.73 2287.15 919.55 2226.9 813.59Z" />
		<g id="&lt;Group&gt;">
			<path id="&lt;Path&gt;" class="shp1" d="M669.11 309.66C721.33 332.76 744.94 393.82 721.84 446.05C698.74 498.27 637.68 521.88 585.45 498.78C533.23 475.68 509.62 414.62 532.72 362.39C555.82 310.17 616.89 286.56 669.11 309.66Z" />
			<g id="&lt;Group&gt;">
				<g id="&lt;Group&gt;">
					<g id="&lt;Group&gt;">
						<path id="&lt;Path&gt;" class="shp2" d="M511.75 339.76C515.61 341.47 517.35 345.98 515.65 349.84L514.99 351.32C513.29 355.18 508.77 356.92 504.92 355.21L458.81 334.82C454.95 333.11 453.2 328.6 454.91 324.74L455.56 323.26C457.27 319.41 461.78 317.66 465.64 319.37L511.75 339.76Z" />
						<path id="&lt;Path&gt;" class="shp3" d="M800.15 467.34C804.01 469.04 805.75 473.56 804.05 477.41L803.39 478.89C801.69 482.75 797.17 484.49 793.32 482.79L747.21 462.39C743.35 460.68 741.6 456.17 743.31 452.31L743.96 450.84C745.67 446.98 750.18 445.23 754.04 446.94L800.15 467.34Z" />
					</g>
					<g id="&lt;Group&gt;">
						<path id="&lt;Path&gt;" class="shp4" d="M707.29 227.16C711.15 228.87 712.89 233.38 711.19 237.24L690.79 283.35C689.08 287.21 684.57 288.95 680.71 287.25L679.24 286.59C675.38 284.89 673.63 280.37 675.34 276.52L695.74 230.41C697.44 226.55 701.96 224.8 705.81 226.51L707.29 227.16Z" />
						<path id="&lt;Path&gt;" class="shp5" d="M578.96 517.28C582.82 518.99 584.56 523.5 582.86 527.36L562.46 573.47C560.75 577.32 556.24 579.07 552.38 577.36L550.9 576.71C547.05 575 545.3 570.49 547.01 566.63L567.41 520.52C569.11 516.66 573.62 514.92 577.48 516.63L578.96 517.28Z" />
					</g>
				</g>
				<g id="&lt;Group&gt;">
					<path id="&lt;Path&gt;" class="shp6" d="M519.18 244.66L518.79 244.93C515.33 247.34 514.48 252.11 516.9 255.57L545.87 297.07C548.28 300.53 553.04 301.37 556.5 298.96L556.9 298.69C560.36 296.27 561.2 291.51 558.79 288.05L529.82 246.55C527.4 243.09 522.64 242.24 519.18 244.66Z" />
					<path id="&lt;Path&gt;" class="shp7" d="M700.38 504.24L699.99 504.51C696.53 506.93 695.68 511.69 698.09 515.15L727.06 556.65C729.48 560.11 734.24 560.96 737.7 558.54L738.09 558.27C741.55 555.86 742.4 551.09 739.98 547.63L711.01 506.13C708.6 502.67 703.84 501.83 700.38 504.24Z" />
					<path id="&lt;Path&gt;" class="shp8" d="M774.48 290.06L732.97 319.03C729.51 321.44 728.67 326.2 731.08 329.66L731.35 330.05C733.77 333.51 738.53 334.36 741.99 331.95L783.49 302.98C786.95 300.56 787.8 295.8 785.39 292.34L785.11 291.95C782.7 288.49 777.94 287.64 774.48 290.06Z" />
					<path id="&lt;Path&gt;" class="shp9" d="M514.89 471.25L473.39 500.22C469.93 502.64 469.08 507.4 471.5 510.86L471.77 511.25C474.18 514.71 478.95 515.56 482.41 513.14L523.91 484.17C527.37 481.76 528.22 477 525.8 473.54L525.53 473.15C523.11 469.69 518.35 468.84 514.89 471.25Z" />
				</g>
				<g id="&lt;Group&gt;">
					<path id="&lt;Path&gt;" class="shp10" d="M445.35 417.3C441.17 417.85 438.21 421.68 438.75 425.86L438.82 426.33C439.36 430.52 443.19 433.47 447.37 432.93L497.57 426.45C501.75 425.91 504.71 422.08 504.17 417.89L504.1 417.42C503.56 413.23 499.73 410.28 495.55 410.82L445.35 417.3Z" />
					<path id="&lt;Path&gt;" class="shp11" d="M759.31 376.75C755.13 377.29 752.18 381.12 752.72 385.31L752.78 385.78C753.32 389.97 757.15 392.92 761.33 392.38L811.53 385.9C815.71 385.35 818.67 381.52 818.13 377.34L818.07 376.87C817.53 372.68 813.7 369.73 809.51 370.27L759.31 376.75Z" />
					<path id="&lt;Path&gt;" class="shp12" d="M644.26 525.94C640.08 526.48 637.12 530.31 637.66 534.49L644.15 584.69C644.69 588.87 648.52 591.83 652.7 591.29L653.17 591.23C657.36 590.68 660.31 586.85 659.77 582.67L653.29 532.47C652.75 528.29 648.92 525.34 644.73 525.88L644.26 525.94Z" />
					<path id="&lt;Path&gt;" class="shp13" d="M604.18 211.91L603.71 211.97C599.52 212.52 596.57 216.35 597.11 220.53L603.59 270.73C604.13 274.91 607.96 277.86 612.15 277.32L612.62 277.26C616.81 276.72 619.76 272.89 619.22 268.71L612.74 218.51C612.2 214.33 608.37 211.37 604.18 211.91Z" />
				</g>
			</g>
		</g>
		<g id="&lt;Group&gt;">
			<g id="&lt;Group&gt;">
				<g id="&lt;Group&gt;">
					<path id="&lt;Path&gt;" class="shp14" d="M634.62 612.61C620.8 618.38 607.29 627.41 602.78 637.18C582.44 681.23 626.69 736.13 643.88 773.6C673.41 837.96 688.52 909.56 679.34 980.26C669.39 1056.86 665.96 1131.73 682.49 1207.96C691 1247.24 706.34 1288.36 734.98 1317.81C789.11 1373.44 909.13 1329.59 926.47 1260.25C940.3 1204.95 927.48 1147.24 908.7 1094.84C877.12 1006.7 831.57 924.41 799.44 836.51C774.86 769.29 769.64 631.56 685.75 608.53C670.41 604.32 649.27 606.48 634.62 612.61Z" />
					<path id="&lt;Path&gt;" class="shp15" d="M830.88 1450.34C830.77 1450.34 830.65 1450.33 830.54 1450.31C829.11 1450.13 828.1 1448.82 828.29 1447.39C842.1 1342.33 841.13 1234.52 825.43 1126.94C812.86 1040.86 790.89 954.74 760.11 870.97C718.18 756.86 667.53 670.06 646.6 640.11C645.77 638.93 646.06 637.3 647.24 636.48C648.42 635.65 650.05 635.94 650.87 637.12C651.48 637.99 712.38 725.93 765 869.17C795.91 953.28 817.97 1039.75 830.59 1126.18C846.37 1234.24 847.33 1342.54 833.46 1448.07C833.29 1449.38 832.17 1450.34 830.88 1450.34Z" />
				</g>
				<g id="&lt;Group&gt;">
					<path id="&lt;Path&gt;" class="shp15" d="M745.86 1245.57C733.59 1208.19 700.82 1174.7 675.97 1141.17C662.83 1123.44 651.55 1104.95 644.79 1083.81C638.06 1062.8 636.57 1037.15 618.35 1022.04C581.65 991.58 550.27 1029.74 542.01 1070.81C532.41 1118.46 553.24 1177.88 564.73 1225.94C571.66 1254.91 575.81 1286.12 585.89 1314.11C602.59 1360.49 627.79 1385.81 659.02 1395.73C688.98 1405.24 721.54 1393.89 739.15 1367.86C755.06 1344.34 765.67 1305.88 745.86 1245.57Z" />
					<path id="&lt;Path&gt;" class="shp16" d="M734.28 1454.6C733.48 1454.6 732.69 1454.24 732.18 1453.54C731.83 1453.06 696.24 1404.47 659.05 1331.44C624.7 1264 581.88 1161.28 572.97 1054.9C572.85 1053.47 573.91 1052.21 575.35 1052.09C576.77 1051.98 578.05 1053.03 578.17 1054.47C587.01 1160 629.56 1262.05 663.7 1329.07C700.7 1401.73 736.03 1449.97 736.38 1450.45C737.24 1451.61 736.99 1453.24 735.83 1454.1C735.36 1454.44 734.82 1454.6 734.28 1454.6Z" />
				</g>
			</g>
			<g id="&lt;Group&gt;">
				<g id="&lt;Group&gt;">
					<g id="&lt;Group&gt;">
						<path id="&lt;Path&gt;" class="shp14" d="M1850.26 982.41C1843.13 962.69 1838.65 942.35 1839.29 920.75C1840.92 866.35 1877.33 819.75 1905.07 775.56C1930.57 734.94 1952.73 672.82 1880.61 671.3C1823.16 670.09 1750.44 720.16 1736.84 778.63C1720.75 847.83 1745.99 939.67 1699.13 999.29C1633.57 1082.69 1594.79 1058.17 1579.68 1208.51C1573.23 1272.75 1605.25 1311.76 1644.05 1335.38C1705.28 1372.64 1783.24 1367.9 1839.47 1323.45C1889.16 1284.18 1922.41 1223.89 1919.66 1159.73C1916.88 1094.93 1871.65 1041.46 1850.26 982.41Z" />
						<path id="&lt;Path&gt;" class="shp15" d="M1753.81 1461.57C1752.65 1461.45 1751.67 1460.56 1751.49 1459.35C1730.25 1314.2 1723.83 1183.9 1732.43 1072.08C1739.32 982.52 1755.8 904.52 1781.42 840.25C1804.27 782.92 1830.32 747.32 1848.16 727.56C1867.62 705.99 1881.53 698.14 1882.12 697.82C1883.38 697.12 1884.96 697.58 1885.66 698.83C1886.36 700.09 1885.91 701.68 1884.65 702.38C1884.1 702.69 1829.07 734.37 1786 842.85C1760.67 906.65 1744.38 984.12 1737.59 1073.1C1729.09 1184.39 1735.5 1314.09 1756.66 1458.6C1756.86 1460.02 1755.88 1461.35 1754.45 1461.55C1754.24 1461.59 1754.02 1461.59 1753.81 1461.57Z" />
					</g>
					<path id="&lt;Path&gt;" class="shp14" d="M1922.99 829.62C1920.31 828.6 1917.3 828.06 1914.04 828.11C1896 828.36 1886.79 846.43 1880.07 860.61C1874.32 872.75 1867.5 887.5 1868.78 901.41C1870.16 916.44 1884.62 930.05 1897.48 916.22C1912.11 900.49 1934.12 876.31 1936.5 853.77C1937.69 842.56 1932.27 833.17 1922.99 829.62Z" />
				</g>
				<g id="&lt;Group&gt;">
					<path id="&lt;Path&gt;" class="shp15" d="M2079.78 1248.34C2093.19 1195.97 2080 1132.98 2076 1075.77C2073.89 1045.52 2074.5 1015.78 2082.28 986.3C2090.02 956.99 2107.25 926.18 2097.33 895.21C2077.34 832.82 2012.79 853.81 1972.87 895.26C1926.53 943.36 1906.73 1027.57 1884.52 1091.72C1871.13 1130.39 1852.87 1169.6 1843.86 1209.48C1828.92 1275.53 1839.37 1323.48 1868.21 1358.05C1895.88 1391.21 1941.98 1402.14 1981.62 1385.01C2017.43 1369.53 2058.14 1332.83 2079.78 1248.34Z" />
					<path id="&lt;Path&gt;" class="shp16" d="M1913.53 1481.44C1912.28 1481.31 1911.27 1480.31 1911.19 1479.02C1911.13 1478.2 1905.84 1395.71 1916.74 1283.71C1926.8 1180.3 1953.11 1029.83 2021.34 900.19C2022.01 898.91 2023.59 898.43 2024.86 899.09C2026.14 899.76 2026.63 901.34 2025.96 902.62C1958.14 1031.48 1931.96 1181.2 1921.94 1284.11C1911.07 1395.71 1916.34 1477.85 1916.39 1478.67C1916.49 1480.11 1915.4 1481.35 1913.96 1481.45C1913.82 1481.46 1913.67 1481.45 1913.53 1481.44Z" />
				</g>
			</g>
		</g>
		<g id="&lt;Group&gt;">
			<path id="&lt;Path&gt;" class="shp17" d="M2295.03 1080.51C2302.08 1088.03 2312.46 1094.53 2319.76 1098.59C2308.86 1112.07 2294.1 1125.57 2274.56 1138.78L2268.97 1151.33L2251.05 1129.86C2272.48 1119.19 2287.14 1102.74 2295.03 1080.51Z" />
			<path id="&lt;Path&gt;" class="shp18" d="M2199.15 1487.77C2199.14 1487.39 2199.17 1487 2199.27 1486.61C2203.14 1471.27 2214.67 1458.83 2233.87 1449.27L2245.29 1450.17C2251.85 1470.45 2251.01 1482.88 2249.95 1488.42C2249.92 1488.58 2249.88 1488.72 2249.83 1488.87C2240.42 1489.72 2221.04 1490.27 2199.15 1487.77Z" />
			<path id="&lt;Path&gt;" class="shp19" d="M2249.83 1488.87C2249.33 1490.72 2247.96 1492.16 2246.21 1492.53C2232.82 1495.35 2211.53 1493.08 2202.6 1491.91C2200.62 1491.66 2199.18 1489.83 2199.15 1487.77C2221.04 1490.27 2240.42 1489.72 2249.83 1488.87Z" />
			<path id="&lt;Path&gt;" class="shp20" d="M2249.88 1433.17L2245.04 1456.44C2244.69 1458.14 2243.38 1459.42 2241.79 1459.57C2239.85 1459.75 2237.08 1459.86 2234.3 1459.45C2231.81 1459.08 2230.07 1456.55 2230.51 1453.83L2233.87 1433.17L2249.88 1433.17Z" />
			<path id="&lt;Path&gt;" class="shp21" d="M2149.72 1488.64C2162.33 1488.29 2168.85 1486.8 2172.22 1485.43C2172.22 1486.68 2172.22 1487.95 2172.18 1489.28C2172.13 1490.69 2171.09 1491.82 2169.8 1491.81L2100.59 1491.36C2098.38 1491.35 2097.09 1488.78 2098.05 1486.76C2107.12 1487.51 2130.24 1489.19 2149.72 1488.64Z" />
			<path id="&lt;Path&gt;" class="shp22" d="M2098.05 1486.76C2098.13 1486.58 2098.2 1486.4 2098.32 1486.24C2104.44 1477.7 2120 1460.69 2150.76 1453.31L2165.52 1452.85C2169.9 1460.46 2172.13 1471.32 2172.22 1485.43C2168.85 1486.8 2162.33 1488.29 2149.72 1488.64C2130.24 1489.19 2107.12 1487.51 2098.05 1486.76Z" />
			<path id="&lt;Path&gt;" class="shp23" d="M2168.26 1430.48C2168.09 1431.58 2166.07 1448.3 2165.29 1454.78C2165.1 1456.32 2163.99 1457.52 2162.58 1457.68C2160.07 1457.99 2156 1458.26 2152.44 1457.53C2150.52 1457.14 2149.14 1455.29 2149.14 1453.15L2149.14 1426.91L2168.26 1430.48Z" />
			<path id="&lt;Path&gt;" class="shp24" d="M2180.1 1125.39C2156.37 1215.56 2144.72 1317.39 2145.15 1430.87C2145.16 1433.97 2147.34 1436.65 2150.38 1437.29C2154.85 1438.24 2161.43 1439.35 2166.87 1439.2C2169.78 1439.12 2172.21 1436.96 2172.7 1434.1C2177.69 1404.83 2206.33 1239.95 2222.65 1213.19C2229.81 1311.08 2232.24 1385.43 2229.96 1436.22C2229.87 1438.11 2231.26 1439.75 2233.14 1439.97C2236 1440.3 2240.57 1440.55 2246.39 1439.94C2248.6 1439.7 2250.38 1438.03 2250.69 1435.83C2254.25 1411.06 2274.71 1263.63 2273.84 1157.42C2273.81 1153.42 2268.53 1142.75 2258 1125.39L2180.1 1125.39Z" />
			<path id="&lt;Path&gt;" class="shp25" d="M2130.6 961.68C2136.37 954.44 2141.43 946.68 2145.67 938.68C2151.58 927.51 2146.14 945.91 2147.76 933.3C2192.03 901.35 2258.7 917.52 2284.49 920.77C2292.94 921.83 2300.68 926 2306.25 932.45C2328.35 958.02 2376.84 1028.04 2319.76 1098.59C2312.46 1094.53 2302.08 1088.03 2295.03 1080.51C2301.35 1062.71 2301.86 1039.96 2288.63 1012.07C2288.18 1014.28 2287.62 1016.46 2286.94 1018.62C2268.7 1076.4 2267.73 1124.49 2267.77 1135.57C2267.77 1137.07 2266.87 1138.43 2265.47 1138.99C2241.47 1148.61 2195.26 1142.88 2179.75 1140.57C2176.9 1140.15 2174.99 1137.5 2175.38 1134.65C2183 1079.5 2143.93 988.77 2133.61 966.04C2132.86 964.41 2131.84 962.94 2130.6 961.68Z" />
			<path id="&lt;Path&gt;" class="shp26" d="M2243 874.33L2247.62 921.59C2229.9 926.93 2214.59 925.05 2201.69 915.96L2215.29 873L2243 874.33Z" />
			<g id="&lt;Group&gt;">
				<path id="&lt;Path&gt;" class="shp27" d="M2212.14 820.45C2211.72 820.85 2202.71 838.32 2185.13 872.84L2215.02 887.27L2247.31 841.9C2231.01 820.88 2219.29 813.73 2212.14 820.45Z" />
				<path id="&lt;Path&gt;" class="shp28" d="M2234.08 843.16C2234.62 844.54 2234.48 846.07 2233.72 847.34L2218.82 872.19C2218.59 872.57 2218.32 872.91 2218 873.21C2216.23 874.86 2210.15 879.66 2205.46 873.12C2201.46 867.55 2197.71 862.48 2193.69 860.39C2191.34 859.17 2188.45 860.15 2187.25 862.51C2184.8 867.38 2180.04 877.3 2177.05 886.71C2176.3 889.07 2177.52 891.6 2179.81 892.53C2185.87 894.98 2197.83 899.41 2208.44 900.88C2210.18 901.12 2211.91 900.38 2212.95 898.96C2217.51 892.71 2230.38 875.22 2234.78 870.85C2238.86 866.78 2246.39 868.31 2249.78 869.29C2251.07 869.66 2252.44 869.48 2253.59 868.79C2257.04 866.72 2263.05 861.55 2257.55 852.81C2256.18 850.63 2256.88 847.74 2259.02 846.33C2262.87 843.8 2267.04 839.05 2263.07 831.36C2259.04 823.58 2251.86 822.88 2246.96 823.48C2244.8 823.74 2242.6 822.61 2241.77 820.59C2241.4 819.7 2240.67 818.93 2239.31 818.65C2236.74 818.13 2235.06 815.79 2235.56 813.22C2236.43 808.82 2235.78 803.1 2228.75 799.23C2215.85 792.14 2204.55 803.69 2201.68 813.45C2198.81 823.2 2213.23 830.09 2222.3 831.24C2228.96 832.08 2232.61 839.36 2234.08 843.16Z" />
				<path id="&lt;Path&gt;" class="shp29" d="M2229.18 879.97C2233 868.79 2237.36 863.4 2242.25 863.81C2249.59 864.43 2255.37 871.74 2246.27 879.96C2238.73 886.77 2233.03 886.78 2229.18 879.97Z" />
			</g>
			<path id="&lt;Path&gt;" class="shp30" d="M2297.29 950.08C2297.26 949.79 2297.12 949.52 2296.89 949.34C2296.66 949.15 2296.37 949.07 2296.08 949.1L2295.57 949.16C2294.99 949.22 2294.56 949.74 2294.61 950.33C2295.11 955.94 2296.95 982.83 2288.89 1005.81C2288.69 1006.37 2288.98 1006.99 2289.54 1007.19L2290.02 1007.37C2290.3 1007.47 2290.6 1007.45 2290.86 1007.33C2291.12 1007.21 2291.32 1006.98 2291.42 1006.71C2299.65 983.24 2297.8 955.87 2297.29 950.08Z" />
			<g id="&lt;Group&gt;">
				<path id="&lt;Path&gt;" class="shp31" d="M2040.73 976.55C2090.8 984.06 2123.44 952.46 2147.76 933.3C2169.16 916.43 2188.2 912.1 2204.85 920.3L2170.61 985.66C2119.47 1033.87 2067.04 1023.16 2033.99 1007.54C2033.48 994.92 2036.85 984.35 2040.73 976.55Z" />
				<path id="&lt;Path&gt;" class="shp32" d="M1970.35 946.67L1986.95 955.61C2006.87 967.73 2024.69 974.14 2040.73 976.55C2036.85 984.35 2033.48 994.92 2033.99 1007.54C2019.96 1000.91 2008.55 993.61 1999.76 985.66C1974.68 970.7 1964.88 957.71 1970.35 946.67Z" />
			</g>
			<path id="&lt;Path&gt;" class="shp33" d="M1921.43 970.07C1922.5 966.51 1925.13 963.62 1928.59 962.24L1962.29 948.68C1962.63 945.8 1960.25 943.38 1955.17 941.42C1950.08 939.47 1948.13 935.64 1949.32 929.94C1956.27 933.11 1964.83 937.21 1975 942.24C1983.73 946.55 1988.63 954.17 1991.22 959.9L1982.55 971.31C1961.78 977.55 1940.76 978.74 1919.56 976.26L1921.43 970.07Z" />
		</g>
		<g id="&lt;Group&gt;">
			<path id="&lt;Path&gt;" class="shp34" d="M1992.64 1111.54C1990.86 1102.08 1993.62 1096.33 2000.91 1094.3C2000.24 1086.3 2003.75 1080.86 2011.44 1077.99C2028.69 1059.33 2044.44 1061.25 2058.67 1083.73C2077.47 1084.74 2085.84 1096.79 2083.76 1119.88C2088.28 1125.07 2087.84 1131.15 2082.43 1138.13C2072.61 1167.65 2056.63 1172.89 2034.5 1153.86L1992.64 1111.54Z" />
			<path id="&lt;Path&gt;" class="shp35" d="M2143.5 1079.62C2136.89 1072.84 2131.19 1074 2126.41 1083.12C2118.43 1085.81 2126.41 1102.96 2126.41 1102.96C2121.53 1112.43 2096.04 1161.08 2082.23 1173.08C2072.01 1181.96 2075.12 1187.55 2091.55 1189.87C2109.91 1181.28 2124.23 1153.61 2134.53 1106.86C2134.66 1106.82 2134.78 1106.76 2134.89 1106.68C2137 1105.08 2153.41 1089.8 2143.5 1079.62Z" />
			<path id="&lt;Path&gt;" class="shp36" d="M1983.78 1175.29C1971.36 1164.5 1948.21 1118.89 1939.9 1102.04C1941.4 1098.49 1946.38 1085.44 1939.5 1083.12C1934.72 1074 1929.02 1072.84 1922.41 1079.62C1913.27 1089.02 1926.52 1102.73 1930.28 1106.06C1935.49 1132.38 1947.57 1160.31 1966.52 1189.85C1988.24 1189.02 1994 1184.17 1983.78 1175.29Z" />
			<path id="&lt;Path&gt;" class="shp37" d="M2033.32 1472.25C2034.8 1477.75 2035.49 1482.53 2035.38 1486.6C2035.36 1487.55 2034.65 1488.35 2033.7 1488.48C2028.13 1489.25 2009.12 1491.53 1998.68 1488.49C1997.84 1488.24 1997.26 1487.46 1997.29 1486.58C1997.38 1483.3 1999.69 1475.61 2018.77 1473.64L2033.32 1472.25Z" />
			<path id="&lt;Path&gt;" class="shp38" d="M2000.49 1346.07C1998.14 1347.6 2015.86 1471.97 2020.15 1472.87C2023.42 1475.91 2027.58 1475.7 2032.63 1472.24C2028.26 1431.7 2025.59 1390.59 2027.95 1348.57L2000.49 1346.07Z" />
			<path id="&lt;Path&gt;" class="shp39" d="M2075.73 1472.25C2077.21 1477.75 2077.9 1482.53 2077.8 1486.6C2077.78 1487.55 2077.07 1488.35 2076.12 1488.48C2070.55 1489.25 2051.54 1491.53 2041.1 1488.49C2040.25 1488.24 2039.68 1487.46 2039.7 1486.58C2039.8 1483.3 2042.11 1475.61 2061.18 1473.64L2075.73 1472.25Z" />
			<path id="&lt;Path&gt;" class="shp40" d="M2042.91 1346.07C2040.56 1347.6 2058.27 1471.97 2062.56 1472.87C2065.84 1475.91 2070 1475.7 2075.05 1472.24C2070.67 1431.7 2068.01 1390.59 2070.36 1348.57L2042.91 1346.07Z" />
			<path id="&lt;Path&gt;" class="shp41" d="M2062.61 1270.58C2024.1 1272.35 2000.27 1274.84 1991.1 1278.06C1992.23 1309.36 1994.67 1334.63 1998.44 1353.87C1998.66 1354.99 1999.5 1355.88 2000.61 1356.13C2004.32 1356.99 2013.65 1358.22 2028.44 1354.08C2029.75 1353.71 2030.62 1352.47 2030.53 1351.1L2029.01 1332.4C2028.92 1331.14 2029.87 1330.06 2031.12 1329.97L2032.67 1329.73C2033.98 1329.64 2035.09 1330.68 2035.1 1331.99L2038.02 1350.96C2038.04 1352.19 2038.82 1353.27 2039.98 1353.67C2044.32 1355.14 2055.62 1357.88 2070.52 1353.34C2071.72 1352.98 2072.55 1351.87 2072.56 1350.61C2072.71 1327.59 2068.58 1300.05 2062.61 1270.58Z" />
			<path id="&lt;Path&gt;" class="shp42" d="M2040.96 1274.63C2045.83 1288.17 2054.13 1295.4 2065.88 1296.34L2061.98 1273.19C2052.89 1273.12 2045.88 1273.6 2040.96 1274.63Z" />
			<path id="&lt;Path&gt;" class="shp43" d="M2089.69 1163.76C2072.28 1174.95 2053.02 1179.92 2031.88 1178.68C2005.45 1177.12 1989.39 1170.38 1980.46 1162.78C1977.26 1160.06 1972.72 1159.61 1969.19 1161.88C1965.33 1164.37 1960.2 1168.23 1954.8 1173.87C1953.44 1175.29 1953.16 1177.45 1954.2 1179.12C1961.9 1191.56 1970.11 1200.26 1978.81 1205.32C1981.76 1208.56 1983.34 1212.82 1983.22 1217.21L1981.61 1278.31C1981.57 1280.01 1982.75 1281.48 1984.41 1281.8C1996 1283.99 2039.98 1291.65 2067.31 1286.83L2067.31 1220.92C2067.31 1216.02 2070.02 1211.57 2074.3 1209.19C2080.05 1206 2088.6 1199.76 2097.15 1188L2089.69 1163.76Z" />
			<path id="&lt;Path&gt;" class="shp44" d="M2044.41 1149.67L2047.27 1181.13C2036.2 1187.6 2025.91 1188 2016.38 1182.35L2018.92 1154.87L2044.41 1149.67Z" />
			<path id="&lt;Path&gt;" class="shp45" d="M2014.07 1091.51C1980.63 1116.52 1973.35 1138.06 1992.24 1156.12C2010.07 1173.16 2027.33 1172.39 2044.04 1153.82C2056.81 1147.49 2062.96 1140.04 2062.48 1131.48C2061.76 1118.65 2024.21 1088.24 2014.07 1091.51Z" />
			<path id="&lt;Path&gt;" class="shp46" d="M2050.04 1147.43C2031.16 1133.09 2024.87 1119.96 2031.17 1108.04C2027.36 1107.09 2025.66 1104.25 2026.07 1099.5C2012.27 1105.17 2005.17 1104.23 2004.76 1096.67C2012.4 1081.05 2021.66 1078.16 2032.54 1087.99C2048.86 1102.73 2063.47 1117.01 2066.59 1124.47C2069.7 1131.93 2069.09 1147.08 2050.04 1147.43Z" />
			<path id="&lt;Path&gt;" class="shp47" d="M2038.28 1156.72L2049.52 1143.15C2058.02 1142.4 2060.79 1144.68 2057.81 1149.99C2053.34 1157.96 2041.81 1159.13 2038.28 1156.72Z" />
		</g>
		<g id="&lt;Group&gt;">
			<path id="&lt;Path&gt;" class="shp48" d="M514.27 1117.76C518.72 1092.88 535.38 1073.78 555.49 1067.54C561.54 1065.66 566.8 1061.79 570.64 1056.75C577.87 1047.25 589.68 1042.02 601.81 1044.19C601.85 1044.2 601.88 1044.2 601.91 1044.21C607.45 1045.22 613.18 1043.65 617.03 1039.54C628.41 1027.39 644.44 1021.04 660.72 1023.96C687.8 1028.81 717.29 1053.61 711.83 1084.08C706.38 1114.55 668.05 1139.14 640.97 1134.29C637.19 1133.61 633.6 1132.48 630.24 1130.93C625.75 1128.88 620.63 1131.48 619.78 1136.34C619.76 1136.44 619.74 1136.54 619.73 1136.64C613.68 1170.4 585.18 1193.54 556.05 1188.32C526.93 1183.11 508.22 1151.52 514.27 1117.76Z" />
			<path id="&lt;Path&gt;" class="shp49" d="M638.18 1186.61C638.23 1186.55 638.28 1186.49 638.33 1186.43L658.28 1163.35L649.83 1145.25C638.69 1145.67 629.57 1151.89 622.46 1163.92C600.12 1189.9 571.94 1191.85 537.93 1169.75L531.52 1173.36C591.16 1220.41 623.19 1203.7 638.18 1186.61L638.18 1186.61Z" />
			<path id="&lt;Path&gt;" class="shp50" d="M541.67 1176.68C529.9 1180.36 523.21 1180.82 521.61 1178.06C519.21 1173.93 507.25 1161.5 516.92 1161.29C526.6 1161.07 542.18 1163.87 541.67 1176.68Z" />
			<g id="&lt;Group&gt;">
				<path id="&lt;Path&gt;" class="shp51" d="M714.63 1146.54C736.01 1188.03 746.65 1221.92 746.54 1248.19L738.78 1250.85C724.87 1206.29 713.7 1179.13 705.26 1169.36C696.82 1159.59 699.94 1151.98 714.63 1146.54Z" />
				<path id="&lt;Path&gt;" class="shp52" d="M741.59 1242.96L746.54 1248.19C750.91 1253.86 753.68 1258.91 754.87 1263.36C756.64 1270.04 747.96 1274.57 744.81 1275.48C741.65 1276.39 740.43 1273.35 741.93 1267.11C738.19 1261.23 737.19 1254.52 738.93 1246.99L741.59 1242.96Z" />
			</g>
			<path id="&lt;Path&gt;" class="shp53" d="M696.75 1403.03L694.97 1407.4L695.69 1423.12C695.79 1425.33 697.57 1427.18 699.98 1427.55C703.25 1428.06 708.02 1428.57 712.51 1428.22C716.02 1427.95 718.22 1424.65 716.85 1421.7L711.56 1410.37C710.77 1408.67 709.32 1407.37 707.55 1406.76L696.75 1403.03Z" />
			<path id="&lt;Path&gt;" class="shp54" d="M682.49 1281.77C688.3 1346.62 693.13 1388.97 696.97 1408.81C699.85 1410.9 703.43 1410.6 707.73 1407.9L715.57 1278.08L682.49 1281.77Z" />
			<path id="&lt;Path&gt;" class="shp55" d="M668.6 1403.03L670.38 1407.4L669.66 1423.12C669.56 1425.33 667.78 1427.18 665.38 1427.55C662.1 1428.06 657.33 1428.57 652.84 1428.22C649.33 1427.95 647.13 1424.65 648.5 1421.7L653.8 1410.37C654.59 1408.67 656.03 1407.37 657.8 1406.76L668.6 1403.03Z" />
			<path id="&lt;Path&gt;" class="shp56" d="M682.87 1281.77C677.05 1346.62 672.22 1388.97 668.38 1408.81C665.5 1410.9 661.92 1410.6 657.62 1407.9L649.79 1278.08L682.87 1281.77Z" />
			<path id="&lt;Path&gt;" class="shp57" d="M643.4 1146.13C664.52 1138.31 688.26 1138.44 714.63 1146.54C717.58 1166.51 718.3 1181.24 716.78 1190.74L648.63 1193.2L643.4 1146.13Z" />
			<path id="&lt;Path&gt;" class="shp58" d="M716.78 1196.32C732.14 1244.41 741.35 1283.95 744.42 1314.93C744.65 1317.32 742.91 1319.44 740.52 1319.68C736 1320.14 728.04 1321.49 717.29 1325.42C699.86 1331.8 685.23 1330.29 671.96 1326.9C661.55 1324.23 635.64 1322.4 624.98 1321.73C622.44 1321.57 620.59 1319.28 620.96 1316.76C623.55 1299.44 633.5 1237.94 650.1 1195.85L716.78 1196.32Z" />
			<path id="&lt;Path&gt;" class="shp59" d="M717 1189.12L716.78 1196.32C702.19 1198.89 679.46 1199.66 648.59 1198.62L648.35 1190.68C682.55 1191.35 705.43 1190.83 717 1189.12Z" />
			<path id="&lt;Path&gt;" class="shp60" d="M667.78 1110.06L664.76 1139.89C664.52 1142.26 666.08 1144.44 668.41 1144.97C673.72 1146.19 683.34 1147.63 691.41 1144.68C693.44 1143.93 694.74 1141.92 694.53 1139.76L691.58 1109.12L667.78 1110.06Z" />
			<path id="&lt;Path&gt;" class="shp61" d="M637.72 1104.3C647.98 1122.62 669.37 1135.35 690.28 1122.6C704.74 1113.77 703.74 1097.11 693.47 1078.79C683.21 1060.46 663.79 1051.04 649 1059.32C634.22 1067.6 627.46 1085.97 637.72 1104.3Z" />
			<path id="&lt;Path&gt;" class="shp62" d="M645.78 1110.18C640.61 1103.8 637.09 1102.82 635.22 1107.24C632.41 1113.88 647.86 1120.99 651.46 1119.5C653.85 1118.51 651.96 1115.41 645.78 1110.18Z" />
			<path id="&lt;Path&gt;" class="shp63" d="M633.8 1104.88C650.38 1113.51 656.95 1103.31 653.51 1074.27C662.58 1080.06 667.25 1078.9 667.53 1070.8C681.37 1070.6 688.03 1067.66 687.53 1061.99C686.78 1053.48 652.19 1042.12 635.89 1065.05C625.03 1080.34 624.33 1093.62 633.8 1104.88Z" />
		</g>
		<g id="&lt;Group&gt;">
			<path id="&lt;Path&gt;" class="shp64" d="M1807.01 1494.08L737.54 1494.08L737.54 1341.91L1807.01 1341.91L1807.01 1494.08Z" />
			<path id="&lt;Path&gt;" class="shp65" d="M1935.6 1494.08L611.08 1494.08L611.08 1419.07L1935.6 1419.07L1935.6 1494.08Z" />
			<path id="&lt;Path&gt;" class="shp66" d="M1946.32 1427.75C1946.32 1432.42 1942.53 1436.21 1937.85 1436.21L606.69 1436.21C602.02 1436.21 598.22 1432.42 598.22 1427.75L598.22 1427.54C598.22 1422.86 602.02 1419.07 606.69 1419.07L1937.85 1419.07C1942.53 1419.07 1946.32 1422.86 1946.32 1427.54L1946.32 1427.75Z" />
			<path id="&lt;Path&gt;" class="shp67" d="M1826.3 1344.69C1826.3 1349.37 1826.2 1352.63 1822.36 1352.63L728.23 1352.63C724.38 1352.63 718.25 1349.37 718.25 1344.69L718.25 1344.48C718.25 1339.81 724.38 1335.48 728.23 1335.48L1822.36 1335.48C1826.2 1335.48 1826.3 1339.81 1826.3 1344.48L1826.3 1344.69Z" />
		</g>
		<g id="&lt;Group&gt;">
			<path id="&lt;Path&gt;" class="shp68" d="M769.65 947.04C790.15 922.85 814.69 908.61 843.27 904.33C871.84 900.04 903.04 890.28 936.86 875.03L875.06 944.63L936.86 966.48C813.09 968.31 775.24 1001.4 823.31 1065.73C755.12 1044.61 737.23 1005.05 769.65 947.04Z" />
			<g id="&lt;Group&gt;">
				<g id="&lt;Group&gt;">
					<path id="&lt;Path&gt;" class="shp69" d="M944.96 470.24C945.13 448.21 961.14 442.6 992.98 453.41C966.06 480.33 958.05 514.14 968.97 554.83C952.79 521.22 944.79 493.02 944.96 470.24Z" />
					<path id="&lt;Path&gt;" class="shp70" d="M1404.12 655.51C1115.59 625.34 964.92 557.97 952.12 453.41C903.87 572.49 641.83 1043.87 952.12 1161.09C1202.74 1255.76 1404.12 693.75 1404.12 655.51Z" />
				</g>
				<g id="&lt;Group&gt;">
					<path id="&lt;Path&gt;" class="shp71" d="M1211.76 854.71C1211.27 853.33 1209.86 852.51 1208.42 852.76C1115.77 869.07 1089.35 827.21 1081.82 802.27C1081.42 800.92 1080.12 800.04 1078.72 800.16C1077.31 800.27 1076.18 801.36 1076 802.75C1059.85 929.96 1168.85 881.14 1210.38 858.31C1211.66 857.61 1212.24 856.08 1211.76 854.71Z" />
					<path id="&lt;Path&gt;" class="shp72" d="M934.53 743.23C881.79 748.28 856.87 723.52 859.78 668.96L849.69 697.03C846.72 784.45 907.72 763.34 936.17 748.86C937.45 748.21 938.08 746.74 937.68 745.36C937.28 743.99 935.96 743.09 934.53 743.23Z" />
				</g>
				<path id="&lt;Path&gt;" class="shp73" d="M950.38 907.23C907.24 874.88 851.8 891.67 827.64 901.62C817.78 905.68 811.7 915.69 812.65 926.31C813.6 936.94 821.36 945.71 831.79 947.94C858.1 953.59 900.1 946.37 912.94 952.41C934.89 962.74 976.2 1031.16 1012.99 1029.22C1049.78 1027.28 1007.18 949.83 950.38 907.23Z" />
			</g>
			<path id="&lt;Path&gt;" class="shp74" d="M1048.16 1130.39C1047.18 1130.39 1046.29 1129.72 1046.07 1128.72C1045.81 1127.57 1046.53 1126.42 1047.69 1126.16C1098.08 1114.83 1151.33 1074.2 1205.94 1005.38C1206.68 1004.45 1208.03 1004.3 1208.95 1005.03C1209.88 1005.77 1210.04 1007.12 1209.3 1008.04C1154.06 1077.65 1100 1118.8 1048.63 1130.34C1048.47 1130.38 1048.31 1130.39 1048.16 1130.39Z" />
			<path id="&lt;Path&gt;" class="shp74" d="M1250.28 949.66C1249.87 949.66 1249.46 949.54 1249.1 949.31C1248.11 948.65 1247.84 947.32 1248.49 946.34C1299.47 869.03 1332.11 795.34 1332.44 794.61C1332.91 793.52 1334.18 793.03 1335.26 793.51C1336.34 793.98 1336.84 795.25 1336.36 796.33C1336.03 797.07 1303.26 871.08 1252.07 948.7C1251.66 949.32 1250.97 949.66 1250.28 949.66Z" />
			<path id="&lt;Path&gt;" class="shp75" d="M1814.79 1215.07C1785.47 1227.16 1757.13 1228.56 1729.77 1219.26C1702.41 1209.96 1670.21 1204.32 1633.18 1202.35L1720.01 1168.85L1675.13 1121.09C1785.94 1176.24 1834.75 1164.21 1821.55 1084.99C1872.45 1135.04 1870.19 1178.4 1814.79 1215.07Z" />
			<g id="&lt;Group&gt;">
				<g id="&lt;Group&gt;">
					<g id="&lt;Group&gt;">
						<path id="&lt;Path&gt;" class="shp76" d="M1657.01 329.5C1656.84 307.47 1640.83 301.86 1608.99 312.67C1635.91 339.59 1643.91 373.4 1633 414.09C1649.18 380.47 1657.18 352.28 1657.01 329.5Z" />
						<path id="&lt;Path&gt;" class="shp77" d="M1197.85 514.77C1498.01 495.41 1648.68 428.04 1649.85 312.67C1698.1 431.75 1960.14 903.13 1649.85 1020.34C1399.22 1115.02 1197.85 553.01 1197.85 514.77Z" />
					</g>
					<g id="&lt;Group&gt;">
						<path id="&lt;Path&gt;" class="shp78" d="M1428.81 701.64C1428.26 703 1428.77 704.55 1430.02 705.31C1431.26 706.07 1432.88 705.82 1433.83 704.72C1495.4 633.58 1542.31 649.38 1563.9 663.98C1565.07 664.77 1566.63 664.63 1567.64 663.65C1568.66 662.68 1568.85 661.12 1568.1 659.93C1500.35 551.06 1446.61 657.73 1428.81 701.64Z" />
						<path id="&lt;Path&gt;" class="shp79" d="M1761.32 586.69L1757.45 582.6C1750.91 575.69 1743.09 570.34 1734.3 566.68C1671.4 540.54 1663.89 598.03 1663.99 627.75C1663.99 629.18 1665.02 630.41 1666.43 630.67C1667.84 630.94 1669.23 630.16 1669.75 628.83C1691.61 572.84 1737.6 582.53 1758.72 590.58C1759.76 590.97 1760.95 590.6 1761.57 589.67C1762.19 588.74 1762.08 587.5 1761.32 586.69Z" />
					</g>
					<path id="&lt;Path&gt;" class="shp80" d="M1696.5 849.39C1749.91 841.98 1766.34 788.87 1776.49 764.79C1780.63 754.96 1777.91 743.58 1769.75 736.7C1761.59 729.83 1749.9 729.07 1740.92 734.82C1718.27 749.35 1721.64 765.37 1679.48 781.98C1656.91 790.87 1579.8 777.43 1555.04 804.71C1530.28 831.99 1626.17 859.14 1696.5 849.39Z" />
				</g>
				<path id="&lt;Path&gt;" class="shp81" d="M1498.75 961.46C1498.31 961.46 1497.86 961.32 1497.48 961.04C1462.7 935.23 1429.48 901.48 1398.73 860.73C1398.01 859.78 1398.2 858.44 1399.15 857.72C1400.09 857.01 1401.44 857.2 1402.15 858.14C1432.65 898.57 1465.59 932.03 1500.03 957.6C1500.98 958.3 1501.18 959.65 1500.48 960.6C1500.06 961.16 1499.41 961.46 1498.75 961.46Z" />
				<path id="&lt;Path&gt;" class="shp81" d="M1368.97 816.11C1368.27 816.11 1367.57 815.76 1367.16 815.12C1289.73 693.46 1255.22 561.9 1254.88 560.58C1254.59 559.44 1255.28 558.27 1256.42 557.97C1257.57 557.67 1258.74 558.36 1259.03 559.51C1259.37 560.82 1293.72 691.75 1370.78 812.82C1371.42 813.82 1371.12 815.14 1370.12 815.78C1369.77 816 1369.37 816.11 1368.97 816.11Z" />
			</g>
			<path id="&lt;Path&gt;" class="shp82" d="M769.65 947.04C776.5 935.95 694.37 1113.65 1029.53 1083.64C1154.04 1072.5 1229.49 1027.42 1386.37 967.84C1485.22 930.31 1639.2 908.82 1735.88 968.75C1791.77 1003.39 1841.07 1086.48 1854.52 1150.11C1819.44 1100.01 1737.16 1061.11 1680.49 1046.14C1574.11 1018.03 1470.37 1073.61 1374.02 1111.49C1293.28 1143.23 1211.87 1175.98 1127.84 1198.08C1039.96 1221.19 936.2 1231.31 846.29 1212.48C727.08 1187.5 715.35 1034.94 769.65 947.04Z" />
		</g>
		<g id="&lt;Group&gt;">
			<g id="&lt;Group&gt;">
				<path id="&lt;Path&gt;" class="shp83" d="M560.97 1011.65L556.96 1006.55C556.13 1005.49 556.31 1003.95 557.37 1003.12C558.43 1002.28 559.97 1002.47 560.81 1003.53L560.82 1003.54L560.86 1003.59L564.75 1008.63L564.79 1008.68C565.61 1009.73 565.41 1011.25 564.36 1012.07C563.31 1012.89 561.8 1012.7 560.97 1011.65Z" />
				<path id="&lt;Path&gt;" class="shp83" d="M548.1 994.26L544.53 988.84C543.76 987.68 544.09 986.11 545.25 985.34C546.42 984.57 547.99 984.89 548.76 986.06L548.77 986.07L548.8 986.13L552.27 991.47L552.3 991.52C553.05 992.68 552.72 994.24 551.56 994.99C550.4 995.74 548.86 995.41 548.1 994.26Z" />
				<path id="&lt;Path&gt;" class="shp83" d="M536.72 975.86L533.61 970.16C532.91 968.9 533.38 967.31 534.65 966.61C535.92 965.92 537.51 966.38 538.2 967.65L538.21 967.67L538.24 967.73L541.25 973.34L541.28 973.39C541.96 974.65 541.48 976.22 540.22 976.9C538.97 977.57 537.41 977.11 536.72 975.86Z" />
				<path id="&lt;Path&gt;" class="shp83" d="M526.88 956.59L524.22 950.67C523.61 949.31 524.22 947.71 525.59 947.1C526.95 946.49 528.55 947.1 529.16 948.46L529.17 948.48L529.19 948.54L531.75 954.37L531.77 954.43C532.36 955.78 531.75 957.36 530.39 957.95C529.05 958.54 527.48 957.93 526.88 956.59Z" />
				<path id="&lt;Path&gt;" class="shp83" d="M518.58 936.61L516.39 930.5C515.87 929.05 516.63 927.46 518.07 926.94C519.52 926.42 521.12 927.17 521.64 928.62L521.65 928.64L521.67 928.7L523.77 934.71L523.79 934.77C524.29 936.21 523.53 937.79 522.09 938.29C520.65 938.79 519.09 938.04 518.58 936.61Z" />
				<path id="&lt;Path&gt;" class="shp83" d="M511.82 916.06L510.1 909.8C509.67 908.27 510.57 906.69 512.1 906.27C513.63 905.84 515.21 906.74 515.64 908.27L515.64 908.3L515.66 908.36L517.3 914.51L517.32 914.57C517.73 916.09 516.82 917.65 515.3 918.05C513.79 918.46 512.24 917.57 511.82 916.06Z" />
				<path id="&lt;Path&gt;" class="shp83" d="M506.6 895.06L505.32 888.7C505 887.1 506.04 885.54 507.65 885.22C509.25 884.9 510.81 885.94 511.13 887.54L511.13 887.56L511.14 887.62L512.34 893.88L512.36 893.94C512.66 895.53 511.62 897.07 510.03 897.37C508.44 897.67 506.91 896.64 506.6 895.06Z" />
				<path id="&lt;Path&gt;" class="shp83" d="M502.88 873.75L502.05 867.31C501.83 865.65 503.01 864.12 504.68 863.9C506.35 863.69 507.87 864.87 508.09 866.54L508.09 866.56L508.1 866.62L508.86 872.94L508.87 873.01C509.07 874.66 507.89 876.16 506.23 876.36C504.58 876.56 503.09 875.39 502.88 873.75Z" />
				<path id="&lt;Path&gt;" class="shp83" d="M500.63 852.23L500.23 845.75C500.13 844.03 501.44 842.54 503.17 842.44C504.89 842.33 506.38 843.65 506.48 845.37L506.48 845.4L506.49 845.46L506.82 851.82L506.83 851.88C506.91 853.59 505.6 855.06 503.89 855.15C502.18 855.24 500.73 853.93 500.63 852.23Z" />
				<path id="&lt;Path&gt;" class="shp83" d="M499.82 830.61L499.85 824.12C499.86 822.34 501.31 820.91 503.08 820.92C504.86 820.93 506.29 822.38 506.28 824.15L506.28 824.18L506.28 824.24L506.2 830.61L506.2 830.67C506.17 832.43 504.73 833.84 502.96 833.82C501.21 833.8 499.81 832.36 499.82 830.61Z" />
				<path id="&lt;Path&gt;" class="shp83" d="M500.42 808.98L500.87 802.5C500.99 800.69 502.57 799.31 504.39 799.44C506.21 799.57 507.58 801.14 507.45 802.96L507.45 802.99L507.45 803.05L506.96 809.4L506.95 809.46C506.81 811.27 505.23 812.61 503.43 812.47C501.64 812.34 500.29 810.77 500.42 808.98Z" />
				<path id="&lt;Path&gt;" class="shp83" d="M502.4 787.43L503.26 781C503.51 779.14 505.21 777.84 507.07 778.09C508.92 778.33 510.22 780.04 509.97 781.89L509.97 781.92L509.96 781.98L509.07 788.29L509.06 788.35C508.8 790.19 507.1 791.47 505.26 791.21C503.43 790.95 502.15 789.26 502.4 787.43Z" />
				<path id="&lt;Path&gt;" class="shp83" d="M505.74 766.04L507.02 759.66C507.39 757.79 509.22 756.58 511.09 756.95C512.96 757.33 514.18 759.15 513.8 761.02L513.8 761.04L513.79 761.1L512.51 767.34L512.5 767.41C512.11 769.27 510.29 770.47 508.43 770.09C506.56 769.71 505.36 767.9 505.74 766.04Z" />
				<path id="&lt;Path&gt;" class="shp83" d="M510.46 744.9L512.13 738.63C512.63 736.76 514.55 735.65 516.42 736.15C518.29 736.64 519.4 738.56 518.91 740.43L518.9 740.45L518.88 740.51L517.22 746.65L517.2 746.72C516.7 748.58 514.78 749.68 512.92 749.17C511.06 748.67 509.96 746.76 510.46 744.9Z" />
				<path id="&lt;Path&gt;" class="shp83" d="M516.5 724.11L518.57 717.95C519.19 716.09 521.2 715.09 523.06 715.72C524.92 716.34 525.92 718.35 525.3 720.21L525.29 720.22L525.27 720.29L523.22 726.31L523.2 726.37C522.57 728.22 520.56 729.21 518.71 728.58C516.86 727.95 515.87 725.96 516.5 724.11Z" />
				<path id="&lt;Path&gt;" class="shp83" d="M523.85 703.74L526.3 697.72C527.05 695.89 529.15 695 530.99 695.75C532.83 696.51 533.71 698.6 532.96 700.44L532.95 700.45L532.92 700.52L530.5 706.4L530.47 706.46C529.71 708.29 527.62 709.16 525.79 708.4C523.97 707.65 523.09 705.57 523.85 703.74Z" />
				<path id="&lt;Path&gt;" class="shp83" d="M532.49 683.87L535.34 678.02C536.22 676.21 538.4 675.46 540.2 676.34C542.01 677.22 542.76 679.4 541.88 681.2L541.87 681.22L541.84 681.28L539.03 686.99L539 687.06C538.12 688.86 535.95 689.6 534.15 688.71C532.35 687.83 531.61 685.67 532.49 683.87Z" />
				<path id="&lt;Path&gt;" class="shp83" d="M542.43 664.6L545.66 658.95C546.67 657.19 548.92 656.58 550.68 657.58C552.45 658.59 553.06 660.84 552.05 662.61L552.04 662.62L552.01 662.69L548.83 668.2L548.79 668.26C547.78 670.01 545.53 670.62 543.78 669.6C542.02 668.59 541.41 666.36 542.43 664.6Z" />
				<path id="&lt;Path&gt;" class="shp83" d="M553.64 646.04L557.25 640.62C558.39 638.91 560.71 638.44 562.42 639.59C564.13 640.73 564.59 643.04 563.45 644.75L563.44 644.77L563.4 644.83L559.85 650.1L559.81 650.17C558.67 651.87 556.36 652.32 554.66 651.18C552.96 650.03 552.5 647.74 553.64 646.04Z" />
				<path id="&lt;Path&gt;" class="shp83" d="M566.1 628.29L570.04 623.14C571.31 621.48 573.68 621.17 575.33 622.44C576.98 623.7 577.3 626.07 576.03 627.72L576.02 627.74L575.98 627.79L572.09 632.82L572.05 632.87C570.78 634.51 568.42 634.82 566.78 633.55C565.14 632.28 564.83 629.93 566.1 628.29Z" />
				<path id="&lt;Path&gt;" class="shp83" d="M579.63 611.39L583.89 606.48C585.27 604.89 587.68 604.72 589.28 606.1C590.87 607.48 591.04 609.89 589.66 611.48L589.65 611.5L589.6 611.55L585.41 616.33L585.36 616.39C583.98 617.97 581.58 618.13 580 616.74C578.42 615.36 578.25 612.97 579.63 611.39Z" />
				<path id="&lt;Path&gt;" class="shp83" d="M594.17 595.34L598.72 590.69C600.21 589.17 602.66 589.14 604.18 590.64C605.7 592.13 605.73 594.57 604.24 596.1L604.23 596.11L604.18 596.16L599.71 600.68L599.66 600.73C598.17 602.24 595.73 602.26 594.22 600.77C592.71 599.27 592.68 596.85 594.17 595.34Z" />
				<path id="&lt;Path&gt;" class="shp83" d="M609.64 580.18L614.45 575.81C616.04 574.36 618.51 574.48 619.96 576.07C621.41 577.67 621.3 580.14 619.7 581.59L619.69 581.6L619.64 581.65L614.91 585.9L614.86 585.95C613.26 587.39 610.8 587.26 609.36 585.66C607.93 584.07 608.04 581.62 609.64 580.18Z" />
				<path id="&lt;Path&gt;" class="shp83" d="M625.95 565.94L631 561.85C632.69 560.48 635.18 560.74 636.55 562.43C637.93 564.13 637.67 566.62 635.97 567.99L635.96 568L635.91 568.04L630.95 572.03L630.89 572.07C629.2 573.43 626.72 573.16 625.36 571.46C624 569.77 624.26 567.3 625.95 565.94Z" />
				<path id="&lt;Path&gt;" class="shp83" d="M643.03 552.64L648.3 548.84C650.09 547.55 652.58 547.95 653.87 549.74C655.17 551.53 654.76 554.02 652.98 555.32L652.96 555.32L652.91 555.36L647.74 559.07L647.68 559.11C645.9 560.39 643.41 559.98 642.13 558.19C640.85 556.4 641.25 553.92 643.03 552.64Z" />
				<path id="&lt;Path&gt;" class="shp83" d="M660.81 540.3L666.27 536.78C668.15 535.57 670.65 536.12 671.85 537.99C673.06 539.87 672.52 542.37 670.65 543.57L670.63 543.58L670.58 543.62L665.21 547.04L665.16 547.08C663.28 548.27 660.8 547.72 659.6 545.85C658.4 543.97 658.94 541.5 660.81 540.3Z" />
				<path id="&lt;Path&gt;" class="shp83" d="M679.22 528.91L684.85 525.69C686.81 524.57 689.3 525.24 690.42 527.2C691.55 529.16 690.87 531.65 688.91 532.78L688.9 532.78L688.84 532.81L683.3 535.96L683.25 535.99C681.29 537.1 678.81 536.41 677.7 534.46C676.59 532.5 677.26 530.02 679.22 528.91Z" />
				<path id="&lt;Path&gt;" class="shp83" d="M698.19 518.51L703.98 515.58C706 514.56 708.47 515.37 709.49 517.39C710.52 519.41 709.71 521.88 707.68 522.9L707.68 522.9L707.63 522.93L701.94 525.8L701.88 525.83C699.86 526.85 697.4 526.04 696.38 524.01C695.36 521.99 696.17 519.53 698.19 518.51Z" />
				<path id="&lt;Path&gt;" class="shp83" d="M717.66 509.08L723.59 506.44C725.66 505.52 728.09 506.45 729.02 508.53C729.94 510.6 729.01 513.03 726.93 513.96L726.93 513.96L726.88 513.98L721.05 516.57L721 516.59C718.93 517.51 716.5 516.58 715.58 514.51C714.65 512.43 715.59 510 717.66 509.08Z" />
				<path id="&lt;Path&gt;" class="shp83" d="M737.57 500.62L743.61 498.27C745.74 497.45 748.12 498.5 748.95 500.62C749.77 502.74 748.72 505.13 746.6 505.95L746.6 505.96L746.54 505.98L740.6 508.28L740.55 508.3C738.43 509.12 736.04 508.07 735.22 505.95C734.39 503.83 735.44 501.44 737.57 500.62Z" />
				<path id="&lt;Path&gt;" class="shp83" d="M757.85 493.12L764 491.06C766.16 490.33 768.5 491.5 769.23 493.66C769.95 495.82 768.79 498.17 766.62 498.89L766.62 498.89L766.57 498.91L760.53 500.93L760.47 500.95C758.31 501.67 755.97 500.51 755.25 498.34C754.52 496.18 755.69 493.84 757.85 493.12Z" />
				<path id="&lt;Path&gt;" class="shp83" d="M778.46 486.58L784.7 484.8C786.9 484.18 789.19 485.45 789.82 487.65C790.44 489.85 789.17 492.14 786.97 492.77L786.96 492.77L786.91 492.79L780.77 494.52L780.72 494.54C778.52 495.16 776.23 493.89 775.61 491.69C774.98 489.49 776.26 487.2 778.46 486.58Z" />
				<path id="&lt;Path&gt;" class="shp83" d="M799.35 480.99L805.67 479.5C807.9 478.98 810.14 480.36 810.66 482.59C811.19 484.82 809.81 487.06 807.58 487.58L807.57 487.58L807.52 487.6L801.3 489.06L801.25 489.07C799.02 489.59 796.78 488.21 796.26 485.98C795.74 483.75 797.12 481.52 799.35 480.99Z" />
				<path id="&lt;Path&gt;" class="shp83" d="M820.48 476.37L826.85 475.17C829.11 474.74 831.28 476.23 831.71 478.48C832.13 480.74 830.65 482.92 828.39 483.34L828.39 483.34L828.33 483.35L822.07 484.53L822.01 484.54C819.75 484.96 817.58 483.47 817.16 481.22C816.74 478.96 818.22 476.79 820.48 476.37Z" />
				<path id="&lt;Path&gt;" class="shp83" d="M841.78 472.7L848.2 471.79C850.48 471.47 852.6 473.05 852.92 475.33C853.24 477.61 851.66 479.72 849.38 480.05L849.37 480.05L849.32 480.05L843.01 480.95L842.95 480.95C840.67 481.27 838.56 479.69 838.24 477.41C837.92 475.13 839.5 473.02 841.78 472.7Z" />
				<path id="&lt;Path&gt;" class="shp83" d="M863.23 470L869.69 469.38C871.99 469.16 874.03 470.84 874.25 473.14C874.47 475.44 872.79 477.48 870.49 477.7L870.49 477.7L870.43 477.71L864.09 478.31L864.03 478.32C861.73 478.53 859.69 476.85 859.48 474.55C859.26 472.26 860.94 470.22 863.23 470Z" />
				<path id="&lt;Path&gt;" class="shp83" d="M884.78 468.27L891.27 467.95C893.58 467.83 895.55 469.61 895.67 471.92C895.78 474.23 894 476.19 891.69 476.31L891.69 476.31L891.63 476.31L885.26 476.63L885.2 476.63C882.89 476.75 880.93 474.97 880.82 472.66C880.7 470.35 882.48 468.39 884.78 468.27Z" />
				<path id="&lt;Path&gt;" class="shp83" d="M906.41 467.53L912.9 467.5C915.22 467.48 917.1 469.35 917.11 471.67C917.13 473.99 915.26 475.88 912.94 475.89L912.93 475.89L912.88 475.89L906.5 475.92L906.45 475.92C904.13 475.92 902.24 474.05 902.23 471.74C902.22 469.42 904.09 467.54 906.41 467.53Z" />
				<path id="&lt;Path&gt;" class="shp83" d="M928.02 467.75L934.5 467.99C936.82 468.08 938.63 470.03 938.54 472.35C938.46 474.68 936.5 476.49 934.18 476.4L934.18 476.4L934.13 476.4L927.75 476.15L927.7 476.15C925.38 476.06 923.57 474.11 923.66 471.79C923.75 469.47 925.7 467.66 928.02 467.75Z" />
				<path id="&lt;Path&gt;" class="shp83" d="M949.59 468.87L956.05 469.37C958.38 469.56 960.11 471.59 959.93 473.91C959.75 476.23 957.72 477.96 955.4 477.78L955.39 477.78L955.34 477.78L948.98 477.27L948.93 477.27C946.61 477.09 944.88 475.06 945.06 472.74C945.25 470.42 947.27 468.68 949.59 468.87Z" />
				<path id="&lt;Path&gt;" class="shp83" d="M971.1 470.85L977.53 471.62C979.85 471.89 981.51 473.99 981.24 476.31C980.96 478.63 978.86 480.28 976.54 480.01L976.54 480.01L976.49 480L970.15 479.25L970.1 479.24C967.79 478.97 966.13 476.87 966.41 474.55C966.69 472.23 968.78 470.58 971.1 470.85Z" />
				<path id="&lt;Path&gt;" class="shp83" d="M992.51 473.68L998.91 474.69C1001.22 475.05 1002.8 477.22 1002.43 479.53C1002.07 481.84 999.9 483.42 997.59 483.06L997.59 483.06L997.54 483.05L991.24 482.05L991.19 482.04C988.88 481.68 987.3 479.51 987.67 477.2C988.04 474.89 990.2 473.32 992.51 473.68Z" />
				<path id="&lt;Path&gt;" class="shp83" d="M1013.79 477.32L1020.15 478.57C1022.45 479.02 1023.95 481.25 1023.49 483.55C1023.04 485.85 1020.81 487.35 1018.51 486.9L1018.51 486.9L1018.46 486.89L1012.2 485.66L1012.15 485.65C1009.86 485.19 1008.36 482.96 1008.81 480.66C1009.26 478.37 1011.49 476.87 1013.79 477.32Z" />
				<path id="&lt;Path&gt;" class="shp83" d="M1034.92 481.74L1041.22 483.22C1043.51 483.75 1044.93 486.04 1044.4 488.33C1043.86 490.62 1041.57 492.04 1039.28 491.5L1039.28 491.5L1039.24 491.49L1033.02 490.03L1032.98 490.02C1030.69 489.49 1029.27 487.2 1029.81 484.91C1030.35 482.63 1032.63 481.21 1034.92 481.74Z" />
				<path id="&lt;Path&gt;" class="shp83" d="M1055.87 486.92L1062.12 488.61C1064.39 489.23 1065.73 491.57 1065.12 493.84C1064.5 496.12 1062.16 497.46 1059.88 496.84L1059.88 496.84L1059.84 496.83L1053.68 495.15L1053.63 495.14C1051.36 494.53 1050.02 492.18 1050.64 489.91C1051.26 487.64 1053.6 486.3 1055.87 486.92Z" />
				<path id="&lt;Path&gt;" class="shp83" d="M1076.62 492.81L1082.81 494.72C1085.07 495.41 1086.33 497.8 1085.64 500.06C1084.94 502.32 1082.55 503.58 1080.3 502.89L1080.29 502.89L1080.25 502.87L1074.15 500.99L1074.11 500.98C1071.85 500.28 1070.59 497.89 1071.29 495.63C1071.98 493.38 1074.37 492.12 1076.62 492.81Z" />
				<path id="&lt;Path&gt;" class="shp83" d="M1097.17 499.4L1103.29 501.5C1105.52 502.27 1106.71 504.71 1105.94 506.95C1105.17 509.18 1102.74 510.37 1100.5 509.6L1100.5 509.6L1100.46 509.59L1094.42 507.5L1094.38 507.49C1092.14 506.72 1090.96 504.28 1091.73 502.05C1092.5 499.81 1094.93 498.63 1097.17 499.4Z" />
				<path id="&lt;Path&gt;" class="shp83" d="M1117.48 506.65L1123.52 508.96C1125.73 509.8 1126.83 512.27 1125.99 514.47C1125.15 516.68 1122.68 517.78 1120.48 516.94L1120.45 516.93L1114.47 514.66L1114.44 514.65C1112.23 513.81 1111.11 511.34 1111.95 509.13C1112.79 506.92 1115.26 505.81 1117.47 506.65L1117.48 506.65Z" />
				<path id="&lt;Path&gt;" class="shp83" d="M1137.54 514.55L1143.5 517.04C1145.67 517.94 1146.69 520.43 1145.79 522.6C1144.89 524.77 1142.4 525.79 1140.23 524.89L1140.2 524.88L1134.31 522.43L1134.27 522.42C1132.1 521.52 1131.07 519.03 1131.97 516.85C1132.87 514.68 1135.36 513.65 1137.53 514.55L1137.54 514.55Z" />
				<path id="&lt;Path&gt;" class="shp83" d="M1157.33 523.05L1163.22 525.71C1165.35 526.68 1166.3 529.18 1165.34 531.31C1164.37 533.44 1161.87 534.38 1159.74 533.42L1159.72 533.41L1153.89 530.79L1153.85 530.77C1151.72 529.81 1150.77 527.31 1151.73 525.17C1152.69 523.04 1155.19 522.09 1157.33 523.05L1157.33 523.05Z" />
				<path id="&lt;Path&gt;" class="shp83" d="M1176.88 532.13L1182.7 534.96C1184.79 535.98 1185.66 538.5 1184.64 540.58C1183.62 542.67 1181.1 543.54 1179.02 542.52L1178.99 542.51L1173.23 539.72L1173.2 539.71C1171.11 538.69 1170.23 536.17 1171.25 534.08C1172.26 531.99 1174.78 531.11 1176.88 532.12L1176.88 532.13Z" />
				<path id="&lt;Path&gt;" class="shp83" d="M1196.17 541.76L1201.9 544.75C1203.95 545.82 1204.75 548.35 1203.68 550.39C1202.61 552.44 1200.08 553.24 1198.03 552.17L1198.01 552.16L1192.33 549.21L1192.3 549.19C1190.24 548.12 1189.44 545.59 1190.51 543.54C1191.58 541.49 1194.1 540.69 1196.16 541.75L1196.17 541.76Z" />
				<path id="&lt;Path&gt;" class="shp83" d="M1215.18 551.91L1220.83 555.06C1222.84 556.18 1223.56 558.71 1222.44 560.72C1221.33 562.73 1218.79 563.45 1216.78 562.33L1216.76 562.32L1211.16 559.21L1211.13 559.2C1209.12 558.08 1208.39 555.54 1209.5 553.53C1210.62 551.52 1213.16 550.79 1215.17 551.91L1215.18 551.91Z" />
				<path id="&lt;Path&gt;" class="shp83" d="M1233.91 562.57L1239.48 565.86C1241.45 567.03 1242.1 569.56 1240.93 571.53C1239.77 573.5 1237.23 574.15 1235.26 572.99L1235.24 572.98L1229.72 569.72L1229.69 569.71C1227.72 568.55 1227.06 566 1228.23 564.03C1229.39 562.06 1231.93 561.4 1233.9 562.56L1233.91 562.57Z" />
				<path id="&lt;Path&gt;" class="shp83" d="M1252.36 573.71L1257.84 577.14C1259.77 578.35 1260.35 580.89 1259.14 582.82C1257.93 584.74 1255.39 585.33 1253.47 584.12L1253.45 584.11L1248.01 580.72L1247.98 580.7C1246.05 579.49 1245.46 576.95 1246.67 575.02C1247.87 573.08 1250.42 572.5 1252.35 573.7L1252.36 573.71Z" />
				<path id="&lt;Path&gt;" class="shp83" d="M1270.51 585.31L1275.9 588.87C1277.79 590.12 1278.3 592.66 1277.06 594.55C1275.81 596.44 1273.27 596.95 1271.38 595.7L1271.36 595.69L1266.01 592.17L1265.99 592.15C1264.1 590.9 1263.57 588.36 1264.82 586.47C1266.07 584.58 1268.61 584.05 1270.5 585.3L1270.51 585.31Z" />
				<path id="&lt;Path&gt;" class="shp83" d="M1288.37 597.35L1293.66 601.04C1295.51 602.33 1295.96 604.87 1294.67 606.71C1293.39 608.56 1290.85 609.01 1289 607.72L1288.99 607.71L1283.73 604.06L1283.71 604.05C1281.86 602.76 1281.4 600.22 1282.68 598.37C1283.97 596.52 1286.51 596.06 1288.36 597.34L1288.37 597.35Z" />
				<path id="&lt;Path&gt;" class="shp83" d="M1305.92 609.79L1311.13 613.58C1312.94 614.9 1313.34 617.44 1312.02 619.24C1310.7 621.05 1308.17 621.45 1306.36 620.13L1306.35 620.12L1301.17 616.36L1301.15 616.35C1299.33 615.03 1298.93 612.5 1300.25 610.68C1301.56 608.87 1304.1 608.47 1305.91 609.78L1305.92 609.79Z" />
				<path id="&lt;Path&gt;" class="shp83" d="M1323.21 622.56L1328.35 626.44C1330.12 627.78 1330.47 630.31 1329.13 632.09C1327.79 633.86 1325.26 634.21 1323.49 632.87L1323.48 632.86L1318.36 629.01L1318.34 629C1316.56 627.66 1316.21 625.13 1317.55 623.35C1318.89 621.57 1321.42 621.21 1323.2 622.55L1323.21 622.56Z" />
				<path id="&lt;Path&gt;" class="shp83" d="M1340.28 635.61L1345.36 639.57C1347.1 640.93 1347.41 643.44 1346.05 645.19C1344.69 646.93 1342.18 647.25 1340.43 645.89L1340.43 645.88L1335.36 641.95L1335.35 641.94C1333.6 640.58 1333.28 638.06 1334.64 636.31C1336 634.56 1338.52 634.24 1340.27 635.6L1340.28 635.61Z" />
				<path id="&lt;Path&gt;" class="shp83" d="M1357.15 648.87L1362.19 652.89C1363.91 654.26 1364.19 656.77 1362.82 658.49C1361.45 660.21 1358.94 660.49 1357.22 659.12L1357.22 659.12L1352.19 655.13L1352.18 655.12C1350.46 653.75 1350.17 651.24 1351.54 649.51C1352.91 647.78 1355.42 647.5 1357.15 648.87L1357.15 648.87Z" />
				<path id="&lt;Path&gt;" class="shp83" d="M1373.89 662.3L1378.89 666.36C1380.59 667.73 1380.85 670.23 1379.47 671.93C1378.1 673.63 1375.6 673.89 1373.9 672.51L1368.9 668.48C1367.2 667.11 1366.92 664.61 1368.3 662.9C1369.67 661.19 1372.17 660.92 1373.88 662.29L1373.89 662.3Z" />
				<path id="&lt;Path&gt;" class="shp83" d="M1390.53 675.84L1395.51 679.92C1397.19 681.3 1397.44 683.78 1396.06 685.46C1394.68 687.15 1392.2 687.4 1390.52 686.02L1385.54 681.96C1383.85 680.58 1383.59 678.1 1384.97 676.41C1386.34 674.72 1388.83 674.46 1390.52 675.84L1390.53 675.84Z" />
				<path id="&lt;Path&gt;" class="shp83" d="M1407.11 689.44L1412.08 693.52C1413.75 694.9 1413.99 697.37 1412.62 699.04C1411.25 700.71 1408.78 700.96 1407.11 699.58L1402.13 695.51C1400.45 694.14 1400.21 691.67 1401.58 689.99C1402.95 688.31 1405.42 688.06 1407.1 689.44L1407.11 689.44Z" />
				<path id="&lt;Path&gt;" class="shp83" d="M1423.67 703.04L1428.65 707.11C1430.31 708.47 1430.56 710.93 1429.2 712.6C1427.84 714.26 1425.39 714.51 1423.72 713.15L1418.73 709.08C1417.06 707.72 1416.81 705.26 1418.17 703.59C1419.54 701.92 1422 701.67 1423.67 703.03L1423.67 703.04Z" />
				<path id="&lt;Path&gt;" class="shp83" d="M1440.27 716.59L1445.26 720.64C1446.92 721.98 1447.18 724.42 1445.84 726.08C1444.49 727.75 1442.05 728.01 1440.39 726.66L1435.38 722.62C1433.71 721.27 1433.45 718.83 1434.8 717.16C1436.15 715.49 1438.59 715.23 1440.26 716.58L1440.27 716.59Z" />
				<path id="&lt;Path&gt;" class="shp83" d="M1456.93 730.03L1461.95 734.04L1461.96 734.04C1463.62 735.37 1463.89 737.79 1462.56 739.46C1461.24 741.12 1458.82 741.4 1457.16 740.07L1452.11 736.06C1450.45 734.74 1450.17 732.31 1451.49 730.64C1452.82 728.97 1455.25 728.7 1456.91 730.02L1456.92 730.03L1456.93 730.03Z" />
				<path id="&lt;Path&gt;" class="shp83" d="M1473.7 743.31L1478.76 747.26L1478.77 747.27C1480.44 748.57 1480.74 750.98 1479.44 752.64C1478.13 754.31 1475.73 754.61 1474.07 753.31L1468.98 749.36C1467.3 748.06 1467 745.65 1468.3 743.98C1469.6 742.3 1472.01 742 1473.68 743.3L1473.69 743.31L1473.7 743.31Z" />
				<path id="&lt;Path&gt;" class="shp83" d="M1490.62 756.38L1495.74 760.25L1495.75 760.26C1497.43 761.53 1497.76 763.92 1496.49 765.6C1495.22 767.28 1492.84 767.61 1491.16 766.34L1486.01 762.46C1484.33 761.19 1483.99 758.8 1485.26 757.12C1486.53 755.43 1488.92 755.1 1490.6 756.37L1490.61 756.37L1490.62 756.38Z" />
				<path id="&lt;Path&gt;" class="shp83" d="M1507.74 769.17L1512.92 772.95L1512.93 772.96C1514.62 774.19 1515 776.56 1513.76 778.25C1512.53 779.94 1510.17 780.31 1508.48 779.08L1503.26 775.29C1501.56 774.06 1501.19 771.69 1502.42 770C1503.65 768.3 1506.02 767.93 1507.71 769.16L1507.72 769.16L1507.74 769.17Z" />
				<path id="&lt;Path&gt;" class="shp83" d="M1525.09 781.63L1530.34 785.29L1530.36 785.3C1532.07 786.49 1532.48 788.84 1531.29 790.54C1530.11 792.25 1527.77 792.67 1526.06 791.48L1520.76 787.8C1519.05 786.62 1518.62 784.27 1519.81 782.56C1521 780.85 1523.35 780.42 1525.06 781.61L1525.06 781.61L1525.09 781.63Z" />
				<path id="&lt;Path&gt;" class="shp83" d="M1542.69 793.69L1548.03 797.23L1548.05 797.24C1549.78 798.38 1550.25 800.7 1549.11 802.43C1547.97 804.15 1545.65 804.63 1543.93 803.48L1538.54 799.93C1536.81 798.79 1536.33 796.47 1537.47 794.74C1538.61 793.01 1540.93 792.53 1542.66 793.67L1542.67 793.68L1542.69 793.69Z" />
				<path id="&lt;Path&gt;" class="shp83" d="M1560.58 805.33L1566 808.72L1566.02 808.74C1567.75 809.82 1568.27 812.1 1567.19 813.83C1566.11 815.55 1563.85 816.09 1562.12 815L1556.63 811.6C1554.89 810.52 1554.35 808.24 1555.43 806.5C1556.51 804.76 1558.79 804.22 1560.53 805.3L1560.55 805.31L1560.58 805.33Z" />
				<path id="&lt;Path&gt;" class="shp83" d="M1578.76 816.46L1584.28 819.69L1584.31 819.71C1586.05 820.72 1586.63 822.95 1585.61 824.69C1584.6 826.42 1582.38 827.01 1580.65 826L1575.05 822.76C1573.31 821.75 1572.71 819.51 1573.72 817.76C1574.73 816.02 1576.97 815.42 1578.72 816.43L1578.73 816.44L1578.76 816.46Z" />
				<path id="&lt;Path&gt;" class="shp83" d="M1597.28 827.02L1602.9 830.06L1602.93 830.08C1604.67 831.03 1605.32 833.2 1604.37 834.95C1603.43 836.69 1601.27 837.35 1599.52 836.4L1593.82 833.35C1592.07 832.41 1591.41 830.22 1592.35 828.47C1593.29 826.71 1595.47 826.05 1597.23 826.99L1597.24 827L1597.28 827.02Z" />
				<path id="&lt;Path&gt;" class="shp83" d="M1616.13 836.93L1621.86 839.77L1621.89 839.79C1623.64 840.66 1624.36 842.78 1623.49 844.53C1622.62 846.28 1620.52 847 1618.77 846.14L1612.95 843.29C1611.19 842.43 1610.46 840.3 1611.33 838.54C1612.19 836.77 1614.32 836.04 1616.08 836.91L1616.1 836.91L1616.13 836.93Z" />
				<path id="&lt;Path&gt;" class="shp83" d="M1635.34 846.13L1641.17 848.73L1641.21 848.75C1642.97 849.54 1643.76 851.6 1642.97 853.36C1642.18 855.11 1640.14 855.91 1638.38 855.12L1632.45 852.51C1630.68 851.73 1629.88 849.66 1630.66 847.89C1631.44 846.12 1633.51 845.32 1635.28 846.1L1635.3 846.11L1635.34 846.13Z" />
				<path id="&lt;Path&gt;" class="shp83" d="M1654.89 854.52L1660.82 856.86L1660.86 856.88C1662.63 857.58 1663.49 859.58 1662.79 861.34C1662.09 863.11 1660.11 863.98 1658.35 863.28L1652.32 860.92C1650.54 860.23 1649.67 858.23 1650.36 856.45C1651.05 854.68 1653.06 853.8 1654.83 854.49L1654.85 854.5L1654.89 854.52Z" />
				<path id="&lt;Path&gt;" class="shp83" d="M1674.79 862.03L1680.81 864.1L1680.86 864.11C1682.63 864.72 1683.57 866.64 1682.96 868.41C1682.36 870.18 1680.45 871.13 1678.68 870.52L1672.55 868.45C1670.77 867.85 1669.81 865.92 1670.41 864.14C1671.01 862.36 1672.94 861.41 1674.72 862.01L1674.74 862.01L1674.79 862.03Z" />
				<path id="&lt;Path&gt;" class="shp83" d="M1695.01 868.58L1701.13 870.34L1701.18 870.36C1702.95 870.87 1703.97 872.71 1703.46 874.48C1702.95 876.25 1701.12 877.28 1699.35 876.77L1693.12 875.01C1691.34 874.5 1690.3 872.65 1690.81 870.87C1691.31 869.09 1693.16 868.05 1694.94 868.56L1694.96 868.56L1695.01 868.58Z" />
				<path id="&lt;Path&gt;" class="shp83" d="M1715.53 874.09L1721.74 875.52L1721.79 875.54C1723.56 875.94 1724.66 877.71 1724.26 879.47C1723.85 881.24 1722.1 882.35 1720.33 881.94L1714 880.51C1712.22 880.11 1711.11 878.34 1711.51 876.56C1711.91 874.79 1713.68 873.67 1715.46 874.07L1715.47 874.08L1715.53 874.09Z" />
				<path id="&lt;Path&gt;" class="shp83" d="M1736.31 878.43L1742.6 879.49L1742.65 879.5C1744.42 879.8 1745.6 881.46 1745.31 883.22C1745.01 884.99 1743.36 886.18 1741.6 885.88L1735.19 884.83C1733.42 884.54 1732.22 882.87 1732.51 881.1C1732.8 879.33 1734.47 878.13 1736.24 878.42L1736.26 878.42L1736.31 878.43Z" />
				<path id="&lt;Path&gt;" class="shp83" d="M1757.32 881.52L1763.66 882.19L1763.72 882.2C1765.47 882.39 1766.73 883.95 1766.54 885.7C1766.36 887.45 1764.81 888.72 1763.06 888.53L1756.6 887.87C1754.85 887.69 1753.57 886.12 1753.75 884.37C1753.93 882.61 1755.49 881.33 1757.25 881.51L1757.27 881.51L1757.32 881.52Z" />
				<path id="&lt;Path&gt;" class="shp83" d="M1778.48 883.32L1784.85 883.6L1784.91 883.61C1786.63 883.68 1787.97 885.15 1787.9 886.87C1787.82 888.6 1786.37 889.94 1784.64 889.86L1778.16 889.6C1776.42 889.53 1775.07 888.07 1775.14 886.33C1775.21 884.6 1776.67 883.24 1778.41 883.31L1778.42 883.32L1778.48 883.32Z" />
				<path id="&lt;Path&gt;" class="shp83" d="M1799.71 883.8L1806.08 883.68L1806.14 883.68C1807.84 883.65 1809.25 885 1809.28 886.7C1809.31 888.4 1807.97 889.8 1806.27 889.84L1799.78 889.99C1798.07 890.03 1796.65 888.68 1796.61 886.97C1796.57 885.26 1797.93 883.84 1799.64 883.8L1799.65 883.8L1799.71 883.8Z" />
				<path id="&lt;Path&gt;" class="shp83" d="M1820.92 882.91L1827.27 882.37L1827.33 882.37C1829 882.22 1830.46 883.46 1830.6 885.13C1830.75 886.8 1829.52 888.26 1827.86 888.4L1821.39 888.98C1819.72 889.14 1818.24 887.9 1818.09 886.22C1817.93 884.55 1819.17 883.07 1820.85 882.92L1820.86 882.92L1820.92 882.91Z" />
				<path id="&lt;Path&gt;" class="shp83" d="M1842.02 880.6L1848.31 879.63L1848.37 879.62C1850 879.36 1851.52 880.48 1851.77 882.1C1852.03 883.73 1850.93 885.25 1849.3 885.5L1842.89 886.53C1841.26 886.79 1839.72 885.68 1839.46 884.05C1839.2 882.41 1840.31 880.88 1841.94 880.62L1841.96 880.61L1842.02 880.6Z" />
				<path id="&lt;Path&gt;" class="shp83" d="M1862.89 876.82L1869.09 875.38L1869.16 875.37C1870.73 875 1872.3 875.99 1872.67 877.56C1873.03 879.14 1872.07 880.71 1870.49 881.07L1864.17 882.56C1862.59 882.94 1861 881.96 1860.63 880.38C1860.25 878.79 1861.23 877.21 1862.81 876.84L1862.83 876.83L1862.89 876.82Z" />
				<path id="&lt;Path&gt;" class="shp83" d="M1883.42 871.49L1889.49 869.58L1889.55 869.56C1891.07 869.09 1892.68 869.93 1893.16 871.44C1893.64 872.96 1892.81 874.57 1891.29 875.05L1885.1 877.03C1883.58 877.51 1881.95 876.67 1881.46 875.15C1880.98 873.63 1881.82 872 1883.34 871.51L1883.35 871.51L1883.42 871.49Z" />
				<path id="&lt;Path&gt;" class="shp83" d="M1903.45 864.57L1909.34 862.17L1909.41 862.15C1910.85 861.56 1912.5 862.26 1913.09 863.7C1913.67 865.14 1912.98 866.78 1911.55 867.37L1905.54 869.85C1904.09 870.45 1902.43 869.76 1901.83 868.31C1901.23 866.86 1901.92 865.2 1903.37 864.6L1903.39 864.59L1903.45 864.57Z" />
				<path id="&lt;Path&gt;" class="shp83" d="M1922.84 856.03L1928.51 853.14L1928.58 853.11C1929.92 852.43 1931.57 852.96 1932.26 854.31C1932.94 855.65 1932.41 857.29 1931.08 857.99L1925.31 860.98C1923.95 861.68 1922.28 861.16 1921.58 859.8C1920.88 858.44 1921.4 856.77 1922.76 856.07L1922.78 856.06L1922.84 856.03Z" />
				<path id="&lt;Path&gt;" class="shp83" d="M1941.42 845.84L1946.8 842.46L1946.86 842.42C1948.1 841.64 1949.74 842.01 1950.52 843.25C1951.3 844.49 1950.93 846.12 1949.7 846.9L1944.22 850.41C1942.98 851.2 1941.32 850.84 1940.52 849.59C1939.72 848.34 1940.09 846.68 1941.34 845.89L1941.35 845.88L1941.42 845.84Z" />
				<path id="&lt;Path&gt;" class="shp83" d="M1958.98 833.99L1964 830.12L1964.07 830.07C1965.2 829.2 1966.81 829.41 1967.68 830.53C1968.54 831.65 1968.34 833.26 1967.23 834.13L1962.1 838.15C1960.97 839.03 1959.34 838.83 1958.45 837.7C1957.57 836.58 1957.77 834.94 1958.9 834.06L1958.91 834.05L1958.98 833.99Z" />
				<path id="&lt;Path&gt;" class="shp83" d="M1975.23 820.46L1979.82 816.06L1979.87 816.01C1980.87 815.06 1982.44 815.09 1983.39 816.09C1984.34 817.07 1984.31 818.64 1983.33 819.59L1978.66 824.13C1977.67 825.1 1976.08 825.07 1975.11 824.08C1974.14 823.08 1974.16 821.49 1975.16 820.52L1975.17 820.51L1975.23 820.46Z" />
				<path id="&lt;Path&gt;" class="shp83" d="M1989.98 805.27L1994.1 800.43L1994.15 800.37C1995.01 799.36 1996.53 799.24 1997.54 800.1C1998.54 800.95 1998.67 802.46 1997.82 803.47L1993.65 808.46C1992.79 809.49 1991.26 809.62 1990.23 808.76C1989.2 807.9 1989.06 806.37 1989.92 805.34L1989.94 805.33L1989.98 805.27Z" />
				<path id="&lt;Path&gt;" class="shp83" d="M2003.14 788.66L2006.75 783.43L2006.79 783.37C2007.52 782.32 2008.97 782.05 2010.02 782.78C2011.07 783.51 2011.33 784.94 2010.62 785.99L2006.96 791.37C2006.24 792.44 2004.78 792.72 2003.71 791.99C2002.64 791.26 2002.36 789.8 2003.09 788.73L2003.1 788.72L2003.14 788.66Z" />
				<path id="&lt;Path&gt;" class="shp83" d="M2014.58 770.82L2017.67 765.25L2017.7 765.19C2018.3 764.11 2019.66 763.72 2020.74 764.32C2021.81 764.92 2022.2 766.27 2021.62 767.34L2018.51 773.05C2017.92 774.15 2016.54 774.55 2015.45 773.96C2014.35 773.36 2013.95 771.99 2014.54 770.89L2014.55 770.87L2014.58 770.82Z" />
				<path id="&lt;Path&gt;" class="shp83" d="M2024.22 751.92L2026.73 746.08L2026.76 746.02C2027.23 744.93 2028.5 744.42 2029.59 744.89C2030.67 745.36 2031.18 746.62 2030.72 747.7L2028.2 753.69C2027.73 754.8 2026.45 755.32 2025.34 754.85C2024.24 754.38 2023.72 753.11 2024.18 752L2024.19 751.98L2024.22 751.92Z" />
				<path id="&lt;Path&gt;" class="shp83" d="M2031.91 732.16L2033.82 726.08L2033.84 726.02C2034.18 724.93 2035.34 724.33 2036.43 724.67C2037.51 725.01 2038.12 726.16 2037.79 727.25L2035.89 733.46C2035.55 734.56 2034.38 735.18 2033.28 734.85C2032.17 734.51 2031.55 733.34 2031.89 732.23L2031.89 732.22L2031.91 732.16Z" />
				<path id="&lt;Path&gt;" class="shp83" d="M2037.52 711.7L2038.77 705.46L2038.78 705.4C2039 704.32 2040.04 703.63 2041.12 703.84C2042.19 704.06 2042.88 705.09 2042.67 706.16L2041.45 712.54C2041.24 713.63 2040.19 714.34 2039.1 714.13C2038.01 713.92 2037.29 712.87 2037.5 711.78L2037.51 711.77L2037.52 711.7Z" />
				<path id="&lt;Path&gt;" class="shp83" d="M2040.88 690.76L2041.42 684.42L2041.42 684.35C2041.51 683.31 2042.43 682.53 2043.48 682.62C2044.52 682.71 2045.29 683.62 2045.21 684.66L2044.71 691.14C2044.62 692.2 2043.7 692.99 2042.64 692.91C2041.58 692.83 2040.79 691.9 2040.87 690.84L2040.87 690.83L2040.88 690.76Z" />
				<path id="&lt;Path&gt;" class="shp83" d="M2041.81 669.58L2041.59 663.22L2041.58 663.15C2041.55 662.15 2042.33 661.31 2043.33 661.28C2044.33 661.24 2045.17 662.02 2045.21 663.01L2045.49 669.5C2045.53 670.52 2044.74 671.38 2043.73 671.42C2042.71 671.46 2041.85 670.68 2041.81 669.66L2041.81 669.65L2041.81 669.58Z" />
				<path id="&lt;Path&gt;" class="shp83" d="M2040.14 648.45L2039.11 642.17L2039.1 642.1C2038.95 641.16 2039.58 640.27 2040.53 640.12C2041.47 639.96 2042.35 640.6 2042.51 641.53L2043.61 647.93C2043.78 648.89 2043.14 649.8 2042.18 649.96C2041.22 650.13 2040.32 649.48 2040.15 648.53L2040.15 648.52L2040.14 648.45Z" />
				<path id="&lt;Path&gt;" class="shp83" d="M2035.75 627.72L2033.89 621.64L2033.87 621.57C2033.6 620.7 2034.09 619.78 2034.96 619.51C2035.82 619.25 2036.74 619.73 2037.01 620.6L2038.96 626.79C2039.24 627.68 2038.75 628.61 2037.87 628.89C2036.98 629.17 2036.05 628.68 2035.77 627.8L2035.77 627.78L2035.75 627.72Z" />
			</g>
			<g id="&lt;Group&gt;">
				<path id="&lt;Path&gt;" class="shp16" d="M2042.22 576.73L2019.94 600.55L2013.39 575.22L2042.22 576.73Z" />
				<path id="&lt;Path&gt;" class="shp15" d="M1947.88 462.85L1959.44 579.46C1959.66 581.7 1960.78 583.74 1962.54 585.13C1964.3 586.52 1966.55 587.13 1968.77 586.83L2085.42 570.82C2086.75 570.63 2087.84 569.66 2088.18 568.35C2088.51 567.04 2088.01 565.67 2086.93 564.87L1947.88 462.85Z" />
				<path id="&lt;Path&gt;" class="shp16" d="M2042.21 576.72L1947.88 462.85L2023.4 579.37L2017.5 586.24L2042.21 576.72Z" />
				<path id="&lt;Path&gt;" class="shp16" d="M2012.23 580.85L2019.94 600.55L2023.4 579.37L2012.23 580.85Z" />
			</g>
		</g>
		<g id="&lt;Group&gt;">
			<path id="&lt;Path&gt;" class="shp84" d="M477.2 844.29C457.57 847.59 444.76 853.57 438.78 862.24C431.58 872.67 402.66 865.78 393.16 887.67C388.26 898.97 376.81 905.81 364.61 904.16C334.2 900.06 284.92 901.97 262.88 950.38C246.06 987.32 261.42 1007.72 280.56 1018.85C294.61 1027.03 300.35 1044.73 292.78 1059.12C285.53 1072.93 284.92 1091.18 306.39 1112.07C338.47 1143.27 383.39 1130.71 441.17 1074.36L504.85 900.99L477.2 844.29Z" />
			<path id="&lt;Path&gt;" class="shp85" d="M310.18 1476.31L308.09 1493.52C307.69 1496.78 305.12 1499.36 301.85 1499.74C296.34 1500.37 287.49 1501.01 278.83 1500.1C275.02 1499.69 272.56 1495.85 273.71 1492.2C275.83 1485.56 279.69 1475.59 285.26 1469.72L304.34 1469.72C307.87 1469.72 310.61 1472.81 310.18 1476.31Z" />
			<path id="&lt;Path&gt;" class="shp86" d="M459.67 1274.76L462.89 1293.71C455.7 1366.56 451.46 1417.55 450.18 1446.69C449.88 1453.55 451.66 1460.32 455.25 1466.16L474.01 1496.62L426.34 1468.49L425.39 1462.67L433.19 1451.94L422.97 1329.53C422.37 1322.34 423.85 1315.12 427.24 1308.75L437.11 1290.23L459.67 1274.76Z" />
			<path id="&lt;Path&gt;" class="shp87" d="M477.15 1501.04L461.94 1501.04C459.09 1501.04 456.4 1499.73 454.67 1497.47C449.92 1491.31 440.1 1479.28 435.4 1478.97C431.18 1478.69 429.34 1486.04 429.88 1501.04L426.34 1501.04L421.85 1473.09C420.72 1466.06 424.21 1459.1 430.53 1455.8C431.49 1462.93 434.59 1468.07 439.81 1471.23C445.04 1474.38 455.67 1481.6 471.72 1492.89C473.68 1492.61 475.74 1492.67 477.9 1493.06C482.7 1493.93 482.03 1501.04 477.15 1501.04Z" />
			<path id="&lt;Path&gt;" class="shp88" d="M394.37 1283.76C352.24 1363.68 327.82 1412.77 321.12 1431.02C311.08 1458.39 307.56 1481.22 307.42 1483.38C307.21 1486.76 303.01 1490 291.43 1490C285.45 1490 282.52 1487.61 281.09 1485.29C279.86 1483.31 279.8 1480.83 280.83 1478.75C284.49 1471.35 296.09 1447.7 300.39 1436.98C305.52 1424.18 316.55 1366.15 322.6 1345.98C328.66 1325.8 335.5 1303.92 361.85 1283.76C373.91 1271.95 384.75 1271.95 394.37 1283.76Z" />
			<path id="&lt;Path&gt;" class="shp89" d="M434.3 1087.32C445.16 1041.27 436.83 1005.22 409.3 979.17C426.67 962.49 451.18 950.36 482.84 942.77C513.04 964.85 526.35 984.54 522.77 1001.82C520.67 1011.95 510.05 1042.29 490.92 1092.84C473.23 1101.21 454.36 1099.37 434.3 1087.32Z" />
			<path id="&lt;Path&gt;" class="shp90" d="M398.15 1121.52C402.57 1108.2 414.62 1096.8 434.3 1087.32C454.36 1099.37 473.23 1101.21 490.92 1092.84C494.89 1108 495.51 1122.63 492.77 1136.72C490.03 1150.81 480.07 1203.14 462.89 1293.71C435.82 1299.19 401.47 1296.43 359.84 1285.43C385.71 1239.52 391.52 1141.51 398.15 1121.52Z" />
			<path id="&lt;Path&gt;" class="shp91" d="M465.25 895.37L452 954.91C450.73 960.15 455.51 959.29 460.81 958.29C469.5 956.65 479.97 959.13 483.71 952.37C484.09 951.68 485 945.06 485.11 944.28L490.8 903C491.25 899.72 489.48 896.55 486.46 895.2L475.47 890.33C471.24 888.46 466.34 890.87 465.25 895.37Z" />
			<g id="&lt;Group&gt;">
				<path id="&lt;Path&gt;" class="shp92" d="M502.22 847.52C509.45 856.28 512.71 869.02 512.01 885.71C510.96 910.76 499.05 916.35 489.51 912.99C479.97 909.62 466.8 902.49 459.55 882.17C452.31 861.85 487.77 831.1 502.22 847.52Z" />
				<path id="&lt;Path&gt;" class="shp93" d="M474.6 876.37C477.85 853.1 488.23 845.9 505.73 854.75L509.63 862.25C521.69 854.71 523.84 845.61 516.08 834.95C504.45 818.96 482.71 815.78 464.97 833.45C447.23 851.11 438.68 864.67 444.51 880.61C448.39 891.23 453.86 893.51 460.92 887.46C460.18 879.04 461.52 873.57 464.92 871.05C468.33 868.53 470.87 870.3 472.53 876.36L474.6 876.37Z" />
				<path id="&lt;Path&gt;" class="shp94" d="M472.33 882.96C474.07 871.01 471.53 865.82 464.71 867.37C454.47 869.71 463.15 884.38 466.82 889.58L472.33 882.96Z" />
			</g>
			<path id="&lt;Path&gt;" class="shp95" d="M409.3 979.17C384.69 1080.09 416.3 1140.21 504.13 1159.54L517.63 1149.93C453.9 1122.03 428.92 1078.37 442.69 1018.92C442.2 990.14 431.07 976.89 409.3 979.17Z" />
			<path id="&lt;Path&gt;" class="shp96" d="M504.74 1151.61C516.33 1142.9 527.25 1141.53 537.53 1147.51C552.94 1156.48 554.53 1167.46 550.51 1168C546.49 1168.54 536.91 1160.58 526.39 1163.79C515.88 1166.99 490.52 1170.87 504.74 1151.61Z" />
		</g>
	</g>
</svg>