<svg version="1.2" baseProfile="tiny-ps" xmlns="http://www.w3.org/2000/svg" viewBox="0 0 3200 2000" width="3200" height="2000">
	<title>6517-ai</title>
	<style>
		tspan { white-space:pre }
		.shp0 { fill: #ebf3fa } 
		.shp1 { fill: #d9e7fa } 
		.shp2 { fill: #dce9fa } 
		.shp3 { fill: #dceaf9 } 
		.shp4 { opacity: 0.502;fill: #f8fbff } 
		.shp5 { fill: #c7dcf9 } 
		.shp6 { fill: #f8fbff } 
		.shp7 { fill: #82b378 } 
		.shp8 { fill: #f99746 } 
		.shp9 { fill: #ed7d2b } 
		.shp10 { fill: #ffb27d } 
		.shp11 { fill: #233862 } 
		.shp12 { fill: #2a4e96 } 
		.shp13 { fill: #ed985f } 
		.shp14 { fill: #2c3a64 } 
		.shp15 { fill: #ffffff } 
		.shp16 { fill: #a2c5f9 } 
		.shp17 { fill: #afcdfb } 
		.shp18 { fill: #d2e4f9 } 
		.shp19 { fill: #ed975d } 
		.shp20 { fill: #a8d29f } 
		.shp21 { fill: #2e3552 } 
		.shp22 { fill: #d36d1a } 
		.shp23 { fill: #f49540 } 
		.shp24 { fill: #ffa255 } 
	</style>
	<g id="Слой 1">
		<g id="&lt;Group&gt;">
			<path id="&lt;Path&gt;" class="shp0" d="M370.58 1786.97C303.82 1608.9 252.42 1401.61 259.73 1211.87C265.98 1065.17 303.94 907.87 496.11 727.18C873.62 374 1306.44 714.79 1574.25 477.73C1836.1 246.17 2326.06 242.73 2545.22 456.39C2656.53 567.62 2677.98 704.89 2637.94 853.63C2625.56 899.19 2609.16 940.14 2589.29 982.38C2529.39 1107.68 2578.73 1182.72 2654.23 1251.34C2720.02 1311.29 2792.21 1356.75 2846.77 1432.18C2923.55 1540.84 2903.89 1667.26 2843.56 1787.66L370.58 1786.97Z" />
			<g id="&lt;Group&gt;">
				<path id="&lt;Path&gt;" class="shp1" d="M1579.25 1686.07L1735.1 1686.07L1735.1 1113.13L1579.25 1113.13L1579.25 1686.07Z" />
				<path id="&lt;Path&gt;" class="shp2" d="M1544.25 1686.07L1700.1 1686.07L1700.1 1113.13L1544.25 1113.13L1544.25 1686.07Z" />
				<path id="&lt;Path&gt;" class="shp1" d="M1700.06 1190.96L1544.25 1190.96L1544.25 1149.6L1700.06 1149.6L1700.06 1190.96Z" />
				<path id="&lt;Path&gt;" class="shp1" d="M1700.06 1280.65L1544.25 1280.65L1544.25 1239.29L1700.06 1239.29L1700.06 1280.65Z" />
				<path id="&lt;Path&gt;" class="shp1" d="M1700.06 1370.34L1544.25 1370.34L1544.25 1328.99L1700.06 1328.99L1700.06 1370.34Z" />
				<path id="&lt;Path&gt;" class="shp1" d="M1700.06 1460.03L1544.25 1460.03L1544.25 1418.68L1700.06 1418.68L1700.06 1460.03Z" />
				<path id="&lt;Path&gt;" class="shp1" d="M1700.06 1549.73L1544.25 1549.73L1544.25 1508.37L1700.06 1508.37L1700.06 1549.73Z" />
				<path id="&lt;Path&gt;" class="shp1" d="M1700.06 1639.42L1544.25 1639.42L1544.25 1598.06L1700.06 1598.06L1700.06 1639.42Z" />
				<path id="&lt;Path&gt;" class="shp1" d="M1330.12 1686.07L1485.97 1686.07L1485.97 1178.87L1330.12 1178.87L1330.12 1686.07Z" />
				<path id="&lt;Path&gt;" class="shp2" d="M1295.12 1686.07L1450.97 1686.07L1450.97 1178.87L1295.12 1178.87L1295.12 1686.07Z" />
				<path id="&lt;Path&gt;" class="shp1" d="M1450.93 1261.01L1295.12 1261.01L1295.12 1225.51L1450.93 1225.51L1450.93 1261.01Z" />
				<path id="&lt;Path&gt;" class="shp1" d="M1450.93 1338.02L1295.12 1338.02L1295.12 1302.51L1450.93 1302.51L1450.93 1338.02Z" />
				<path id="&lt;Path&gt;" class="shp1" d="M1450.93 1415.02L1295.12 1415.02L1295.12 1379.51L1450.93 1379.51L1450.93 1415.02Z" />
				<path id="&lt;Path&gt;" class="shp1" d="M1450.93 1492.02L1295.12 1492.02L1295.12 1456.51L1450.93 1456.51L1450.93 1492.02Z" />
				<path id="&lt;Path&gt;" class="shp1" d="M1450.93 1569.02L1295.12 1569.02L1295.12 1533.52L1450.93 1533.52L1450.93 1569.02Z" />
				<path id="&lt;Path&gt;" class="shp1" d="M1450.93 1646.02L1295.12 1646.02L1295.12 1610.52L1450.93 1610.52L1450.93 1646.02Z" />
				<path id="&lt;Path&gt;" class="shp3" d="M1819.44 1753.98L1754.18 1753.98L1754.18 1664.12L1819.44 1664.12L1819.44 1753.98Z" />
				<path id="&lt;Path&gt;" class="shp2" d="M2843.56 1787.66C2903.89 1667.26 2923.55 1540.84 2846.77 1432.18C2792.24 1356.79 2720.09 1311.34 2654.33 1251.43L2511.45 1251.43L2511.45 1095.91L2412.76 1095.91L2412.76 1196.87L2390.25 1196.87L2390.25 1076.34L2291.55 1076.34L2291.55 1302.31L2166.73 1302.31L2166.73 1434.08L2120.11 1434.08L2120.11 1467.27L2012.97 1467.27L2012.97 1410.1L1951.47 1410.1L1951.47 1254.78L1875.49 1254.78L1875.49 1541.51L1799.52 1541.51L1799.52 1787.37L2843.56 1787.66Z" />
				<path id="&lt;Path&gt;" class="shp1" d="M2390.25 1114.62L2291.5 1114.62L2291.5 1091.59L2390.25 1091.59L2390.25 1114.62Z" />
				<path id="&lt;Path&gt;" class="shp1" d="M2390.25 1157.87L2291.5 1157.87L2291.5 1134.85L2390.25 1134.85L2390.25 1157.87Z" />
				<path id="&lt;Path&gt;" class="shp1" d="M2390.25 1196.79L2291.5 1196.79L2291.5 1173.76L2390.25 1173.76L2390.25 1196.79Z" />
				<path id="&lt;Path&gt;" class="shp1" d="M2511.42 1196.79L2412.67 1196.79L2412.67 1173.76L2511.42 1173.76L2511.42 1196.79Z" />
				<path id="&lt;Path&gt;" class="shp1" d="M2511.42 1157.87L2412.67 1157.87L2412.67 1134.85L2511.42 1134.85L2511.42 1157.87Z" />
				<path id="&lt;Path&gt;" class="shp1" d="M2511.42 1119.02L2412.67 1119.02L2412.67 1095.99L2511.42 1095.99L2511.42 1119.02Z" />
				<path id="&lt;Path&gt;" class="shp1" d="M2511.45 1234.52L2291.5 1234.52L2291.5 1211.49L2511.45 1211.49L2511.45 1234.52Z" />
				<path id="&lt;Path&gt;" class="shp1" d="M2511.45 1272.25L2291.5 1272.25L2291.5 1249.22L2511.45 1249.22L2511.45 1272.25Z" />
				<path id="&lt;Path&gt;" class="shp1" d="M1952.17 1290.34L1875.53 1290.34L1875.53 1254.8L1952.17 1254.8L1952.17 1290.34Z" />
				<path id="&lt;Path&gt;" class="shp1" d="M1952.17 1343.19L1875.53 1343.19L1875.53 1307.65L1952.17 1307.65L1952.17 1343.19Z" />
				<path id="&lt;Path&gt;" class="shp1" d="M1952.17 1396.05L1875.53 1396.05L1875.53 1360.51L1952.17 1360.51L1952.17 1396.05Z" />
				<path id="&lt;Path&gt;" class="shp1" d="M1952.17 1451.45L1875.53 1451.45L1875.53 1415.91L1952.17 1415.91L1952.17 1451.45Z" />
				<path id="&lt;Path&gt;" class="shp1" d="M1952.17 1505.13L1875.53 1505.13L1875.53 1469.59L1952.17 1469.59L1952.17 1505.13Z" />
				<path id="&lt;Path&gt;" class="shp1" d="M1952.17 1558.82L1875.53 1558.82L1875.53 1523.28L1952.17 1523.28L1952.17 1558.82Z" />
				<path id="&lt;Path&gt;" class="shp1" d="M1952.17 1614.99L1875.53 1614.99L1875.53 1579.45L1952.17 1579.45L1952.17 1614.99Z" />
				<path id="&lt;Path&gt;" class="shp1" d="M2511.45 1300.71L2291.5 1300.71L2291.5 1286.1L2511.45 1286.1L2511.45 1300.71Z" />
				<path id="&lt;Path&gt;" class="shp1" d="M1951.11 1254.8L1951.11 1410.11L1979.37 1410.11L1979.37 1254.8L1951.11 1254.8Z" />
				<path id="&lt;Path&gt;" class="shp1" d="M2012.97 1410.11L2069.82 1410.11L2069.82 1467.27L2012.97 1467.27L2012.97 1410.11Z" />
				<path id="&lt;Path&gt;" class="shp1" d="M2511.42 1095.99L2511.42 1119.02L2511.44 1211.49L2511.45 1234.51L2511.45 1251.42L2531.04 1251.42L2531.04 1097.83C2530.15 1097.21 2529.28 1096.6 2528.4 1095.99L2511.42 1095.99Z" />
				<path id="&lt;Path&gt;" class="shp1" d="M2390.25 1076.34L2402.29 1076.34L2402.29 1196.79L2390.25 1196.79L2390.25 1076.34Z" />
				<g id="&lt;Group&gt;">
					<g id="&lt;Group&gt;">
						<g id="&lt;Group&gt;">
							<g id="&lt;Group&gt;">
								<path id="&lt;Path&gt;" class="shp1" d="M2203.86 1347.25L2187.13 1347.25L2187.13 1324.98L2203.86 1324.98L2203.86 1347.25Z" />
								<path id="&lt;Path&gt;" class="shp1" d="M2235.15 1347.25L2218.42 1347.25L2218.42 1324.98L2235.15 1324.98L2235.15 1347.25Z" />
								<path id="&lt;Path&gt;" class="shp1" d="M2265.74 1347.25L2249.01 1347.25L2249.01 1324.98L2265.74 1324.98L2265.74 1347.25Z" />
								<path id="&lt;Path&gt;" class="shp1" d="M2294.74 1347.25L2278.01 1347.25L2278.01 1324.98L2294.74 1324.98L2294.74 1347.25Z" />
								<path id="&lt;Path&gt;" class="shp1" d="M2324.29 1347.25L2307.56 1347.25L2307.56 1324.98L2324.29 1324.98L2324.29 1347.25Z" />
							</g>
							<g id="&lt;Group&gt;">
								<path id="&lt;Path&gt;" class="shp1" d="M2354.19 1347.25L2337.46 1347.25L2337.46 1324.98L2354.19 1324.98L2354.19 1347.25Z" />
								<path id="&lt;Path&gt;" class="shp1" d="M2385.48 1347.25L2368.75 1347.25L2368.75 1324.98L2385.48 1324.98L2385.48 1347.25Z" />
								<path id="&lt;Path&gt;" class="shp1" d="M2416.07 1347.25L2399.34 1347.25L2399.34 1324.98L2416.07 1324.98L2416.07 1347.25Z" />
								<path id="&lt;Path&gt;" class="shp1" d="M2445.07 1347.25L2428.34 1347.25L2428.34 1324.98L2445.07 1324.98L2445.07 1347.25Z" />
								<path id="&lt;Path&gt;" class="shp1" d="M2474.62 1347.25L2457.89 1347.25L2457.89 1324.98L2474.62 1324.98L2474.62 1347.25Z" />
							</g>
						</g>
						<g id="&lt;Group&gt;">
							<g id="&lt;Group&gt;">
								<path id="&lt;Path&gt;" class="shp1" d="M2505.43 1347.25L2488.7 1347.25L2488.7 1324.98L2505.43 1324.98L2505.43 1347.25Z" />
								<path id="&lt;Path&gt;" class="shp1" d="M2536.71 1347.25L2519.98 1347.25L2519.98 1324.98L2536.71 1324.98L2536.71 1347.25Z" />
								<path id="&lt;Path&gt;" class="shp1" d="M2567.3 1347.25L2550.57 1347.25L2550.57 1324.98L2567.3 1324.98L2567.3 1347.25Z" />
								<path id="&lt;Path&gt;" class="shp1" d="M2596.3 1347.25L2579.57 1347.25L2579.57 1324.98L2596.3 1324.98L2596.3 1347.25Z" />
								<path id="&lt;Path&gt;" class="shp1" d="M2625.86 1347.25L2609.13 1347.25L2609.13 1324.98L2625.86 1324.98L2625.86 1347.25Z" />
							</g>
							<g id="&lt;Group&gt;">
								<path id="&lt;Path&gt;" class="shp1" d="M2655.75 1347.25L2639.02 1347.25L2639.02 1324.98L2655.75 1324.98L2655.75 1347.25Z" />
							</g>
						</g>
					</g>
					<g id="&lt;Group&gt;">
						<g id="&lt;Group&gt;">
							<g id="&lt;Group&gt;">
								<path id="&lt;Path&gt;" class="shp1" d="M2203.86 1386.55L2187.13 1386.55L2187.13 1364.28L2203.86 1364.28L2203.86 1386.55Z" />
								<path id="&lt;Path&gt;" class="shp1" d="M2235.15 1386.55L2218.42 1386.55L2218.42 1364.28L2235.15 1364.28L2235.15 1386.55Z" />
								<path id="&lt;Path&gt;" class="shp1" d="M2265.74 1386.55L2249.01 1386.55L2249.01 1364.28L2265.74 1364.28L2265.74 1386.55Z" />
								<path id="&lt;Path&gt;" class="shp1" d="M2294.74 1386.55L2278.01 1386.55L2278.01 1364.28L2294.74 1364.28L2294.74 1386.55Z" />
								<path id="&lt;Path&gt;" class="shp1" d="M2324.29 1386.55L2307.56 1386.55L2307.56 1364.28L2324.29 1364.28L2324.29 1386.55Z" />
							</g>
							<g id="&lt;Group&gt;">
								<path id="&lt;Path&gt;" class="shp1" d="M2354.19 1386.55L2337.46 1386.55L2337.46 1364.28L2354.19 1364.28L2354.19 1386.55Z" />
								<path id="&lt;Path&gt;" class="shp1" d="M2385.48 1386.55L2368.75 1386.55L2368.75 1364.28L2385.48 1364.28L2385.48 1386.55Z" />
								<path id="&lt;Path&gt;" class="shp1" d="M2416.07 1386.55L2399.34 1386.55L2399.34 1364.28L2416.07 1364.28L2416.07 1386.55Z" />
								<path id="&lt;Path&gt;" class="shp1" d="M2445.07 1386.55L2428.34 1386.55L2428.34 1364.28L2445.07 1364.28L2445.07 1386.55Z" />
								<path id="&lt;Path&gt;" class="shp1" d="M2474.62 1386.55L2457.89 1386.55L2457.89 1364.28L2474.62 1364.28L2474.62 1386.55Z" />
							</g>
						</g>
						<g id="&lt;Group&gt;">
							<g id="&lt;Group&gt;">
								<path id="&lt;Path&gt;" class="shp1" d="M2505.43 1386.55L2488.7 1386.55L2488.7 1364.28L2505.43 1364.28L2505.43 1386.55Z" />
								<path id="&lt;Path&gt;" class="shp1" d="M2536.71 1386.55L2519.98 1386.55L2519.98 1364.28L2536.71 1364.28L2536.71 1386.55Z" />
								<path id="&lt;Path&gt;" class="shp1" d="M2567.3 1386.55L2550.57 1386.55L2550.57 1364.28L2567.3 1364.28L2567.3 1386.55Z" />
								<path id="&lt;Path&gt;" class="shp1" d="M2596.3 1386.55L2579.57 1386.55L2579.57 1364.28L2596.3 1364.28L2596.3 1386.55Z" />
								<path id="&lt;Path&gt;" class="shp1" d="M2625.86 1386.55L2609.13 1386.55L2609.13 1364.28L2625.86 1364.28L2625.86 1386.55Z" />
							</g>
							<g id="&lt;Group&gt;">
								<path id="&lt;Path&gt;" class="shp1" d="M2655.75 1386.55L2639.02 1386.55L2639.02 1364.28L2655.75 1364.28L2655.75 1386.55Z" />
							</g>
						</g>
					</g>
					<g id="&lt;Group&gt;">
						<g id="&lt;Group&gt;">
							<g id="&lt;Group&gt;">
								<path id="&lt;Path&gt;" class="shp1" d="M2203.86 1425.24L2187.13 1425.24L2187.13 1402.97L2203.86 1402.97L2203.86 1425.24Z" />
								<path id="&lt;Path&gt;" class="shp1" d="M2235.15 1425.24L2218.42 1425.24L2218.42 1402.97L2235.15 1402.97L2235.15 1425.24Z" />
								<path id="&lt;Path&gt;" class="shp1" d="M2265.74 1425.24L2249.01 1425.24L2249.01 1402.97L2265.74 1402.97L2265.74 1425.24Z" />
								<path id="&lt;Path&gt;" class="shp1" d="M2294.74 1425.24L2278.01 1425.24L2278.01 1402.97L2294.74 1402.97L2294.74 1425.24Z" />
								<path id="&lt;Path&gt;" class="shp1" d="M2324.29 1425.24L2307.56 1425.24L2307.56 1402.97L2324.29 1402.97L2324.29 1425.24Z" />
							</g>
							<g id="&lt;Group&gt;">
								<path id="&lt;Path&gt;" class="shp1" d="M2354.19 1425.24L2337.46 1425.24L2337.46 1402.97L2354.19 1402.97L2354.19 1425.24Z" />
								<path id="&lt;Path&gt;" class="shp1" d="M2385.48 1425.24L2368.75 1425.24L2368.75 1402.97L2385.48 1402.97L2385.48 1425.24Z" />
								<path id="&lt;Path&gt;" class="shp1" d="M2416.07 1425.24L2399.34 1425.24L2399.34 1402.97L2416.07 1402.97L2416.07 1425.24Z" />
								<path id="&lt;Path&gt;" class="shp1" d="M2445.07 1425.24L2428.34 1425.24L2428.34 1402.97L2445.07 1402.97L2445.07 1425.24Z" />
								<path id="&lt;Path&gt;" class="shp1" d="M2474.62 1425.24L2457.89 1425.24L2457.89 1402.97L2474.62 1402.97L2474.62 1425.24Z" />
							</g>
						</g>
						<g id="&lt;Group&gt;">
							<g id="&lt;Group&gt;">
								<path id="&lt;Path&gt;" class="shp1" d="M2505.43 1425.24L2488.7 1425.24L2488.7 1402.97L2505.43 1402.97L2505.43 1425.24Z" />
								<path id="&lt;Path&gt;" class="shp1" d="M2536.71 1425.24L2519.98 1425.24L2519.98 1402.97L2536.71 1402.97L2536.71 1425.24Z" />
								<path id="&lt;Path&gt;" class="shp1" d="M2567.3 1425.24L2550.57 1425.24L2550.57 1402.97L2567.3 1402.97L2567.3 1425.24Z" />
								<path id="&lt;Path&gt;" class="shp1" d="M2596.3 1425.24L2579.57 1425.24L2579.57 1402.97L2596.3 1402.97L2596.3 1425.24Z" />
								<path id="&lt;Path&gt;" class="shp1" d="M2625.86 1425.24L2609.13 1425.24L2609.13 1402.97L2625.86 1402.97L2625.86 1425.24Z" />
							</g>
							<g id="&lt;Group&gt;">
								<path id="&lt;Path&gt;" class="shp1" d="M2655.75 1425.24L2639.02 1425.24L2639.02 1402.97L2655.75 1402.97L2655.75 1425.24Z" />
							</g>
						</g>
					</g>
					<g id="&lt;Group&gt;">
						<g id="&lt;Group&gt;">
							<g id="&lt;Group&gt;">
								<g id="&lt;Group&gt;">
									<path id="&lt;Path&gt;" class="shp1" d="M2203.86 1466.36L2187.13 1466.36L2187.13 1444.09L2203.86 1444.09L2203.86 1466.36Z" />
									<path id="&lt;Path&gt;" class="shp1" d="M2235.15 1466.36L2218.42 1466.36L2218.42 1444.09L2235.15 1444.09L2235.15 1466.36Z" />
									<path id="&lt;Path&gt;" class="shp1" d="M2265.74 1466.36L2249.01 1466.36L2249.01 1444.09L2265.74 1444.09L2265.74 1466.36Z" />
									<path id="&lt;Path&gt;" class="shp1" d="M2294.74 1466.36L2278.01 1466.36L2278.01 1444.09L2294.74 1444.09L2294.74 1466.36Z" />
									<path id="&lt;Path&gt;" class="shp1" d="M2324.29 1466.36L2307.56 1466.36L2307.56 1444.09L2324.29 1444.09L2324.29 1466.36Z" />
								</g>
								<g id="&lt;Group&gt;">
									<path id="&lt;Path&gt;" class="shp1" d="M2354.19 1466.36L2337.46 1466.36L2337.46 1444.09L2354.19 1444.09L2354.19 1466.36Z" />
									<path id="&lt;Path&gt;" class="shp1" d="M2385.48 1466.36L2368.75 1466.36L2368.75 1444.09L2385.48 1444.09L2385.48 1466.36Z" />
									<path id="&lt;Path&gt;" class="shp1" d="M2416.07 1466.36L2399.34 1466.36L2399.34 1444.09L2416.07 1444.09L2416.07 1466.36Z" />
									<path id="&lt;Path&gt;" class="shp1" d="M2445.07 1466.36L2428.34 1466.36L2428.34 1444.09L2445.07 1444.09L2445.07 1466.36Z" />
									<path id="&lt;Path&gt;" class="shp1" d="M2474.62 1466.36L2457.89 1466.36L2457.89 1444.09L2474.62 1444.09L2474.62 1466.36Z" />
								</g>
							</g>
							<g id="&lt;Group&gt;">
								<g id="&lt;Group&gt;">
									<path id="&lt;Path&gt;" class="shp1" d="M2505.43 1466.36L2488.7 1466.36L2488.7 1444.09L2505.43 1444.09L2505.43 1466.36Z" />
									<path id="&lt;Path&gt;" class="shp1" d="M2536.71 1466.36L2519.98 1466.36L2519.98 1444.09L2536.71 1444.09L2536.71 1466.36Z" />
									<path id="&lt;Path&gt;" class="shp1" d="M2567.3 1466.36L2550.57 1466.36L2550.57 1444.09L2567.3 1444.09L2567.3 1466.36Z" />
									<path id="&lt;Path&gt;" class="shp1" d="M2596.3 1466.36L2579.57 1466.36L2579.57 1444.09L2596.3 1444.09L2596.3 1466.36Z" />
									<path id="&lt;Path&gt;" class="shp1" d="M2625.86 1466.36L2609.13 1466.36L2609.13 1444.09L2625.86 1444.09L2625.86 1466.36Z" />
								</g>
								<g id="&lt;Group&gt;">
									<path id="&lt;Path&gt;" class="shp1" d="M2655.75 1466.36L2639.02 1466.36L2639.02 1444.09L2655.75 1444.09L2655.75 1466.36Z" />
								</g>
							</g>
						</g>
						<g id="&lt;Group&gt;">
							<g id="&lt;Group&gt;">
								<g id="&lt;Group&gt;">
									<path id="&lt;Path&gt;" class="shp1" d="M2203.86 1505.66L2187.13 1505.66L2187.13 1483.39L2203.86 1483.39L2203.86 1505.66Z" />
									<path id="&lt;Path&gt;" class="shp1" d="M2235.15 1505.66L2218.42 1505.66L2218.42 1483.39L2235.15 1483.39L2235.15 1505.66Z" />
									<path id="&lt;Path&gt;" class="shp1" d="M2265.74 1505.66L2249.01 1505.66L2249.01 1483.39L2265.74 1483.39L2265.74 1505.66Z" />
									<path id="&lt;Path&gt;" class="shp1" d="M2294.74 1505.66L2278.01 1505.66L2278.01 1483.39L2294.74 1483.39L2294.74 1505.66Z" />
									<path id="&lt;Path&gt;" class="shp1" d="M2324.29 1505.66L2307.56 1505.66L2307.56 1483.39L2324.29 1483.39L2324.29 1505.66Z" />
								</g>
								<g id="&lt;Group&gt;">
									<path id="&lt;Path&gt;" class="shp1" d="M2354.19 1505.66L2337.46 1505.66L2337.46 1483.39L2354.19 1483.39L2354.19 1505.66Z" />
									<path id="&lt;Path&gt;" class="shp1" d="M2385.48 1505.66L2368.75 1505.66L2368.75 1483.39L2385.48 1483.39L2385.48 1505.66Z" />
									<path id="&lt;Path&gt;" class="shp1" d="M2416.07 1505.66L2399.34 1505.66L2399.34 1483.39L2416.07 1483.39L2416.07 1505.66Z" />
									<path id="&lt;Path&gt;" class="shp1" d="M2445.07 1505.66L2428.34 1505.66L2428.34 1483.39L2445.07 1483.39L2445.07 1505.66Z" />
									<path id="&lt;Path&gt;" class="shp1" d="M2474.62 1505.66L2457.89 1505.66L2457.89 1483.39L2474.62 1483.39L2474.62 1505.66Z" />
								</g>
							</g>
							<g id="&lt;Group&gt;">
								<g id="&lt;Group&gt;">
									<path id="&lt;Path&gt;" class="shp1" d="M2505.43 1505.66L2488.7 1505.66L2488.7 1483.39L2505.43 1483.39L2505.43 1505.66Z" />
									<path id="&lt;Path&gt;" class="shp1" d="M2536.71 1505.66L2519.98 1505.66L2519.98 1483.39L2536.71 1483.39L2536.71 1505.66Z" />
									<path id="&lt;Path&gt;" class="shp1" d="M2567.3 1505.66L2550.57 1505.66L2550.57 1483.39L2567.3 1483.39L2567.3 1505.66Z" />
									<path id="&lt;Path&gt;" class="shp1" d="M2596.3 1505.66L2579.57 1505.66L2579.57 1483.39L2596.3 1483.39L2596.3 1505.66Z" />
									<path id="&lt;Path&gt;" class="shp1" d="M2625.86 1505.66L2609.13 1505.66L2609.13 1483.39L2625.86 1483.39L2625.86 1505.66Z" />
								</g>
								<g id="&lt;Group&gt;">
									<path id="&lt;Path&gt;" class="shp1" d="M2655.75 1505.66L2639.02 1505.66L2639.02 1483.39L2655.75 1483.39L2655.75 1505.66Z" />
								</g>
							</g>
						</g>
						<g id="&lt;Group&gt;">
							<g id="&lt;Group&gt;">
								<g id="&lt;Group&gt;">
									<path id="&lt;Path&gt;" class="shp1" d="M2203.86 1544.35L2187.13 1544.35L2187.13 1522.08L2203.86 1522.08L2203.86 1544.35Z" />
									<path id="&lt;Path&gt;" class="shp1" d="M2235.15 1544.35L2218.42 1544.35L2218.42 1522.08L2235.15 1522.08L2235.15 1544.35Z" />
									<path id="&lt;Path&gt;" class="shp1" d="M2265.74 1544.35L2249.01 1544.35L2249.01 1522.08L2265.74 1522.08L2265.74 1544.35Z" />
									<path id="&lt;Path&gt;" class="shp1" d="M2294.74 1544.35L2278.01 1544.35L2278.01 1522.08L2294.74 1522.08L2294.74 1544.35Z" />
									<path id="&lt;Path&gt;" class="shp1" d="M2324.29 1544.35L2307.56 1544.35L2307.56 1522.08L2324.29 1522.08L2324.29 1544.35Z" />
								</g>
								<g id="&lt;Group&gt;">
									<path id="&lt;Path&gt;" class="shp1" d="M2354.19 1544.35L2337.46 1544.35L2337.46 1522.08L2354.19 1522.08L2354.19 1544.35Z" />
									<path id="&lt;Path&gt;" class="shp1" d="M2385.48 1544.35L2368.75 1544.35L2368.75 1522.08L2385.48 1522.08L2385.48 1544.35Z" />
									<path id="&lt;Path&gt;" class="shp1" d="M2416.07 1544.35L2399.34 1544.35L2399.34 1522.08L2416.07 1522.08L2416.07 1544.35Z" />
									<path id="&lt;Path&gt;" class="shp1" d="M2445.07 1544.35L2428.34 1544.35L2428.34 1522.08L2445.07 1522.08L2445.07 1544.35Z" />
									<path id="&lt;Path&gt;" class="shp1" d="M2474.62 1544.35L2457.89 1544.35L2457.89 1522.08L2474.62 1522.08L2474.62 1544.35Z" />
								</g>
							</g>
							<g id="&lt;Group&gt;">
								<g id="&lt;Group&gt;">
									<path id="&lt;Path&gt;" class="shp1" d="M2505.43 1544.35L2488.7 1544.35L2488.7 1522.08L2505.43 1522.08L2505.43 1544.35Z" />
									<path id="&lt;Path&gt;" class="shp1" d="M2536.71 1544.35L2519.98 1544.35L2519.98 1522.08L2536.71 1522.08L2536.71 1544.35Z" />
									<path id="&lt;Path&gt;" class="shp1" d="M2567.3 1544.35L2550.57 1544.35L2550.57 1522.08L2567.3 1522.08L2567.3 1544.35Z" />
									<path id="&lt;Path&gt;" class="shp1" d="M2596.3 1544.35L2579.57 1544.35L2579.57 1522.08L2596.3 1522.08L2596.3 1544.35Z" />
									<path id="&lt;Path&gt;" class="shp1" d="M2625.86 1544.35L2609.13 1544.35L2609.13 1522.08L2625.86 1522.08L2625.86 1544.35Z" />
								</g>
								<g id="&lt;Group&gt;">
									<path id="&lt;Path&gt;" class="shp1" d="M2655.75 1544.35L2639.02 1544.35L2639.02 1522.08L2655.75 1522.08L2655.75 1544.35Z" />
								</g>
							</g>
						</g>
					</g>
				</g>
				<path id="&lt;Path&gt;" class="shp1" d="M2457.61 1789.41L2069.82 1789.41L2069.82 1591.85L2457.61 1591.85L2457.61 1789.41Z" />
				<path id="&lt;Path&gt;" class="shp1" d="M2163.56 1789.41L1775.77 1789.41L1775.77 1690.63L2163.56 1690.63L2163.56 1789.41Z" />
				<path id="&lt;Path&gt;" class="shp2" d="M2167.97 1651.58L2095.72 1651.58L2095.72 1614.99L2167.97 1614.99L2167.97 1651.58Z" />
				<path id="&lt;Path&gt;" class="shp2" d="M2260.72 1651.58L2188.47 1651.58L2188.47 1614.99L2260.72 1614.99L2260.72 1651.58Z" />
				<path id="&lt;Path&gt;" class="shp2" d="M2351.7 1651.58L2279.45 1651.58L2279.45 1614.99L2351.7 1614.99L2351.7 1651.58Z" />
				<path id="&lt;Path&gt;" class="shp2" d="M2440.93 1651.58L2368.68 1651.58L2368.68 1614.99L2440.93 1614.99L2440.93 1651.58Z" />
				<path id="&lt;Path&gt;" class="shp3" d="M1892.8 1254.8L1890.78 1254.8L1890.78 1239.33L1892.8 1239.33L1892.8 1254.8Z" />
				<path id="&lt;Path&gt;" class="shp3" d="M1965.22 1254.8L1963.2 1254.8L1963.2 1239.33L1965.22 1239.33L1965.22 1254.8Z" />
				<path id="&lt;Path&gt;" class="shp2" d="M1566.93 1787.81L1833.19 1787.81L1833.19 1618.71L1566.93 1618.71L1566.93 1787.81Z" />
				<path id="&lt;Path&gt;" class="shp1" d="M1566.93 1651.58L1833.19 1651.58L1833.19 1596.62L1566.93 1596.62L1566.93 1651.58Z" />
				<g id="&lt;Group&gt;">
					<g id="&lt;Group&gt;">
						<g id="&lt;Group&gt;">
							<path id="&lt;Path&gt;" class="shp1" d="M1598.73 1686.07L1585.06 1686.07L1585.06 1667.87L1598.73 1667.87L1598.73 1686.07Z" />
							<path id="&lt;Path&gt;" class="shp1" d="M1624.3 1686.07L1610.63 1686.07L1610.63 1667.87L1624.3 1667.87L1624.3 1686.07Z" />
							<path id="&lt;Path&gt;" class="shp1" d="M1649.3 1686.07L1635.63 1686.07L1635.63 1667.87L1649.3 1667.87L1649.3 1686.07Z" />
							<path id="&lt;Path&gt;" class="shp1" d="M1673 1686.07L1659.33 1686.07L1659.33 1667.87L1673 1667.87L1673 1686.07Z" />
							<path id="&lt;Path&gt;" class="shp1" d="M1697.16 1686.07L1683.49 1686.07L1683.49 1667.87L1697.16 1667.87L1697.16 1686.07Z" />
						</g>
						<g id="&lt;Group&gt;">
							<path id="&lt;Path&gt;" class="shp1" d="M1721.6 1686.07L1707.92 1686.07L1707.92 1667.87L1721.6 1667.87L1721.6 1686.07Z" />
							<path id="&lt;Path&gt;" class="shp1" d="M1747.17 1686.07L1733.5 1686.07L1733.5 1667.87L1747.17 1667.87L1747.17 1686.07Z" />
							<path id="&lt;Path&gt;" class="shp1" d="M1772.17 1686.07L1758.49 1686.07L1758.49 1667.87L1772.17 1667.87L1772.17 1686.07Z" />
							<path id="&lt;Path&gt;" class="shp1" d="M1795.87 1686.07L1782.2 1686.07L1782.2 1667.87L1795.87 1667.87L1795.87 1686.07Z" />
							<path id="&lt;Path&gt;" class="shp1" d="M1820.03 1686.07L1806.36 1686.07L1806.36 1667.87L1820.03 1667.87L1820.03 1686.07Z" />
						</g>
					</g>
					<g id="&lt;Group&gt;">
						<g id="&lt;Group&gt;">
							<path id="&lt;Path&gt;" class="shp1" d="M1598.73 1718.19L1585.06 1718.19L1585.06 1699.98L1598.73 1699.98L1598.73 1718.19Z" />
							<path id="&lt;Path&gt;" class="shp1" d="M1624.3 1718.19L1610.63 1718.19L1610.63 1699.98L1624.3 1699.98L1624.3 1718.19Z" />
							<path id="&lt;Path&gt;" class="shp1" d="M1649.3 1718.19L1635.63 1718.19L1635.63 1699.98L1649.3 1699.98L1649.3 1718.19Z" />
							<path id="&lt;Path&gt;" class="shp1" d="M1673 1718.19L1659.33 1718.19L1659.33 1699.98L1673 1699.98L1673 1718.19Z" />
							<path id="&lt;Path&gt;" class="shp1" d="M1697.16 1718.19L1683.49 1718.19L1683.49 1699.98L1697.16 1699.98L1697.16 1718.19Z" />
						</g>
						<g id="&lt;Group&gt;">
							<path id="&lt;Path&gt;" class="shp1" d="M1721.6 1718.19L1707.92 1718.19L1707.92 1699.98L1721.6 1699.98L1721.6 1718.19Z" />
							<path id="&lt;Path&gt;" class="shp1" d="M1747.17 1718.19L1733.5 1718.19L1733.5 1699.98L1747.17 1699.98L1747.17 1718.19Z" />
							<path id="&lt;Path&gt;" class="shp1" d="M1772.17 1718.19L1758.49 1718.19L1758.49 1699.98L1772.17 1699.98L1772.17 1718.19Z" />
							<path id="&lt;Path&gt;" class="shp1" d="M1795.87 1718.19L1782.2 1718.19L1782.2 1699.98L1795.87 1699.98L1795.87 1718.19Z" />
							<path id="&lt;Path&gt;" class="shp1" d="M1820.03 1718.19L1806.36 1718.19L1806.36 1699.98L1820.03 1699.98L1820.03 1718.19Z" />
						</g>
					</g>
					<g id="&lt;Group&gt;">
						<g id="&lt;Group&gt;">
							<path id="&lt;Path&gt;" class="shp1" d="M1598.73 1749.81L1585.06 1749.81L1585.06 1731.61L1598.73 1731.61L1598.73 1749.81Z" />
							<path id="&lt;Path&gt;" class="shp1" d="M1624.3 1749.81L1610.63 1749.81L1610.63 1731.61L1624.3 1731.61L1624.3 1749.81Z" />
							<path id="&lt;Path&gt;" class="shp1" d="M1649.3 1749.81L1635.63 1749.81L1635.63 1731.61L1649.3 1731.61L1649.3 1749.81Z" />
							<path id="&lt;Path&gt;" class="shp1" d="M1673 1749.81L1659.33 1749.81L1659.33 1731.61L1673 1731.61L1673 1749.81Z" />
							<path id="&lt;Path&gt;" class="shp1" d="M1697.16 1749.81L1683.49 1749.81L1683.49 1731.61L1697.16 1731.61L1697.16 1749.81Z" />
						</g>
						<g id="&lt;Group&gt;">
							<path id="&lt;Path&gt;" class="shp1" d="M1721.6 1749.81L1707.92 1749.81L1707.92 1731.61L1721.6 1731.61L1721.6 1749.81Z" />
							<path id="&lt;Path&gt;" class="shp1" d="M1747.17 1749.81L1733.5 1749.81L1733.5 1731.61L1747.17 1731.61L1747.17 1749.81Z" />
							<path id="&lt;Path&gt;" class="shp1" d="M1772.17 1749.81L1758.49 1749.81L1758.49 1731.61L1772.17 1731.61L1772.17 1749.81Z" />
							<path id="&lt;Path&gt;" class="shp1" d="M1795.87 1749.81L1782.2 1749.81L1782.2 1731.61L1795.87 1731.61L1795.87 1749.81Z" />
							<path id="&lt;Path&gt;" class="shp1" d="M1820.03 1749.81L1806.36 1749.81L1806.36 1731.61L1820.03 1731.61L1820.03 1749.81Z" />
						</g>
					</g>
				</g>
				<path id="&lt;Path&gt;" class="shp2" d="M1299.93 1787.81L1566.19 1787.81L1566.19 1618.71L1299.93 1618.71L1299.93 1787.81Z" />
				<path id="&lt;Path&gt;" class="shp1" d="M1299.93 1651.58L1566.19 1651.58L1566.19 1596.62L1299.93 1596.62L1299.93 1651.58Z" />
				<g id="&lt;Group&gt;">
					<g id="&lt;Group&gt;">
						<g id="&lt;Group&gt;">
							<path id="&lt;Path&gt;" class="shp1" d="M1331.73 1686.07L1318.06 1686.07L1318.06 1667.87L1331.73 1667.87L1331.73 1686.07Z" />
							<path id="&lt;Path&gt;" class="shp1" d="M1357.31 1686.07L1343.63 1686.07L1343.63 1667.87L1357.31 1667.87L1357.31 1686.07Z" />
							<path id="&lt;Path&gt;" class="shp1" d="M1382.31 1686.07L1368.63 1686.07L1368.63 1667.87L1382.31 1667.87L1382.31 1686.07Z" />
							<path id="&lt;Path&gt;" class="shp1" d="M1406.01 1686.07L1392.33 1686.07L1392.33 1667.87L1406.01 1667.87L1406.01 1686.07Z" />
							<path id="&lt;Path&gt;" class="shp1" d="M1430.17 1686.07L1416.49 1686.07L1416.49 1667.87L1430.17 1667.87L1430.17 1686.07Z" />
						</g>
						<g id="&lt;Group&gt;">
							<path id="&lt;Path&gt;" class="shp1" d="M1454.6 1686.07L1440.93 1686.07L1440.93 1667.87L1454.6 1667.87L1454.6 1686.07Z" />
							<path id="&lt;Path&gt;" class="shp1" d="M1480.17 1686.07L1466.5 1686.07L1466.5 1667.87L1480.17 1667.87L1480.17 1686.07Z" />
							<path id="&lt;Path&gt;" class="shp1" d="M1505.17 1686.07L1491.5 1686.07L1491.5 1667.87L1505.17 1667.87L1505.17 1686.07Z" />
							<path id="&lt;Path&gt;" class="shp1" d="M1528.88 1686.07L1515.2 1686.07L1515.2 1667.87L1528.88 1667.87L1528.88 1686.07Z" />
							<path id="&lt;Path&gt;" class="shp1" d="M1553.03 1686.07L1539.36 1686.07L1539.36 1667.87L1553.03 1667.87L1553.03 1686.07Z" />
						</g>
					</g>
					<g id="&lt;Group&gt;">
						<g id="&lt;Group&gt;">
							<path id="&lt;Path&gt;" class="shp1" d="M1331.73 1718.19L1318.06 1718.19L1318.06 1699.98L1331.73 1699.98L1331.73 1718.19Z" />
							<path id="&lt;Path&gt;" class="shp1" d="M1357.31 1718.19L1343.63 1718.19L1343.63 1699.98L1357.31 1699.98L1357.31 1718.19Z" />
							<path id="&lt;Path&gt;" class="shp1" d="M1382.31 1718.19L1368.63 1718.19L1368.63 1699.98L1382.31 1699.98L1382.31 1718.19Z" />
							<path id="&lt;Path&gt;" class="shp1" d="M1406.01 1718.19L1392.33 1718.19L1392.33 1699.98L1406.01 1699.98L1406.01 1718.19Z" />
							<path id="&lt;Path&gt;" class="shp1" d="M1430.17 1718.19L1416.49 1718.19L1416.49 1699.98L1430.17 1699.98L1430.17 1718.19Z" />
						</g>
						<g id="&lt;Group&gt;">
							<path id="&lt;Path&gt;" class="shp1" d="M1454.6 1718.19L1440.93 1718.19L1440.93 1699.98L1454.6 1699.98L1454.6 1718.19Z" />
							<path id="&lt;Path&gt;" class="shp1" d="M1480.17 1718.19L1466.5 1718.19L1466.5 1699.98L1480.17 1699.98L1480.17 1718.19Z" />
							<path id="&lt;Path&gt;" class="shp1" d="M1505.17 1718.19L1491.5 1718.19L1491.5 1699.98L1505.17 1699.98L1505.17 1718.19Z" />
							<path id="&lt;Path&gt;" class="shp1" d="M1528.88 1718.19L1515.2 1718.19L1515.2 1699.98L1528.88 1699.98L1528.88 1718.19Z" />
							<path id="&lt;Path&gt;" class="shp1" d="M1553.03 1718.19L1539.36 1718.19L1539.36 1699.98L1553.03 1699.98L1553.03 1718.19Z" />
						</g>
					</g>
					<g id="&lt;Group&gt;">
						<g id="&lt;Group&gt;">
							<path id="&lt;Path&gt;" class="shp1" d="M1331.73 1749.81L1318.06 1749.81L1318.06 1731.61L1331.73 1731.61L1331.73 1749.81Z" />
							<path id="&lt;Path&gt;" class="shp1" d="M1357.31 1749.81L1343.63 1749.81L1343.63 1731.61L1357.31 1731.61L1357.31 1749.81Z" />
							<path id="&lt;Path&gt;" class="shp1" d="M1382.31 1749.81L1368.63 1749.81L1368.63 1731.61L1382.31 1731.61L1382.31 1749.81Z" />
							<path id="&lt;Path&gt;" class="shp1" d="M1406.01 1749.81L1392.33 1749.81L1392.33 1731.61L1406.01 1731.61L1406.01 1749.81Z" />
							<path id="&lt;Path&gt;" class="shp1" d="M1430.17 1749.81L1416.49 1749.81L1416.49 1731.61L1430.17 1731.61L1430.17 1749.81Z" />
						</g>
						<g id="&lt;Group&gt;">
							<path id="&lt;Path&gt;" class="shp1" d="M1454.6 1749.81L1440.93 1749.81L1440.93 1731.61L1454.6 1731.61L1454.6 1749.81Z" />
							<path id="&lt;Path&gt;" class="shp1" d="M1480.17 1749.81L1466.5 1749.81L1466.5 1731.61L1480.17 1731.61L1480.17 1749.81Z" />
							<path id="&lt;Path&gt;" class="shp1" d="M1505.17 1749.81L1491.5 1749.81L1491.5 1731.61L1505.17 1731.61L1505.17 1749.81Z" />
							<path id="&lt;Path&gt;" class="shp1" d="M1528.88 1749.81L1515.2 1749.81L1515.2 1731.61L1528.88 1731.61L1528.88 1749.81Z" />
							<path id="&lt;Path&gt;" class="shp1" d="M1553.03 1749.81L1539.36 1749.81L1539.36 1731.61L1553.03 1731.61L1553.03 1749.81Z" />
						</g>
					</g>
				</g>
				<path id="&lt;Path&gt;" class="shp2" d="M1016.32 1787.81L1282.58 1787.81L1282.58 1618.71L1016.32 1618.71L1016.32 1787.81Z" />
				<path id="&lt;Path&gt;" class="shp1" d="M1016.32 1651.58L1282.58 1651.58L1282.58 1596.62L1016.32 1596.62L1016.32 1651.58Z" />
				<g id="&lt;Group&gt;">
					<g id="&lt;Group&gt;">
						<g id="&lt;Group&gt;">
							<path id="&lt;Path&gt;" class="shp1" d="M1048.12 1686.07L1034.45 1686.07L1034.45 1667.87L1048.12 1667.87L1048.12 1686.07Z" />
							<path id="&lt;Path&gt;" class="shp1" d="M1073.7 1686.07L1060.02 1686.07L1060.02 1667.87L1073.7 1667.87L1073.7 1686.07Z" />
							<path id="&lt;Path&gt;" class="shp1" d="M1098.7 1686.07L1085.02 1686.07L1085.02 1667.87L1098.7 1667.87L1098.7 1686.07Z" />
							<path id="&lt;Path&gt;" class="shp1" d="M1122.4 1686.07L1108.72 1686.07L1108.72 1667.87L1122.4 1667.87L1122.4 1686.07Z" />
							<path id="&lt;Path&gt;" class="shp1" d="M1146.56 1686.07L1132.88 1686.07L1132.88 1667.87L1146.56 1667.87L1146.56 1686.07Z" />
						</g>
						<g id="&lt;Group&gt;">
							<path id="&lt;Path&gt;" class="shp1" d="M1170.99 1686.07L1157.32 1686.07L1157.32 1667.87L1170.99 1667.87L1170.99 1686.07Z" />
							<path id="&lt;Path&gt;" class="shp1" d="M1196.56 1686.07L1182.89 1686.07L1182.89 1667.87L1196.56 1667.87L1196.56 1686.07Z" />
							<path id="&lt;Path&gt;" class="shp1" d="M1221.56 1686.07L1207.89 1686.07L1207.89 1667.87L1221.56 1667.87L1221.56 1686.07Z" />
							<path id="&lt;Path&gt;" class="shp1" d="M1245.27 1686.07L1231.59 1686.07L1231.59 1667.87L1245.27 1667.87L1245.27 1686.07Z" />
							<path id="&lt;Path&gt;" class="shp1" d="M1269.42 1686.07L1255.75 1686.07L1255.75 1667.87L1269.42 1667.87L1269.42 1686.07Z" />
						</g>
					</g>
					<g id="&lt;Group&gt;">
						<g id="&lt;Group&gt;">
							<path id="&lt;Path&gt;" class="shp1" d="M1048.12 1718.19L1034.45 1718.19L1034.45 1699.98L1048.12 1699.98L1048.12 1718.19Z" />
							<path id="&lt;Path&gt;" class="shp1" d="M1073.7 1718.19L1060.02 1718.19L1060.02 1699.98L1073.7 1699.98L1073.7 1718.19Z" />
							<path id="&lt;Path&gt;" class="shp1" d="M1098.7 1718.19L1085.02 1718.19L1085.02 1699.98L1098.7 1699.98L1098.7 1718.19Z" />
							<path id="&lt;Path&gt;" class="shp1" d="M1122.4 1718.19L1108.72 1718.19L1108.72 1699.98L1122.4 1699.98L1122.4 1718.19Z" />
							<path id="&lt;Path&gt;" class="shp1" d="M1146.56 1718.19L1132.88 1718.19L1132.88 1699.98L1146.56 1699.98L1146.56 1718.19Z" />
						</g>
						<g id="&lt;Group&gt;">
							<path id="&lt;Path&gt;" class="shp1" d="M1170.99 1718.19L1157.32 1718.19L1157.32 1699.98L1170.99 1699.98L1170.99 1718.19Z" />
							<path id="&lt;Path&gt;" class="shp1" d="M1196.56 1718.19L1182.89 1718.19L1182.89 1699.98L1196.56 1699.98L1196.56 1718.19Z" />
							<path id="&lt;Path&gt;" class="shp1" d="M1221.56 1718.19L1207.89 1718.19L1207.89 1699.98L1221.56 1699.98L1221.56 1718.19Z" />
							<path id="&lt;Path&gt;" class="shp1" d="M1245.27 1718.19L1231.59 1718.19L1231.59 1699.98L1245.27 1699.98L1245.27 1718.19Z" />
							<path id="&lt;Path&gt;" class="shp1" d="M1269.42 1718.19L1255.75 1718.19L1255.75 1699.98L1269.42 1699.98L1269.42 1718.19Z" />
						</g>
					</g>
					<g id="&lt;Group&gt;">
						<g id="&lt;Group&gt;">
							<path id="&lt;Path&gt;" class="shp1" d="M1048.12 1749.81L1034.45 1749.81L1034.45 1731.61L1048.12 1731.61L1048.12 1749.81Z" />
							<path id="&lt;Path&gt;" class="shp1" d="M1073.7 1749.81L1060.02 1749.81L1060.02 1731.61L1073.7 1731.61L1073.7 1749.81Z" />
							<path id="&lt;Path&gt;" class="shp1" d="M1098.7 1749.81L1085.02 1749.81L1085.02 1731.61L1098.7 1731.61L1098.7 1749.81Z" />
							<path id="&lt;Path&gt;" class="shp1" d="M1122.4 1749.81L1108.72 1749.81L1108.72 1731.61L1122.4 1731.61L1122.4 1749.81Z" />
							<path id="&lt;Path&gt;" class="shp1" d="M1146.56 1749.81L1132.88 1749.81L1132.88 1731.61L1146.56 1731.61L1146.56 1749.81Z" />
						</g>
						<g id="&lt;Group&gt;">
							<path id="&lt;Path&gt;" class="shp1" d="M1170.99 1749.81L1157.32 1749.81L1157.32 1731.61L1170.99 1731.61L1170.99 1749.81Z" />
							<path id="&lt;Path&gt;" class="shp1" d="M1196.56 1749.81L1182.89 1749.81L1182.89 1731.61L1196.56 1731.61L1196.56 1749.81Z" />
							<path id="&lt;Path&gt;" class="shp1" d="M1221.56 1749.81L1207.89 1749.81L1207.89 1731.61L1221.56 1731.61L1221.56 1749.81Z" />
							<path id="&lt;Path&gt;" class="shp1" d="M1245.27 1749.81L1231.59 1749.81L1231.59 1731.61L1245.27 1731.61L1245.27 1749.81Z" />
							<path id="&lt;Path&gt;" class="shp1" d="M1269.42 1749.81L1255.75 1749.81L1255.75 1731.61L1269.42 1731.61L1269.42 1749.81Z" />
						</g>
					</g>
				</g>
			</g>
			<path id="&lt;Path&gt;" class="shp4" d="M2637.94 853.63C2677.98 704.89 2656.53 567.62 2545.22 456.39C2543.78 454.98 2542.31 453.58 2540.84 452.18L280.12 1064.89C267.16 1115.3 261.76 1164.14 259.73 1211.87C259.11 1228.11 258.92 1244.48 259.13 1260.94L2595.27 969.44C2612.47 931.71 2626.83 894.53 2637.94 853.63Z" />
			<path id="&lt;Path&gt;" class="shp5" d="M1746.17 1781.48L368.4 1781.48C363.96 1770.2 353.13 1741.84 339.92 1701.34C330.38 1672.12 319.62 1636.58 309.12 1596.58C301.8 1568.67 294.62 1538.59 288.07 1506.97L288.07 1487.37L425.68 1375.41C615.58 1369.26 749.66 1411.05 827.92 1500.76C945.31 1635.36 1273.21 1520.66 1362.53 1597.28C1451.86 1673.9 1526 1742 1611.51 1723.06C1668.52 1710.43 1713.41 1729.9 1746.17 1781.48Z" />
			<path id="&lt;Path&gt;" class="shp6" d="M1060.02 676.72L404.75 828.51C434.78 789.62 465.29 756.07 496.19 727.17L1060.02 676.72Z" />
			<path id="&lt;Path&gt;" class="shp6" d="M2018.67 456.29C2018.67 436.03 2035.09 419.62 2055.34 419.62C2075.6 419.62 2092.01 436.03 2092.01 456.29C2092.01 476.54 2075.6 492.96 2055.34 492.96C2035.09 492.96 2018.67 476.54 2018.67 456.29Z" />
			<path id="&lt;Path&gt;" class="shp7" d="M2708.15 1780.77L2599.55 1780.77C2593.73 1775.83 2603.58 1764.62 2613.87 1763.87C2618.34 1763.53 2623.99 1764.47 2630.44 1765.83C2631.94 1745.98 2640.47 1656.75 2672.64 1660.34C2708.8 1664.35 2672.64 1699.63 2662.41 1720.52C2654.84 1735.99 2646.85 1758.18 2643.2 1768.65C2646.14 1769.29 2649.18 1769.91 2652.28 1770.48C2657.07 1755.76 2674.91 1706.26 2697.59 1709.14C2724.22 1712.52 2713.52 1732.37 2694.64 1744.15C2680.79 1752.81 2663.79 1765.13 2655.71 1771.08C2662.55 1772.2 2669.7 1772.95 2676.95 1772.78C2695.55 1772.34 2704.63 1777.82 2708.15 1780.77Z" />
			<path id="&lt;Path&gt;" class="shp7" d="M1060.14 1778.78C1056.77 1773.48 1046.62 1759.73 1033.09 1761.55C1018.36 1763.53 1049.37 1773.25 1058.86 1778.82C1056.75 1778.85 1054.94 1778.68 1053.61 1778.21C1047.26 1775.95 1036.39 1780.29 1032.92 1781.81L1093.33 1781.81C1092.92 1780.36 1091.83 1778 1089.01 1776.28C1088.02 1775.68 1086.03 1775.59 1083.45 1775.79C1087.05 1771.55 1089.54 1758.02 1079.54 1761.51C1072.23 1764.05 1072.25 1772.31 1072.97 1777.21C1071.42 1777.45 1069.84 1777.69 1068.28 1777.92C1065.28 1762.59 1054.64 1717.66 1033.07 1716.46C1011.21 1715.25 1051.61 1763.06 1065.06 1778.35C1063.34 1778.55 1061.68 1778.71 1060.14 1778.78Z" />
			<g id="&lt;Group&gt;">
				<path id="&lt;Path&gt;" class="shp8" d="M1795.08 1366.84C1782.48 1380.57 1763.59 1394.71 1793.62 1426.1C1819.3 1452.91 1851.99 1524.09 1891.7 1639.63C1889.66 1646.25 1891.76 1655.44 1887.05 1658.14C1881.97 1661.05 1872.95 1658.07 1859.98 1649.18C1742.06 1527.03 1678.31 1452.22 1668.75 1424.75C1658.15 1394.33 1712.32 1246.96 1744.73 1169.75C1756.21 1142.39 1764.96 1123.85 1767.14 1122.41C1767.47 1122.18 1767.81 1121.97 1768.14 1121.77C1787.2 1109.69 1805.14 1111.23 1821.16 1120.5C1824.58 1122.48 1827.91 1124.81 1831.15 1127.44C1870.72 1159.54 1896.15 1235.7 1893.51 1251.54C1891.68 1262.56 1872.38 1285.89 1851.19 1308.87C1846.79 1313.64 1842.32 1318.4 1837.9 1323.02C1818.64 1343.21 1800.48 1360.96 1795.08 1366.84Z" />
				<path id="&lt;Path&gt;" class="shp9" d="M1851.19 1308.87C1846.79 1313.64 1842.32 1318.4 1837.9 1323.02L1744.73 1169.75C1756.21 1142.39 1764.96 1123.85 1767.14 1122.41C1767.47 1122.18 1767.81 1121.97 1768.14 1121.77L1821.16 1120.5L1830.74 1120.27L1831.15 1127.44L1851.19 1308.87Z" />
				<path id="&lt;Path&gt;" class="shp10" d="M1798.46 775.71C1811.68 808.01 1816.57 833.76 1813.14 852.98C1808 881.8 1739.78 1025.41 1714.9 1049.99C1698.32 1066.37 1635.07 1039.72 1525.15 970.02L1541.38 954.52C1628.33 976.65 1674.11 984.25 1678.71 977.31C1685.61 966.89 1718.81 762.26 1798.46 775.71Z" />
				<path id="&lt;Path&gt;" class="shp8" d="M1794.55 1155.37C1817.11 1268.15 1856.84 1364.22 1913.75 1443.56C1968.75 1520.24 2010.56 1617.34 2039.17 1734.85C2042.82 1737.7 2048.24 1737.6 2055.42 1734.54C2066.2 1729.97 2073.43 1735.52 2075.6 1730.29C2065.21 1544.79 2045.74 1431.73 2017.2 1391.12C1993.01 1356.7 1980.12 1230.35 1980.94 1195.96C1981.49 1173.04 1976.75 1147.53 1966.72 1119.43L1794.55 1155.37Z" />
				<g id="&lt;Group&gt;">
					<path id="&lt;Path&gt;" class="shp11" d="M2074.8 1780.27L2054.84 1780.41C2048.15 1779.4 2043.2 1777.5 2036.34 1776.66C2025.91 1775.36 2021.15 1779.66 2020.2 1780.65C2020.12 1780.74 2020.05 1780.81 2020.02 1780.85L1935.23 1781.45C1933.07 1778.42 1935.07 1771.35 1937.04 1766.14C1938.37 1762.6 1941.29 1759.91 1944.93 1758.83C1953.9 1756.16 1971.61 1753.72 1987.74 1738.91C1993.79 1733.37 2008.42 1723.15 2031.63 1708.26L2031.81 1708.21C2032.58 1708.22 2036.25 1709.32 2052.25 1722.64C2057.76 1727.22 2065.15 1723.9 2074.41 1712.69C2076.18 1714.13 2077.73 1716.2 2079.05 1718.89C2080.65 1722.08 2081.84 1726.47 2080.97 1731.9C2079.75 1739.54 2083.94 1753.71 2087.26 1763.29C2088.61 1767.16 2089.84 1770.47 2090.97 1773.21C2091.63 1776.41 2086.24 1778.76 2074.8 1780.27Z" />
					<path id="&lt;Path&gt;" class="shp11" d="M2079.05 1718.89C2074.31 1722.28 2064.3 1728.97 2057.63 1729.88C2051.63 1730.71 2042.97 1723.5 2031.63 1708.26L2031.81 1708.21C2032.58 1708.22 2036.25 1709.32 2052.25 1722.64C2057.76 1727.22 2065.15 1723.9 2074.41 1712.69C2076.18 1714.13 2077.73 1716.2 2079.05 1718.89Z" />
					<path id="&lt;Path&gt;" class="shp11" d="M2074.8 1780.27L2054.84 1780.41C2048.15 1779.4 2043.2 1777.5 2036.34 1776.66C2025.91 1775.36 2021.15 1779.66 2020.2 1780.65C2020.12 1780.74 2020.05 1780.81 2020.02 1780.85L1935.23 1781.45C1933.07 1778.42 1935.07 1771.35 1937.04 1766.14C1939.6 1763.83 1940.41 1776.06 1941.85 1778C1943.28 1779.94 2011.02 1778.23 2014.91 1775.36C2018.81 1772.48 2030.51 1767.42 2046.9 1771.22C2061.16 1774.52 2082.08 1765.65 2087.26 1763.29C2088.61 1767.16 2089.84 1770.47 2090.97 1773.21C2091.63 1776.41 2086.24 1778.76 2074.8 1780.27Z" />
				</g>
				<path id="&lt;Path&gt;" class="shp12" d="M1971.89 1013.04C1971.96 918.19 1954.6 781.31 1930.88 770.79C1910.73 761.86 1866.76 749.09 1821.44 749.78C1785.67 750.32 1709.43 767.04 1701.67 826.15C1698.4 851.09 1696.1 873.84 1694.78 894.39C1700.24 910.31 1710.51 920.4 1725.58 924.67C1728.4 935.24 1729.69 945.72 1733.05 954.58C1758.09 1020.5 1764.45 1086.45 1752.16 1152.41C1786.72 1181.15 1958.71 1164.32 1976.04 1153.02C2004.27 1134.61 1971.82 1107.89 1971.89 1013.04Z" />
				<g id="&lt;Group&gt;">
					<path id="&lt;Path&gt;" class="shp11" d="M1930.67 1663.37L1916.35 1677.27C1910.82 1681.18 1905.93 1683.23 1900.39 1687.36C1891.97 1693.64 1891.5 1700.04 1891.5 1701.41C1891.5 1701.53 1891.5 1701.62 1891.51 1701.68L1830.67 1760.75C1827.02 1760.05 1823.58 1753.56 1821.4 1748.44C1819.91 1744.97 1820.16 1741 1822.04 1737.7C1826.67 1729.57 1837.78 1715.56 1839.18 1693.71C1839.72 1685.52 1843.22 1668.02 1849.68 1641.21L1849.79 1641.05C1850.35 1640.53 1853.75 1638.79 1874.52 1637.34C1881.67 1636.83 1884.72 1629.33 1883.66 1614.83C1885.93 1614.65 1888.47 1615.07 1891.29 1616.1C1894.66 1617.29 1898.55 1619.64 1901.67 1624.17C1906.08 1630.53 1918.9 1637.87 1927.93 1642.49C1931.58 1644.36 1934.76 1645.89 1937.47 1647.09C1940.15 1648.94 1937.89 1654.37 1930.67 1663.37Z" />
					<path id="&lt;Path&gt;" class="shp11" d="M1891.29 1616.1C1890.21 1621.82 1887.61 1633.58 1883.42 1638.85C1879.66 1643.6 1868.42 1644.38 1849.68 1641.21L1849.79 1641.05C1850.35 1640.53 1853.75 1638.79 1874.52 1637.34C1881.67 1636.83 1884.72 1629.33 1883.66 1614.83C1885.93 1614.65 1888.47 1615.07 1891.29 1616.1Z" />
					<path id="&lt;Path&gt;" class="shp11" d="M1930.67 1663.37L1916.35 1677.27C1910.82 1681.18 1905.93 1683.23 1900.39 1687.36C1891.97 1693.64 1891.5 1700.04 1891.5 1701.41C1891.5 1701.53 1891.5 1701.62 1891.51 1701.68L1830.67 1760.75C1827.02 1760.05 1823.58 1753.56 1821.4 1748.44C1821.65 1745 1830.69 1753.27 1833.07 1753.68C1835.45 1754.09 1883.19 1706 1884.02 1701.24C1884.84 1696.47 1889.79 1684.72 1904.26 1676.13C1916.84 1668.65 1925.82 1647.77 1927.93 1642.49C1931.58 1644.36 1934.76 1645.89 1937.47 1647.09C1940.15 1648.94 1937.89 1654.37 1930.67 1663.37Z" />
				</g>
				<path id="&lt;Path&gt;" class="shp10" d="M1881.57 783.31C1916.46 782.93 1942.2 787.87 1958.8 798.14C1983.71 813.55 2092.05 929.9 2105.73 962.08C2114.85 983.54 2077.49 1024.85 1993.67 1086.02L1975.94 1057.79C2013.29 1005.39 2029.58 975.77 2024.82 968.94C2017.68 958.69 1839.7 852.39 1881.57 783.31Z" />
				<path id="&lt;Path&gt;" class="shp10" d="M1982.55 1053.46L2003.43 1069.55C1991.19 1095.98 1981.72 1110.45 1975.03 1112.93L1974 1113.14C1963.22 1115.29 1936.45 1097.8 1931.98 1079.73C1931.61 1077.86 1931.69 1076.12 1932.23 1074.51C1936.37 1063.57 1961.46 1057.37 1974.57 1054.83C1977.76 1054.21 1980.42 1053.76 1982.55 1053.46Z" />
				<path id="&lt;Path&gt;" class="shp10" d="M1555.77 958.03L1545.31 982.22C1516.68 976.85 1500.33 971.23 1496.28 965.36L1495.83 964.4C1491.09 954.49 1501.47 924.24 1517.89 915.46C1519.6 914.65 1521.31 914.3 1523.01 914.42C1534.62 915.75 1546.81 938.54 1552.49 950.63C1553.87 953.57 1554.96 956.04 1555.77 958.03Z" />
				<path id="&lt;Path&gt;" class="shp12" d="M1861.77 752.4C1894.13 753.86 1921.92 761.79 1945.14 776.21C1955.84 782.85 1981.73 805.64 2022.82 844.57C2018.27 885.25 1991.52 911.1 1942.58 922.13C1892.76 933.36 1863.85 897.34 1855.85 814.09L1861.77 752.4Z" />
				<path id="&lt;Path&gt;" class="shp10" d="M1848.47 753.28C1850.8 756.7 1850.87 761.19 1848.66 764.69C1842.15 775.02 1823.91 792.88 1776.39 789.61C1760.11 788.49 1756.38 776.18 1766.68 763.52C1769.19 760.44 1768.34 742.72 1768.07 735.6C1767.44 724.65 1767.33 716.09 1767.74 709.94L1801.41 686.89L1833.35 664.81C1828.09 716.44 1841.74 743.43 1848.47 753.28Z" />
				<path id="&lt;Path&gt;" class="shp13" d="M1832.19 690.75C1816.52 715.29 1795.15 730.24 1768.07 735.6C1767.44 724.65 1767.33 716.09 1767.74 709.94L1801.41 686.89L1832.19 690.75Z" />
				<path id="&lt;Path&gt;" class="shp10" d="M1753.22 707.87C1805.4 719.99 1835.04 710 1842.14 677.9C1852.79 629.75 1870.07 599.67 1820.55 586.02C1771.03 572.37 1757.22 588.64 1749.69 603.85C1742.17 619.06 1733.14 701.89 1753.22 707.87Z" />
				<path id="&lt;Path&gt;" class="shp14" d="M1877.26 583.93C1878.03 583.16 1879.73 582.6 1883.43 582.64C1881.55 581.29 1879.29 580.49 1876.67 580.25C1876.24 575.07 1874.11 565.81 1865.44 563.02C1868.49 564.92 1870.1 567.7 1870.27 571.36C1860.74 560.18 1839.35 551.09 1778.39 551.86C1698.06 552.87 1721 605.78 1730.95 612.57C1740.89 619.36 1768.04 604.36 1787.22 607.17C1806.39 609.97 1808.21 638.07 1814.5 642.33C1820.78 646.58 1818.66 639.66 1827.77 636.24C1836.89 632.83 1836.75 647.55 1833.57 656.91C1831.44 663.15 1834.16 670.73 1841.7 679.65C1841.7 679.65 1846.09 675.51 1854.87 667.24C1868.03 654.82 1883.32 599.55 1878.53 587.23C1878.11 586.14 1877.69 585.04 1877.26 583.93Z" />
				<path id="&lt;Path&gt;" class="shp15" d="M1746.49 677.42C1747.91 682.18 1751.26 684.87 1756.55 685.48C1761.84 686.1 1766.22 684.53 1769.68 680.76C1761 676.72 1753.28 675.61 1746.49 677.42Z" />
			</g>
			<g id="&lt;Group&gt;">
				<path id="&lt;Path&gt;" class="shp16" d="M2217.1 1096.84L2210.65 1096.84L2210.71 1096.34L2212.65 1079.12C2212.72 1078.57 2213.19 1078.15 2213.74 1078.15C2213.81 1078.15 2213.88 1078.15 2213.95 1078.16C2214.31 1078.2 2214.64 1078.36 2214.91 1078.6C2215.21 1078.88 2215.42 1079.26 2215.46 1079.71L2217.1 1096.84Z" />
				<path id="&lt;Path&gt;" class="shp17" d="M2211.27 1092.94L2211.04 1092.94L2212.65 1079.12C2212.72 1078.57 2213.19 1078.15 2213.74 1078.15C2213.81 1078.15 2213.88 1078.15 2213.95 1078.16C2214.01 1078.21 2214.07 1078.26 2214.12 1078.32C2214.4 1078.63 2214.57 1079.03 2214.58 1079.47L2214.67 1089.41C2214.69 1091.32 2213.18 1092.89 2211.27 1092.94Z" />
				<path id="&lt;Path&gt;" class="shp16" d="M2221.22 1173.46L2221.22 1723.06L2208.77 1723.06L2208.77 1173.46L2221.22 1173.46Z" />
				<path id="&lt;Path&gt;" class="shp17" d="M2214.52 1173.46L2214.52 1723.06L2208.77 1723.06L2208.77 1173.46L2214.52 1173.46Z" />
				<path id="&lt;Path&gt;" class="shp16" d="M2234.81 1635.35L2234.81 1780.77L2195.17 1780.77L2195.17 1635.35L2234.81 1635.35Z" />
				<path id="&lt;Path&gt;" class="shp17" d="M2218.8 1635.35L2218.8 1780.77L2195.17 1780.77L2195.17 1635.35L2218.8 1635.35Z" />
				<path id="&lt;Path&gt;" class="shp16" d="M2236.66 1105.14C2236.66 1111.93 2226.46 1117.43 2213.88 1117.43C2212.91 1117.43 2211.97 1117.4 2211.04 1117.34C2199.8 1116.59 2191.09 1111.41 2191.09 1105.14C2191.09 1098.87 2199.8 1093.7 2211.04 1092.94C2211.97 1092.88 2212.91 1092.85 2213.88 1092.85C2226.46 1092.85 2236.66 1098.35 2236.66 1105.14Z" />
				<path id="&lt;Path&gt;" class="shp17" d="M2224.86 1105.14C2224.86 1110.61 2219.17 1115.31 2211.04 1117.34C2199.8 1116.59 2191.09 1111.41 2191.09 1105.14C2191.09 1098.87 2199.8 1093.7 2211.04 1092.94C2219.17 1094.97 2224.86 1099.66 2224.86 1105.14Z" />
				<path id="&lt;Path&gt;" class="shp17" d="M2234.77 1184.29L2195.12 1184.29L2181.15 1117L2246.6 1117L2234.77 1184.29Z" />
				<path id="&lt;Path&gt;" class="shp16" d="M2250.14 1111.92L2250.14 1118.38L2177.61 1118.38L2177.61 1111.92L2250.14 1111.92Z" />
				<path id="&lt;Path&gt;" class="shp17" d="M2223.21 1111.92L2223.21 1118.38L2177.61 1118.38L2177.61 1111.92L2223.21 1111.92Z" />
				<path id="&lt;Path&gt;" class="shp16" d="M2201.66 1635.35L2227 1635.35L2223.29 1624.11C2222.96 1623.11 2222.03 1622.44 2220.98 1622.44L2209.11 1622.44C2207.82 1622.44 2206.66 1623.21 2206.17 1624.4L2201.66 1635.35Z" />
				<path id="&lt;Path&gt;" class="shp5" d="M2185.83 1120.28L2241.74 1120.28L2230.82 1180.77L2198.72 1180.77L2185.83 1120.28Z" />
				<path id="&lt;Path&gt;" class="shp5" d="M2192.6 1105.86C2195.44 1099.66 2199.66 1096.65 2205.27 1096.84C2201.7 1100.02 2200.08 1103.02 2200.41 1105.86C2200.74 1108.7 2198.13 1108.7 2192.6 1105.86Z" />
				<path id="&lt;Path&gt;" class="shp16" d="M2245.51 1111.92L2182.25 1111.92L2187.43 1104.55L2240.59 1104.55L2245.51 1111.92Z" />
				<path id="&lt;Path&gt;" class="shp17" d="M2229.93 1111.92L2182.25 1111.92L2187.43 1104.55L2225.01 1104.55L2229.93 1111.92Z" />
				<path id="&lt;Path&gt;" class="shp18" d="M2189.54 1122.39L2202.36 1122.39L2206.09 1178.87L2202.36 1178.87L2189.54 1122.39Z" />
			</g>
			<g id="&lt;Group&gt;">
				<path id="&lt;Path&gt;" class="shp16" d="M943.64 1096.84L937.19 1096.84L937.24 1096.34L939.19 1079.12C939.26 1078.57 939.73 1078.15 940.28 1078.15C940.35 1078.15 940.42 1078.15 940.49 1078.16C940.85 1078.2 941.18 1078.36 941.45 1078.6C941.75 1078.88 941.96 1079.26 942 1079.71L943.64 1096.84Z" />
				<path id="&lt;Path&gt;" class="shp17" d="M937.81 1092.94L937.58 1092.94L939.19 1079.12C939.26 1078.57 939.73 1078.15 940.28 1078.15C940.35 1078.15 940.42 1078.15 940.49 1078.16C940.55 1078.21 940.61 1078.26 940.66 1078.32C940.94 1078.63 941.11 1079.03 941.12 1079.47L941.21 1089.41C941.23 1091.32 939.72 1092.89 937.81 1092.94Z" />
				<path id="&lt;Path&gt;" class="shp16" d="M947.76 1173.46L947.76 1723.06L935.31 1723.06L935.31 1173.46L947.76 1173.46Z" />
				<path id="&lt;Path&gt;" class="shp17" d="M941.06 1173.46L941.06 1723.06L935.31 1723.06L935.31 1173.46L941.06 1173.46Z" />
				<path id="&lt;Path&gt;" class="shp16" d="M961.35 1635.35L961.35 1780.77L921.71 1780.77L921.71 1635.35L961.35 1635.35Z" />
				<path id="&lt;Path&gt;" class="shp17" d="M945.34 1635.35L945.34 1780.77L921.71 1780.77L921.71 1635.35L945.34 1635.35Z" />
				<path id="&lt;Path&gt;" class="shp16" d="M963.2 1105.14C963.2 1111.93 953 1117.43 940.42 1117.43C939.45 1117.43 938.51 1117.4 937.58 1117.34C926.34 1116.59 917.63 1111.41 917.63 1105.14C917.63 1098.87 926.34 1093.7 937.58 1092.94C938.51 1092.88 939.45 1092.85 940.42 1092.85C953 1092.85 963.2 1098.35 963.2 1105.14Z" />
				<path id="&lt;Path&gt;" class="shp17" d="M951.4 1105.14C951.4 1110.61 945.71 1115.31 937.58 1117.34C926.34 1116.59 917.63 1111.41 917.63 1105.14C917.63 1098.87 926.34 1093.7 937.58 1092.94C945.71 1094.97 951.4 1099.66 951.4 1105.14Z" />
				<path id="&lt;Path&gt;" class="shp17" d="M961.31 1184.29L921.66 1184.29L907.69 1117L973.14 1117L961.31 1184.29Z" />
				<path id="&lt;Path&gt;" class="shp16" d="M976.68 1111.92L976.68 1118.38L904.15 1118.38L904.15 1111.92L976.68 1111.92Z" />
				<path id="&lt;Path&gt;" class="shp17" d="M949.74 1111.92L949.74 1118.38L904.15 1118.38L904.15 1111.92L949.74 1111.92Z" />
				<path id="&lt;Path&gt;" class="shp16" d="M928.2 1635.35L953.54 1635.35L949.83 1624.11C949.5 1623.11 948.57 1622.44 947.52 1622.44L935.65 1622.44C934.36 1622.44 933.2 1623.21 932.71 1624.4L928.2 1635.35Z" />
				<path id="&lt;Path&gt;" class="shp5" d="M912.37 1120.28L968.28 1120.28L957.36 1180.77L925.26 1180.77L912.37 1120.28Z" />
				<path id="&lt;Path&gt;" class="shp5" d="M919.14 1105.86C921.98 1099.66 926.2 1096.65 931.81 1096.84C928.24 1100.02 926.62 1103.02 926.95 1105.86C927.28 1108.7 924.67 1108.7 919.14 1105.86Z" />
				<path id="&lt;Path&gt;" class="shp16" d="M972.04 1111.92L908.79 1111.92L913.97 1104.55L967.13 1104.55L972.04 1111.92Z" />
				<path id="&lt;Path&gt;" class="shp17" d="M956.47 1111.92L908.79 1111.92L913.97 1104.55L951.55 1104.55L956.47 1111.92Z" />
				<path id="&lt;Path&gt;" class="shp18" d="M916.08 1122.39L928.89 1122.39L932.63 1178.87L928.89 1178.87L916.08 1122.39Z" />
			</g>
			<path id="&lt;Path&gt;" class="shp10" d="M1309.15 929.54C1309.12 929.56 1309.1 929.58 1309.07 929.6C1308.9 929.63 1308.93 929.61 1309.15 929.54Z" />
			<g id="&lt;Group&gt;">
				<path id="&lt;Path&gt;" class="shp12" d="M1310.23 1229.26C1310.23 1229.3 1310.23 1229.36 1310.23 1229.44C1310.23 1229.53 1310.23 1229.66 1310.22 1229.8C1309.8 1245.89 1308.66 1262.7 1307.01 1279.69C1304.63 1304.16 1301.21 1328.96 1297.43 1352.36L1297.43 1352.41C1296.77 1356.48 1296.09 1360.5 1295.42 1364.47C1294.88 1367.75 1294.33 1371 1293.75 1374.18C1292.45 1381.47 1291.15 1388.54 1289.86 1395.36C1288.79 1400.96 1287.73 1406.39 1286.69 1411.59C1279.98 1445.02 1274.01 1469.76 1272.17 1477.15C1272.18 1477.17 1272.18 1477.17 1272.17 1477.19C1271.81 1478.64 1273.58 1483.4 1274.16 1484.77C1292.67 1527.3 1288.39 1544.42 1284.67 1585.92C1279.68 1641.54 1270.72 1694.36 1257.79 1744.37L1224.99 1775.2C1231.91 1736.9 1231.1 1683.41 1222.56 1614.72C1218.56 1582.53 1212.29 1545.88 1202.73 1505.16C1192.09 1459.82 1166.39 1341.87 1163.22 1255.08C1162.89 1246.09 1165.6 1155.54 1183.09 1118.84C1186.11 1112.49 1199.49 1116.83 1223.21 1131.87L1259.8 1132.15L1296.27 1132.42C1296.56 1132.98 1296.85 1133.55 1297.13 1134.13C1303.34 1146.92 1307.06 1163.84 1308.93 1183.34C1310.27 1197.48 1310.62 1212.99 1310.23 1229.26Z" />
				<path id="&lt;Path&gt;" class="shp11" d="M1310.23 1229.26C1310.23 1229.3 1310.23 1229.36 1310.23 1229.44C1310.23 1229.53 1310.23 1229.66 1310.22 1229.8C1309.8 1245.89 1308.66 1262.7 1307.01 1279.69C1304.63 1304.16 1301.21 1328.96 1297.43 1352.36L1297.43 1352.41C1296.77 1356.48 1296.09 1360.5 1295.42 1364.47C1294.88 1367.75 1294.33 1371 1293.75 1374.18C1292.45 1381.47 1291.15 1388.54 1289.86 1395.36C1288.79 1400.96 1287.73 1406.39 1286.69 1411.59C1220.2 1254.5 1186.62 1174.93 1185.93 1172.86L1259.8 1132.15L1296.27 1132.42C1296.56 1132.98 1296.85 1133.55 1297.13 1134.13C1303.34 1146.92 1307.06 1163.84 1308.93 1183.34C1310.27 1197.48 1310.62 1212.99 1310.23 1229.26Z" />
				<path id="&lt;Path&gt;" class="shp8" d="M1221.38 1783.42C1221.41 1783.39 1221.45 1783.35 1221.51 1783.29C1222.16 1782.63 1225.44 1779.75 1232.5 1780.72C1237.16 1781.36 1240.5 1782.69 1245.04 1783.44L1258.59 1783.52C1266.38 1782.6 1270.06 1781.05 1269.64 1778.88C1268.9 1777 1268.09 1774.75 1267.21 1772.11C1265.04 1765.57 1262.32 1755.91 1263.22 1750.73C1263.86 1747.05 1263.09 1744.06 1262.04 1741.88C1261.16 1740.04 1260.13 1738.62 1258.94 1737.63C1252.55 1745.15 1247.5 1747.34 1243.8 1744.18C1233.05 1734.99 1230.57 1734.21 1230.05 1734.2L1229.93 1734.23C1214.03 1744.13 1204 1750.94 1199.84 1754.65C1188.76 1764.56 1176.71 1766.06 1170.59 1767.79C1168.11 1768.49 1166.1 1770.29 1165.17 1772.68C1163.78 1776.2 1162.36 1780.98 1163.8 1783.06L1221.38 1783.42Z" />
				<path id="&lt;Path&gt;" class="shp10" d="M1197.04 864.36C1181.8 961.16 1161.9 1028.08 1137.33 1065.13C1124.98 1083.76 1076.19 1057.03 990.96 984.94L1005.68 976.17C1072.42 1008.85 1106.88 1023.3 1109.07 1019.54C1112.36 1013.88 1123.45 897.57 1143.52 881.24C1156.9 870.36 1174.74 864.73 1197.04 864.36Z" />
				<path id="&lt;Path&gt;" class="shp11" d="M1206.72 796.96C1187.45 795.83 1173.49 779.84 1164.83 748.99C1154.79 713.2 1174.91 669.13 1226.53 673.05C1249.29 670.83 1264.59 679.05 1272.43 697.73C1277.62 710.11 1286.07 715 1271.12 760.6L1267.47 775.91L1206.72 796.96Z" />
				<path id="&lt;Path&gt;" class="shp11" d="M1264.84 754.49C1276.53 768.18 1289.02 773.74 1302.31 771.15C1322.25 767.27 1361.75 754.37 1377.05 772.56C1392.34 790.75 1370.95 832.19 1386.06 847.7C1401.16 863.2 1389.01 910.72 1319.99 894.93C1250.96 879.14 1253.38 802.78 1254.65 792.32C1255.49 785.35 1258.89 772.74 1264.84 754.49Z" />
				<path id="&lt;Path&gt;" class="shp12" d="M1591.58 1532.75L1588.48 1553.58C1533.25 1536.44 1474.7 1519.66 1412.81 1503.25C1383.54 1495.48 1353.27 1487.83 1324.3 1481.11C1304.51 1476.53 1265.25 1347.93 1206.5 1095.32C1293.34 1086.62 1348 1103.6 1370.48 1146.27C1423.23 1246.38 1364.14 1414.59 1405.43 1420.8C1415.03 1422.25 1425.21 1425.14 1435.66 1429.11C1483.27 1447.14 1535.24 1481.69 1591.58 1532.75Z" />
				<path id="&lt;Path&gt;" class="shp8" d="M1166.88 863.73C1193.52 850.93 1219.76 843.56 1245.61 841.64C1284.38 838.76 1330.34 843.4 1340.44 853.65C1345.66 858.96 1362.68 900.67 1355.42 933.85C1347.22 971.35 1344.3 989.62 1343.66 1013.26C1342.4 1059.73 1356.33 1084.53 1374.96 1136.84C1387.19 1171.19 1260.98 1243 1169.18 1174.64C1172.1 1136.59 1185.79 1045.03 1175.82 1028.11C1146.98 979.17 1147.99 877.2 1166.88 863.73Z" />
				<path id="&lt;Path&gt;" class="shp10" d="M1340.89 853.92C1404.96 927.24 1440.5 974.51 1447.51 995.74C1454.51 1016.96 1409.28 1048.69 1311.82 1090.91L1305.71 1067.88C1361.72 1022.85 1388.89 998.32 1387.22 994.29C1384.71 988.25 1322.68 932.57 1321.87 906.71C1321.32 889.48 1327.66 871.88 1340.89 853.92Z" />
				<path id="&lt;Path&gt;" class="shp10" d="M1223.06 880.36C1184.82 881.56 1199.45 862.69 1204.34 855.98C1205.02 855.06 1205.53 854.05 1205.89 852.97C1208.57 844.86 1208.32 828.73 1207.56 817.8C1206.74 806.06 1205.19 793.78 1204.66 789.67C1204.66 789.66 1204.66 789.66 1204.66 789.66C1204.57 789.04 1204.5 788.57 1204.46 788.23L1252.33 775.38L1260.87 790.62L1262.65 793.82C1262.88 797.6 1264.46 808.46 1267.21 819.06C1269.55 828.05 1272.72 836.84 1276.61 840.97C1279.28 843.8 1281.23 878.52 1223.06 880.36Z" />
				<path id="&lt;Path&gt;" class="shp19" d="M1267.21 819.06C1230.53 818.16 1205.31 790.4 1204.66 789.67C1204.65 789.66 1204.65 789.66 1204.65 789.66L1204.66 789.66C1219.81 784.98 1241.93 786.9 1260.87 790.62L1262.65 793.82C1262.88 797.6 1264.46 808.46 1267.21 819.06Z" />
				<g id="&lt;Group&gt;">
					<path id="&lt;Path&gt;" class="shp10" d="M1265.2 807.3C1222.41 810.86 1200.12 799.3 1198.31 772.62C1195.6 732.6 1185.49 706.34 1226.35 701.24C1267.21 696.13 1276.22 710.86 1280.37 724C1284.53 737.14 1281.83 804.88 1265.2 807.3Z" />
					<path id="&lt;Path&gt;" class="shp11" d="M1255.55 698.31C1245.91 730.39 1232.24 749.35 1214.55 755.17C1196.86 761 1183.95 761.76 1175.82 757.46C1188.9 745.57 1196.23 729.96 1197.82 710.63C1226.47 688.1 1245.71 684 1255.55 698.31Z" />
					<path id="&lt;Path&gt;" class="shp11" d="M1251.44 702.41C1260.67 708.81 1266.57 715.34 1269.16 721.99C1273.04 731.97 1275.88 752.86 1281.95 751.73C1289.37 729.87 1287.71 713.25 1276.98 701.88C1265.6 689.82 1257.09 689.99 1251.44 702.41Z" />
					<path id="&lt;Path&gt;" class="shp15" d="M1248.01 786.86C1249.76 790.42 1251.97 792.24 1254.65 792.32C1258.66 792.44 1268.95 791.64 1269.71 790.72C1270.21 790.11 1271.16 787.95 1272.55 784.25C1261.3 783.79 1253.13 784.66 1248.01 786.86Z" />
				</g>
				<path id="&lt;Path&gt;" class="shp8" d="M1333.55 849.45C1354.62 856.8 1373.67 875.46 1390.7 905.41C1387.64 925.37 1372.96 942.32 1346.66 956.28C1320.37 970.24 1308.49 949.13 1311.03 892.98L1333.55 849.45Z" />
				<path id="&lt;Path&gt;" class="shp8" d="M1172.54 861.19C1152.05 869.68 1140.1 878.17 1136.7 886.65C1131.49 899.62 1125.89 916.83 1119.92 938.27C1128.26 958.29 1146.57 970.83 1174.84 975.87C1201.32 980.6 1200.56 942.38 1172.54 861.19Z" />
				<path id="&lt;Path&gt;" class="shp10" d="M1312.41 1065.13L1326.83 1078.53C1315.9 1097.35 1307.86 1107.46 1302.72 1108.84L1301.93 1108.92C1293.77 1109.78 1275.06 1094.92 1272.98 1081.18C1272.84 1079.76 1273.02 1078.48 1273.53 1077.31C1277.36 1069.46 1296.45 1066.58 1306.38 1065.59C1308.79 1065.36 1310.8 1065.2 1312.41 1065.13Z" />
				<path id="&lt;Path&gt;" class="shp10" d="M1014.13 980.27L1008.91 996.01C997.84 994.89 989.01 993.16 982.43 990.83C978.66 989.5 973.22 985.71 972.59 981.76C971.21 973.03 972.41 956.43 980.46 950.22C981.62 949.41 982.84 948.94 984.11 948.82C989.92 948.52 999.93 959 1014.13 980.27Z" />
				<path id="&lt;Path&gt;" class="shp8" d="M1618.98 1548.2C1618.94 1548.18 1618.89 1548.14 1618.83 1548.09C1618.1 1547.52 1614.86 1544.6 1615.01 1537.47C1615.11 1532.77 1616.05 1529.29 1616.26 1524.7L1614.78 1511.23C1612.97 1503.6 1611 1500.13 1608.89 1500.79C1607.12 1501.75 1604.97 1502.81 1602.45 1503.99C1596.21 1506.9 1586.92 1510.71 1581.67 1510.42C1577.95 1510.21 1575.06 1511.31 1573.02 1512.62C1571.29 1513.7 1570 1514.89 1569.15 1516.18C1577.37 1521.66 1580.12 1526.42 1577.41 1530.47C1569.52 1542.2 1569.04 1544.75 1569.08 1545.27L1569.13 1545.39C1580.8 1560.04 1588.72 1569.21 1592.88 1572.92C1604.01 1582.79 1606.89 1594.58 1609.31 1600.46C1610.29 1602.84 1612.32 1604.63 1614.8 1605.28C1618.45 1606.25 1623.37 1607.11 1625.27 1605.44L1618.98 1548.2Z" />
			</g>
			<path id="&lt;Path&gt;" class="shp20" d="M786.33 1787.03L370.57 1786.91C361.72 1765.39 351.51 1736.87 339.92 1701.34C359.31 1696.7 412.86 1686.62 450.17 1705.63C496.47 1729.24 490.41 1760.63 547.75 1749.12C605.09 1737.61 652.4 1732.79 678.08 1749.12C703.76 1765.46 722.61 1758.96 754.55 1758.86C781.04 1758.78 785.56 1779.84 786.33 1787.03Z" />
			<path id="&lt;Path&gt;" class="shp21" d="M3033.78 1788.31L197.79 1788.31C196.02 1788.31 194.57 1786.86 194.57 1785.09L194.57 1783.99C194.57 1782.22 196.02 1780.77 197.79 1780.77L3033.78 1780.77C3035.55 1780.77 3037 1782.22 3037 1783.99L3037 1785.09C3037 1786.86 3035.55 1788.31 3033.78 1788.31Z" />
			<g id="&lt;Group&gt;">
				<path id="&lt;Path&gt;" class="shp22" d="M813.38 1669.18L434.02 1669.18L416.49 1580.01L795.16 1580.01L813.38 1669.18Z" />
				<path id="&lt;Path&gt;" class="shp23" d="M819.86 1669.18L440.5 1669.18L422.97 1580.01L801.64 1580.01L819.86 1669.18Z" />
				<path id="&lt;Path&gt;" class="shp22" d="M545.98 1680.09L442.32 1680.09C437.73 1680.09 434.01 1676.38 434.01 1671.79L434.01 1669.18L545.98 1669.18L545.98 1680.09Z" />
				<path id="&lt;Path&gt;" class="shp24" d="M889.69 1680.09L545.15 1680.09L545.15 1669.18L889.69 1669.18L889.69 1680.09Z" />
				<g id="&lt;Group&gt;">
					<path id="&lt;Path&gt;" class="shp24" d="M456.66 1680.09L450.17 1705.63C450.17 1705.65 450.17 1705.65 450.17 1705.66L430.94 1781.32C430.68 1782.31 429.8 1783 428.79 1783C426.84 1783 425.36 1781.21 425.74 1779.31L442.89 1691.06L445.03 1680.09L456.66 1680.09Z" />
				</g>
				<path id="&lt;Path&gt;" class="shp22" d="M450.17 1705.63C450.58 1696.92 448.16 1692.06 442.89 1691.06L445.03 1680.09L456.66 1680.09L450.17 1705.63Z" />
				<g id="&lt;Group&gt;">
					<path id="&lt;Path&gt;" class="shp24" d="M538.95 1680.09L532.46 1705.63C532.46 1705.65 532.46 1705.65 532.46 1705.66L513.23 1781.32C512.97 1782.31 512.09 1783 511.08 1783C509.13 1783 507.65 1781.21 508.03 1779.31L525.19 1691.06L527.32 1680.09L538.95 1680.09Z" />
				</g>
				<path id="&lt;Path&gt;" class="shp22" d="M532.46 1705.63C532.88 1696.92 530.45 1692.06 525.19 1691.06L527.32 1680.09L538.95 1680.09L532.46 1705.63Z" />
				<g id="&lt;Group&gt;">
					<path id="&lt;Path&gt;" class="shp24" d="M858.25 1680.09L864.75 1705.63C864.75 1705.65 864.75 1705.65 864.75 1705.66L883.97 1781.32C884.23 1782.31 885.12 1783 886.12 1783C888.07 1783 889.55 1781.21 889.17 1779.31L872.02 1691.06L869.88 1680.09L858.25 1680.09Z" />
				</g>
				<path id="&lt;Path&gt;" class="shp22" d="M864.75 1705.63C864.33 1696.92 866.75 1692.06 872.02 1691.06L869.88 1680.09L858.25 1680.09L864.75 1705.63Z" />
				<g id="&lt;Group&gt;">
					<path id="&lt;Path&gt;" class="shp24" d="M775.96 1680.09L782.45 1705.63C782.45 1705.65 782.45 1705.65 782.45 1705.66L801.68 1781.32C801.94 1782.31 802.82 1783 803.83 1783C805.78 1783 807.26 1781.21 806.88 1779.31L789.73 1691.06L787.59 1680.09L775.96 1680.09Z" />
				</g>
				<path id="&lt;Path&gt;" class="shp22" d="M782.45 1705.63C782.04 1696.92 784.46 1692.06 789.73 1691.06L787.59 1680.09L775.96 1680.09L782.45 1705.63Z" />
			</g>
			<path id="&lt;Path&gt;" class="shp7" d="M488.3 1096.43C481.19 1160 428.87 1144.16 375.85 1176.53C373.33 1178.13 370.58 1179.97 367.82 1181.8C346.02 1197.41 318.94 1205.21 294.61 1208.88C281.99 1210.72 270.06 1211.64 259.73 1211.87C260.19 1201.08 260.88 1190.3 261.57 1179.51C263.4 1156.56 266.16 1133.61 270.06 1111.35C272.58 1096.2 275.79 1081.05 279.47 1066.37C288.42 1030.34 300.58 995.91 316.64 963.33C361.39 966.77 410.96 991.56 445.39 1021.62C472.93 1045.95 490.83 1073.49 488.3 1096.43Z" />
			<path id="&lt;Path&gt;" class="shp20" d="M660.19 1405.1C647.11 1412.67 631.73 1417.49 614.98 1418.64C541.55 1423.23 516.07 1450.54 456.64 1508.37C408.9 1554.73 334.09 1546.69 296.91 1546.92C293.92 1534.07 290.94 1520.53 288.19 1506.99C269.37 1416.34 255.83 1313.07 259.73 1211.87C260.19 1201.08 260.88 1190.3 261.57 1179.51C263.4 1156.56 266.16 1133.61 270.06 1111.35C303.11 1121.67 337.99 1151.28 375.85 1176.53C416.25 1203.6 460.08 1225.63 508.04 1213.93C556.23 1202.23 593.41 1202.91 622.56 1212.33C659.73 1224.03 684.06 1249.5 701.5 1280.72C725.6 1323.63 704.71 1379.63 660.19 1405.1Z" />
		</g>
	</g>
</svg>